<svg width="105" height="69" viewBox="0 0 105 69" fill="none" xmlns="http://www.w3.org/2000/svg">
<path d="M92.9019 2H12.0981C7.94169 2 3.34989 3.53059 2.29589 7.55116C1.77102 9.55334 1.99414 11.3657 2.5758 12.8908C3.76569 16.0106 7.39516 17 10.7342 17H94.2658C97.6048 17 101.234 16.0106 102.424 12.8908C103.006 11.3657 103.229 9.55335 102.704 7.55116C101.65 3.53059 97.0583 2 92.9019 2Z" fill="#CEAED6"/>
<path d="M92.9019 52H12.0981C7.94169 52 3.34989 53.5306 2.29589 57.5512C1.77102 59.5533 1.99414 61.3657 2.5758 62.8908C3.76569 66.0106 7.39516 67 10.7342 67H94.2658C97.6048 67 101.234 66.0106 102.424 62.8908C103.006 61.3657 103.229 59.5533 102.704 57.5512C101.65 53.5306 97.0583 52 92.9019 52Z" fill="#CEAED6"/>
<path d="M92.9019 27H12.0981C7.94169 27 3.34989 28.5306 2.29589 32.5512C1.77102 34.5533 1.99414 36.3657 2.5758 37.8908C3.76569 41.0106 7.39516 42 10.7342 42H94.2658C97.6048 42 101.234 41.0106 102.424 37.8908C103.006 36.3657 103.229 34.5533 102.704 32.5512C101.65 28.5306 97.0583 27 92.9019 27Z" fill="#CEAED6"/>
<path d="M2.5758 12.8908L1.17428 13.4253L1.17428 13.4253L2.5758 12.8908ZM2.29589 7.55116L0.844922 7.17079L0.844922 7.17079L2.29589 7.55116ZM102.424 12.8908L103.826 13.4254L103.826 13.4253L102.424 12.8908ZM102.704 7.55116L101.253 7.93154L101.253 7.93154L102.704 7.55116ZM2.5758 62.8908L1.17428 63.4253L1.17428 63.4253L2.5758 62.8908ZM2.29589 57.5512L0.844922 57.1708L0.844922 57.1708L2.29589 57.5512ZM102.424 62.8908L103.826 63.4253L103.826 63.4253L102.424 62.8908ZM102.704 57.5512L101.253 57.9315L101.253 57.9315L102.704 57.5512ZM2.5758 37.8908L1.17428 38.4253L1.17428 38.4253L2.5758 37.8908ZM2.29589 32.5512L0.844922 32.1708L0.844922 32.1708L2.29589 32.5512ZM102.424 37.8908L103.826 38.4253L103.826 38.4253L102.424 37.8908ZM102.704 32.5512L101.253 32.9315L101.253 32.9315L102.704 32.5512ZM12.0981 3.5H92.9019V0.5H12.0981V3.5ZM94.2658 15.5H10.7342V18.5H94.2658V15.5ZM3.97733 12.3563C3.49472 11.0909 3.30976 9.59892 3.74686 7.93154L0.844922 7.17079C0.232285 9.50777 0.493568 11.6406 1.17428 13.4253L3.97733 12.3563ZM103.826 13.4253C104.506 11.6406 104.768 9.50777 104.155 7.17079L101.253 7.93154C101.69 9.59892 101.505 11.0909 101.023 12.3563L103.826 13.4253ZM10.7342 15.5C9.19214 15.5 7.67008 15.2687 6.44454 14.7386C5.24162 14.2183 4.39324 13.4468 3.97733 12.3563L1.17428 13.4253C1.94826 15.4547 3.50955 16.7377 5.25359 17.4921C6.97501 18.2366 8.9372 18.5 10.7342 18.5V15.5ZM94.2658 18.5C96.0628 18.5 98.025 18.2366 99.7464 17.4921C101.49 16.7377 103.052 15.4547 103.826 13.4254L101.023 12.3563C100.607 13.4468 99.7584 14.2183 98.5555 14.7386C97.3299 15.2687 95.8079 15.5 94.2658 15.5V18.5ZM92.9019 3.5C94.8188 3.5 96.7646 3.85631 98.3042 4.61379C99.8218 5.36041 100.864 6.44698 101.253 7.93154L104.155 7.17079C103.49 4.63477 101.71 2.94575 99.6286 1.92194C97.5697 0.908983 95.1414 0.5 92.9019 0.5V3.5ZM12.0981 0.5C9.85863 0.5 7.4303 0.908983 5.37141 1.92194C3.29046 2.94575 1.50974 4.63477 0.844922 7.17079L3.74686 7.93154C4.13604 6.44698 5.17822 5.36041 6.69578 4.61379C8.23539 3.85631 10.1812 3.5 12.0981 3.5V0.5ZM12.0981 53.5H92.9019V50.5H12.0981V53.5ZM94.2658 65.5H10.7342V68.5H94.2658V65.5ZM3.97733 62.3563C3.49472 61.0909 3.30976 59.5989 3.74686 57.9315L0.844922 57.1708C0.232285 59.5078 0.493567 61.6406 1.17428 63.4253L3.97733 62.3563ZM103.826 63.4253C104.506 61.6406 104.768 59.5078 104.155 57.1708L101.253 57.9315C101.69 59.5989 101.505 61.0909 101.023 62.3563L103.826 63.4253ZM10.7342 65.5C9.19214 65.5 7.67008 65.2687 6.44454 64.7386C5.24162 64.2183 4.39324 63.4468 3.97733 62.3563L1.17428 63.4253C1.94826 65.4547 3.50955 66.7377 5.25359 67.4921C6.97501 68.2366 8.9372 68.5 10.7342 68.5V65.5ZM94.2658 68.5C96.0628 68.5 98.025 68.2366 99.7464 67.4921C101.49 66.7377 103.052 65.4547 103.826 63.4253L101.023 62.3563C100.607 63.4468 99.7584 64.2183 98.5555 64.7386C97.3299 65.2687 95.8079 65.5 94.2658 65.5V68.5ZM92.9019 53.5C94.8188 53.5 96.7646 53.8563 98.3042 54.6138C99.8218 55.3604 100.864 56.447 101.253 57.9315L104.155 57.1708C103.49 54.6348 101.71 52.9458 99.6286 51.9219C97.5697 50.909 95.1414 50.5 92.9019 50.5V53.5ZM12.0981 50.5C9.85863 50.5 7.4303 50.909 5.37141 51.9219C3.29046 52.9458 1.50974 54.6348 0.844922 57.1708L3.74686 57.9315C4.13604 56.447 5.17822 55.3604 6.69578 54.6138C8.23539 53.8563 10.1812 53.5 12.0981 53.5V50.5ZM12.0981 28.5H92.9019V25.5H12.0981V28.5ZM94.2658 40.5H10.7342V43.5H94.2658V40.5ZM3.97733 37.3563C3.49472 36.0909 3.30976 34.5989 3.74686 32.9315L0.844922 32.1708C0.232285 34.5078 0.493568 36.6406 1.17428 38.4253L3.97733 37.3563ZM103.826 38.4253C104.506 36.6406 104.768 34.5078 104.155 32.1708L101.253 32.9315C101.69 34.5989 101.505 36.0909 101.023 37.3563L103.826 38.4253ZM10.7342 40.5C9.19214 40.5 7.67008 40.2687 6.44454 39.7386C5.24162 39.2183 4.39324 38.4468 3.97733 37.3563L1.17428 38.4253C1.94826 40.4547 3.50955 41.7377 5.25359 42.4921C6.97501 43.2366 8.9372 43.5 10.7342 43.5V40.5ZM94.2658 43.5C96.0628 43.5 98.025 43.2366 99.7464 42.4921C101.49 41.7377 103.052 40.4547 103.826 38.4253L101.023 37.3563C100.607 38.4468 99.7584 39.2183 98.5555 39.7386C97.3299 40.2687 95.8079 40.5 94.2658 40.5V43.5ZM92.9019 28.5C94.8188 28.5 96.7646 28.8563 98.3042 29.6138C99.8218 30.3604 100.864 31.447 101.253 32.9315L104.155 32.1708C103.49 29.6348 101.71 27.9458 99.6286 26.9219C97.5697 25.909 95.1414 25.5 92.9019 25.5V28.5ZM12.0981 25.5C9.85863 25.5 7.4303 25.909 5.37141 26.9219C3.29045 27.9458 1.50974 29.6348 0.844922 32.1708L3.74686 32.9315C4.13604 31.447 5.17822 30.3604 6.69578 29.6138C8.23539 28.8563 10.1812 28.5 12.0981 28.5V25.5Z" fill="white"/>
</svg>
