<svg width="103" height="67" viewBox="0 0 103 67" fill="none" xmlns="http://www.w3.org/2000/svg">
<path d="M91.9019 1H11.0981C6.94169 1 2.34989 2.53059 1.29589 6.55116C0.771022 8.55334 0.994142 10.3657 1.5758 11.8908C2.76569 15.0106 6.39516 16 9.73418 16H93.2658C96.6048 16 100.234 15.0106 101.424 11.8908C102.006 10.3657 102.229 8.55335 101.704 6.55116C100.65 2.53059 96.0583 1 91.9019 1Z" fill="#CEAED6"/>
<path d="M91.9019 51H11.0981C6.94169 51 2.34989 52.5306 1.29589 56.5512C0.771022 58.5533 0.994142 60.3657 1.5758 61.8908C2.76569 65.0106 6.39516 66 9.73418 66H93.2658C96.6048 66 100.234 65.0106 101.424 61.8908C102.006 60.3657 102.229 58.5533 101.704 56.5512C100.65 52.5306 96.0583 51 91.9019 51Z" fill="#CEAED6"/>
<path d="M91.9019 26H11.0981C6.94169 26 2.34989 27.5306 1.29589 31.5512C0.771022 33.5533 0.994142 35.3657 1.5758 36.8908C2.76569 40.0106 6.39516 41 9.73418 41H93.2658C96.6048 41 100.234 40.0106 101.424 36.8908C102.006 35.3657 102.229 33.5533 101.704 31.5512C100.65 27.5306 96.0583 26 91.9019 26Z" fill="#CEAED6"/>
<path d="M1.5758 11.8908L1.10863 12.069L1.10863 12.069L1.5758 11.8908ZM1.29589 6.55116L0.812236 6.42437L0.812236 6.42437L1.29589 6.55116ZM101.424 11.8908L101.891 12.069L101.891 12.069L101.424 11.8908ZM101.704 6.55116L101.22 6.67795L101.22 6.67795L101.704 6.55116ZM1.5758 61.8908L1.10863 62.069L1.10863 62.069L1.5758 61.8908ZM1.29589 56.5512L0.812236 56.4244L0.812236 56.4244L1.29589 56.5512ZM101.424 61.8908L101.891 62.069L101.891 62.069L101.424 61.8908ZM101.704 56.5512L101.22 56.678L101.22 56.678L101.704 56.5512ZM1.5758 36.8908L1.10863 37.069L1.10863 37.069L1.5758 36.8908ZM1.29589 31.5512L0.812236 31.4244L0.812236 31.4244L1.29589 31.5512ZM101.424 36.8908L101.891 37.069L101.891 37.069L101.424 36.8908ZM101.704 31.5512L101.22 31.678L101.22 31.678L101.704 31.5512ZM11.0981 1.5H91.9019V0.5H11.0981V1.5ZM93.2658 15.5H9.73418V16.5H93.2658V15.5ZM2.04298 11.7126C1.49433 10.2741 1.28393 8.56854 1.77955 6.67795L0.812236 6.42437C0.25811 8.53815 0.49395 10.4573 1.10863 12.069L2.04298 11.7126ZM101.891 12.069C102.506 10.4573 102.742 8.53815 102.188 6.42437L101.22 6.67795C101.716 8.56854 101.506 10.2741 100.957 11.7126L101.891 12.069ZM9.73418 15.5C8.10716 15.5 6.43839 15.258 5.04756 14.6564C3.66426 14.0581 2.57824 13.1161 2.04298 11.7126L1.10863 12.069C1.76325 13.7854 3.08691 14.8979 4.65057 15.5742C6.2067 16.2473 8.02218 16.5 9.73418 16.5V15.5ZM93.2658 16.5C94.9778 16.5 96.7933 16.2473 98.3494 15.5742C99.9131 14.8979 101.237 13.7854 101.891 12.069L100.957 11.7126C100.422 13.1161 99.3357 14.0581 97.9524 14.6564C96.5616 15.258 94.8928 15.5 93.2658 15.5V16.5ZM91.9019 1.5C93.9263 1.5 96.033 1.87387 97.7457 2.71651C99.451 3.55553 100.739 4.84291 101.22 6.67795L102.188 6.42437C101.615 4.23884 100.08 2.75064 98.1871 1.81922C96.3013 0.891425 94.0339 0.5 91.9019 0.5V1.5ZM11.0981 0.5C8.96615 0.5 6.69866 0.891425 4.81286 1.81922C2.91971 2.75064 1.38517 4.23884 0.812236 6.42437L1.77955 6.67795C2.26061 4.84291 3.54897 3.55553 5.25432 2.71651C6.96703 1.87387 9.07367 1.5 11.0981 1.5V0.5ZM11.0981 51.5H91.9019V50.5H11.0981V51.5ZM93.2658 65.5H9.73418V66.5H93.2658V65.5ZM2.04298 61.7126C1.49433 60.2741 1.28393 58.5685 1.77955 56.678L0.812236 56.4244C0.25811 58.5382 0.49395 60.4573 1.10863 62.069L2.04298 61.7126ZM101.891 62.069C102.506 60.4573 102.742 58.5382 102.188 56.4244L101.22 56.678C101.716 58.5685 101.506 60.2741 100.957 61.7126L101.891 62.069ZM9.73418 65.5C8.10716 65.5 6.43839 65.258 5.04756 64.6564C3.66426 64.0581 2.57824 63.1161 2.04298 61.7126L1.10863 62.069C1.76325 63.7854 3.08691 64.8979 4.65057 65.5742C6.2067 66.2473 8.02218 66.5 9.73418 66.5V65.5ZM93.2658 66.5C94.9778 66.5 96.7933 66.2473 98.3494 65.5742C99.9131 64.8979 101.237 63.7854 101.891 62.069L100.957 61.7126C100.422 63.1161 99.3357 64.0581 97.9524 64.6564C96.5616 65.258 94.8928 65.5 93.2658 65.5V66.5ZM91.9019 51.5C93.9263 51.5 96.033 51.8739 97.7457 52.7165C99.451 53.5555 100.739 54.8429 101.22 56.678L102.188 56.4244C101.615 54.2388 100.08 52.7506 98.1871 51.8192C96.3013 50.8914 94.0339 50.5 91.9019 50.5V51.5ZM11.0981 50.5C8.96615 50.5 6.69866 50.8914 4.81286 51.8192C2.91971 52.7506 1.38517 54.2388 0.812236 56.4244L1.77955 56.678C2.26061 54.8429 3.54897 53.5555 5.25432 52.7165C6.96703 51.8739 9.07366 51.5 11.0981 51.5V50.5ZM11.0981 26.5H91.9019V25.5H11.0981V26.5ZM93.2658 40.5H9.73418V41.5H93.2658V40.5ZM2.04298 36.7126C1.49433 35.2741 1.28393 33.5685 1.77955 31.678L0.812236 31.4244C0.25811 33.5382 0.49395 35.4573 1.10863 37.069L2.04298 36.7126ZM101.891 37.069C102.506 35.4573 102.742 33.5382 102.188 31.4244L101.22 31.678C101.716 33.5685 101.506 35.2741 100.957 36.7126L101.891 37.069ZM9.73418 40.5C8.10716 40.5 6.43839 40.258 5.04756 39.6564C3.66426 39.0581 2.57824 38.1161 2.04298 36.7126L1.10863 37.069C1.76325 38.7854 3.08691 39.8979 4.65057 40.5742C6.2067 41.2473 8.02218 41.5 9.73418 41.5V40.5ZM93.2658 41.5C94.9778 41.5 96.7933 41.2473 98.3494 40.5742C99.9131 39.8979 101.237 38.7854 101.891 37.069L100.957 36.7126C100.422 38.1161 99.3357 39.0581 97.9524 39.6564C96.5616 40.258 94.8928 40.5 93.2658 40.5V41.5ZM91.9019 26.5C93.9263 26.5 96.033 26.8739 97.7457 27.7165C99.451 28.5555 100.739 29.8429 101.22 31.678L102.188 31.4244C101.615 29.2388 100.08 27.7506 98.1871 26.8192C96.3013 25.8914 94.0339 25.5 91.9019 25.5V26.5ZM11.0981 25.5C8.96615 25.5 6.69866 25.8914 4.81286 26.8192C2.91971 27.7506 1.38517 29.2388 0.812236 31.4244L1.77955 31.678C2.26061 29.8429 3.54897 28.5555 5.25432 27.7165C6.96703 26.8739 9.07367 26.5 11.0981 26.5V25.5Z" fill="white"/>
</svg>
