<svg width="101" height="65" viewBox="0 0 101 65" fill="none" xmlns="http://www.w3.org/2000/svg">
<path d="M90.9019 0H10.0981C5.94169 0 1.34989 1.53059 0.295893 5.55116C-0.228978 7.55334 -0.00585836 9.36573 0.575804 10.8908C1.76569 14.0106 5.39516 15 8.73418 15H92.2658C95.6048 15 99.2343 14.0106 100.424 10.8908C101.006 9.36573 101.229 7.55335 100.704 5.55116C99.6501 1.53059 95.0583 0 90.9019 0Z" fill="#CEAED6"/>
<path d="M90.9019 50H10.0981C5.94169 50 1.34989 51.5306 0.295893 55.5512C-0.228978 57.5533 -0.00585836 59.3657 0.575804 60.8908C1.76569 64.0106 5.39516 65 8.73418 65H92.2658C95.6048 65 99.2343 64.0106 100.424 60.8908C101.006 59.3657 101.229 57.5533 100.704 55.5512C99.6501 51.5306 95.0583 50 90.9019 50Z" fill="#CEAED6"/>
<path d="M90.9019 25H10.0981C5.94169 25 1.34989 26.5306 0.295893 30.5512C-0.228978 32.5533 -0.00585836 34.3657 0.575804 35.8908C1.76569 39.0106 5.39516 40 8.73418 40H92.2658C95.6048 40 99.2343 39.0106 100.424 35.8908C101.006 34.3657 101.229 32.5533 100.704 30.5512C99.6501 26.5306 95.0583 25 90.9019 25Z" fill="#CEAED6"/>
</svg>
