<svg fill="none" height="211" viewBox="0 0 295 211" width="295" xmlns="http://www.w3.org/2000/svg"><path d="m199.898 154.472-1.909 2.551c-.285-.182-.586-.337-.9-.465 1.51 3.326 3.135 8.483 1.094 12.401-1.616 3.1-5.078 4.778-10.293 4.988-1.528.052-3.033.379-4.444.966-1.216.553-2.53.856-3.865.892-1.293.034-2.555-.405-3.549-1.235-2.59-2.197-3.084-7.023-1.5-14.721-1.892.887-3.657 1.821-5.223 2.71-1.295.738-2.797 1.026-4.272.819-1.475-.206-2.84-.896-3.882-1.96-2.472-2.532-3.794-3.533-6.408-3.472.442.711.715 1.513.799 2.345.083.832-.025 1.673-.316 2.457-.942 2.02-3.379 3.007-7.443 3.007-.289 0-.584-.005-.889-.013-4.735-.157-7.488-1.332-8.417-3.597-.243-.697-.334-1.438-.266-2.173s.294-1.447.662-2.087c-.03-.002-.056-.002-.085-.002-2.161 0-3.1.966-5.556 3.485l-.048.048c-1.042 1.065-2.408 1.754-3.884 1.961-1.475.206-2.978-.082-4.272-.82-1.567-.889-3.329-1.821-5.222-2.707 1.585 7.694 1.089 12.523-1.5 14.718-.993.829-2.255 1.268-3.548 1.234-1.335-.035-2.649-.337-3.865-.889-1.411-.588-2.916-.915-4.444-.966-5.215-.213-8.6796-1.89-10.2932-4.988-2.0412-3.92-.4167-9.075 1.091-12.401-.319.128-.6248.288-.9131.475l-1.8926-2.561c.4008-.303 10.0839-7.217 32.1599 5.316.682.39 1.474.543 2.253.436.778-.108 1.499-.47 2.05-1.03l.048-.05c3.448-3.538 5.022-5.155 11.002-4.106l2.93.512-2.052 2.155c-.663.704-1.76 2.381-1.407 3.236.292.703 1.906 1.497 5.572 1.616 4.504.149 5.24-.934 5.34-1.152.38-.817-.69-2.694-1.574-3.678l-1.916-2.137 2.827-.497c5.972-1.043 8.271.526 11.756 4.101.55.561 1.271.924 2.05 1.031.778.108 1.571-.046 2.253-.436 22.077-12.532 31.76-5.617 32.161-5.317zm-4.542 13.02c1.792-3.435-.799-9.261-2.333-11.91-.512-.053-1.059-.088-1.653-.098-4.548.079-9.037 1.032-13.224 2.808-2.506 10.413-.874 13.155-.053 13.85 1.077.916 3.041.292 4.114-.162 1.762-.737 3.644-1.148 5.553-1.216 3.992-.162 6.545-1.261 7.596-3.272zm-79.105 4.65c.818-.696 2.453-3.44-.053-13.853-4.188-1.773-8.677-2.727-13.224-2.809-.594.011-1.144.045-1.653.099-1.5345 2.649-4.1252 8.475-2.3335 11.91 1.0515 2.012 3.6045 3.113 7.5965 3.275 1.909.068 3.79.479 5.553 1.213 1.073.454 3.034 1.078 4.114.165z" fill="#4fb1c0"/><path d="m289.52 4.49554c1.713 1.70785 3.017 3.78229 3.812 6.06706.795 2.2847 1.062 4.7202.78 7.1229-.096 1.0729-.305 2.1326-.624 3.1613-.241.7543-.543 1.4875-.903 2.1925-1.903 3.8143-11.684 24.4413-17.269 56.0387-.549 3.1315-1.659 6.1383-3.275 8.8761-4.677 7.9392-15.688 20.9619-37.52 20.9639-.576 0-1.16-.013-1.751-.032-.069 2.718-.237 5.707-.563 8.696 7.848 5.069 14.98 11.168 21.205 18.135 6.105 6.978 10.24 14.113 12.29 21.2 2.608 8.765 1.813 18.192-2.227 26.397-2.818 5.805-6.8 10.969-11.697 15.172s-10.605 7.356-16.771 9.261c-4.807 1.52-9.817 2.303-14.859 2.323-3.794.007-7.574-.474-11.246-1.431-10.644-2.784-19.751-9.5-27.085-19.958-.008 0-.019.003-.027.003-3.584-.062-7.05-1.292-9.871-3.504l-.029-.021c-3.151-2.522-4.638-5.917-6.076-9.197-.425-.967-.857-1.959-1.335-2.928l-34.913-.003c-.478.972-.913 1.962-1.335 2.928-1.439 3.283-2.925 6.676-6.079 9.197l-.026.024c-2.749 2.15-6.108 3.374-9.596 3.496-7.334 10.461-16.4406 17.176-27.0872 19.961-3.6711.957-7.4501 1.437-11.2439 1.43-5.0427-.019-10.0535-.802-14.8617-2.322-6.1653-1.906-11.8734-5.058-16.77-9.261s-8.8773-9.367-11.6952-15.173c-4.0419-8.203-4.8383-17.629-2.23-26.394 2.0492-7.09 6.1846-14.225 12.2923-21.203 6.2262-6.965 13.3573-13.064 21.203-18.135-.3239-2.989-.4938-5.978-.5628-8.693-23 .717-34.4694-12.786-39.2711-20.9348-1.6142-2.7389-2.7236-5.7453-3.2755-8.8762-5.5847-31.5947-15.3634-52.2217-17.2665-56.036-.35999-.7054-.66269-1.4386-.905195-2.1925-.31676-1.0301-.524919-2.0905-.621094-3.164-.2829699-2.4026-.01669-4.8382.778759-7.123.79546-2.28471 2.09931-4.35903 3.81324-6.06647 1.82505-1.70764 4.00875-2.98572 6.39139-3.740749 2.3826-.75502544 4.9038-.9679 7.3793-.623047 12.0455 1.401496 25.1075 5.112306 38.8252 11.034066 11.748 5.1559 23.062 11.2489 33.8324 18.22 11.3286 7.2373 22.1426 15.2505 32.3646 23.9821.592-.1787 1.205-.2761 1.823-.2894.011 0 .024.0027.038.0027.999-.0115 1.984.2286 2.866.6981 3.987 2.1235 5.458 8.271 5.614 8.9744l.178.8069-.555.6105c-.045.05-4.629 5.1866-2.967 9.2371 1.415 3.44 7.111 5.54 16.478 6.07l.167.0027c9.359-.5335 15.053-2.63 16.465-6.07 1.664-4.0506-2.922-9.1894-2.967-9.24l-.552-.6105.177-.8069c.157-.7008 1.63-6.8695 5.63-8.9824.974-.5498 2.094-.7861 3.207-.6768.51.0334 1.014.126 1.502.276 10.222-8.7317 21.036-16.7449 32.365-23.982 10.77-6.9715 22.084-13.0654 33.832-18.2228 13.718-5.91917 26.782-9.63257 38.825-11.034071 2.476-.344997 4.998-.1319329 7.381.623596 2.383.755525 4.567 2.034405 6.393 3.743015zm1.417 12.90276c.236-1.9307.03-3.8898-.6-5.7297-.631-1.83997-1.671-3.51292-3.042-4.89297-1.48-1.38736-3.255-2.42143-5.192-3.0246-1.936-.60317-3.985-.75975-5.991-.45799-26.607 3.0976-53.437 17.34086-71.261 28.74396-11.272 7.1954-22.027 15.1699-32.187 23.8652.085 3.5914.547 5.0566.815 5.6113 5.853-2.4393 10.148-1.8049 12.741-.8255.064-.1088.125-.2176.189-.3291 3.56-6.2935 8.937-15.8067 14.779-18.461l.058-.0239c4.613-1.8499 9.417-3.1826 14.323-3.9736 6.403-.9794 11.369-.5494 14.758 1.2794l.038.0186c3.763 2.176 7.371 4.6106 10.797 7.2862l.064.0531c4.104 3.517 6.66 7.9949 8.619 11.91l.019.04c3.668 7.8595 3.45 17.1577-.614 26.1772l-.016.0318c-3.487 7.3154-9.627 12.717-16.613 14.6972.101 1.4151.188 3.6361.188 6.3091 21.394.69 32.041-11.8197 36.487-19.3659 1.423-2.4101 2.4-5.0574 2.883-7.8144 5.661-32.0274 15.618-53.0207 17.556-56.904.282-.5518.52-1.1252.711-1.7147.251-.8157.415-1.6556.491-2.5057zm-30.339 164.5457c3.692-7.491 4.425-16.099 2.054-24.107-1.908-6.63-5.808-13.348-11.591-19.968-5.71-6.378-12.199-12.011-19.316-16.768-.472 3.556-1.417 7.033-2.808 10.339l-.239-.112c-7.647 19.613-14.825 25.48-17.275 27-.005.019-.01.038-.016.059 1.006 3.111 2.925 10.893-.342 17.476-2.15 4.329-6.105 7.289-11.756 8.797-1.488.363-2.999.621-4.523.772-.921.109-1.792.215-2.644.374-1.661.311-3.269.854-4.778 1.614-.634.315-1.296.572-1.977.767 17.218 23.239 39.645 19.356 48.664 16.521 5.749-1.774 11.071-4.71 15.637-8.625 4.567-3.916 8.28-8.729 10.91-14.139zm-14.246-98.6036c3.668-8.1489 3.891-16.4889.634-23.4857-1.9-3.7984-4.162-7.74-7.801-10.87-.31-.2416-.616-.47-.924-.7008 1.303 2.2964 2.434 4.6867 3.382 7.1509 1.525 3.7899 1.962 7.9305 1.261 11.9552-1.678 9.7441-1.521 16.725.43 19.1485.209.2689.47.4935.767.6609.855-1.2222 1.608-2.5129 2.251-3.859zm-3.546 5.5582c-.428-.2797-.808-.6266-1.126-1.0273-3.036-3.7691-2.147-13.4151-.868-20.8419.635-3.6357.241-7.3764-1.136-10.8006-1.709-4.2337-3.684-8.5762-7.233-12.0348-1.218-.7884-2.426-1.5263-3.642-2.2191-6.129-3.2834-19.082-.1088-26.323 2.8349-4.889 2.2482-10.153 11.5517-13.298 17.1153-.04.0743-.08.1433-.122.215.029.0345.058.069.085.1061 2.765 1.29 7.034 4.6876 6.856 9.9618 2.938 2.32 6.774 7.3605 4.775 13.5372 1.568 1.8798 2.49 4.2137 2.63 6.6574.14 2.4438-.509 4.8678-1.852 6.9143 1.46 2.4761 4.9 9.4791 2.375 16.9641-2.32 6.872-8.963 12.12-19.748 15.6-1.579 1.237-3.108 3.13-2.88 4.016.14.555 1.359 1.351 4.334 1.776l2.018.286-.77 1.89c-.128.319-1.431 3.186-7.156 5.949-7.303 3.525-18.371 5.383-32.899 5.524h-.031c-14.536-.141-25.49-2.002-32.556-5.535-5.587-2.792-6.705-5.71-6.814-6.033l-.607-1.813 1.892-.271c2.936-.419 3.849-1.154 3.923-1.486.173-.783-1.68-2.835-3.854-4.287-10.6545-3.427-17.1285-8.584-19.2387-15.332-2.3863-7.612 1.574-14.771 3.225-17.2954-1.3294-2.0445-1.9687-4.4612-1.8239-6.8956.1447-2.4344 1.0659-4.7584 2.6282-6.631-2.0014-6.1766 1.8368-11.2172 4.7752-13.5371-.1779-5.2742 4.0882-8.6692 6.8562-9.9618.027-.0345.056-.069.082-.1035-.04-.0744-.08-.1434-.122-.215-3.145-5.5636-8.4062-14.8671-13.2955-17.1153-7.2411-2.9463-20.1943-6.1209-26.3232-2.8375-1.2157.6954-2.4234 1.4307-3.6418 2.219-3.5489 3.4613-5.5237 7.8038-7.2331 12.0349-1.3769 3.4242-1.7704 7.1648-1.1361 10.8005 1.2794 7.4269 2.1687 17.0728-.8679 20.842-.3168.4014-.697.7483-1.1255 1.0272 3.1022 3.8698 7.4111 6.5891 12.2392 7.7242l1.6006.345-.3822 1.5714c-.491 6.848-.3202 13.727.51 20.542l.0664.117c-.0151.011-.0311.021-.0478.029.3965 3.581 1.2659 7.095 2.5853 10.448 3.9258.852 17.7577 4.44 21.28 13.346 1.7386 4.393.7087 9.322-3.05 14.657.0073.288-.0446.573-.1523.84-.1078.267-.2691.508-.4741.71-.8388 2.588-2.665 9.63.1248 15.231 1.7253 3.466 4.9954 5.863 9.7175 7.121 1.3429.326 2.7071.556 4.0824.69.9313.112 1.8923.229 2.8423.404 1.953.366 3.844 1.004 5.62 1.895 3.52 1.755 8.258 1.006 12.074-1.906 2.533-2.033 3.796-4.921 5.137-7.979.57-1.303 1.162-2.649 1.871-3.989l.449-.847 38.78.003.448.846c.709 1.34 1.301 2.687 1.871 3.99 1.34 3.058 2.604 5.946 5.137 7.977 3.816 2.914 8.555 3.663 12.074 1.908 1.776-.891 3.667-1.529 5.62-1.895.949-.178 1.911-.292 2.842-.406 1.376-.132 2.74-.362 4.083-.688 4.722-1.258 7.992-3.655 9.717-7.121 3.467-6.96-.196-16.152-.233-16.245l.098-.04c-.035-.163-.056-.329-.064-.496-3.758-5.338-4.788-10.265-3.05-14.658 3.523-8.905 17.354-12.496 21.28-13.348 1.318-3.353 2.188-6.865 2.586-10.445-.03-.016-.046-.027-.05-.029l.069-.117c.83-6.815 1-13.694.509-20.5422l-.382-1.5714 1.601-.3451c4.827-1.1363 9.136-3.8557 12.239-7.7247zm-32.636 67.0784c1.949-1.274 8.205-6.434 15.149-23.353-4.773 1.218-15.22 4.605-17.899 11.376-.675 1.754-.812 3.67-.392 5.503.571 2.334 1.599 4.533 3.023 6.468.04 0 .08.003.119.006zm-9.271-40.689c2.205-6.495-1.192-12.865-2.251-14.612-9.742-2.527-17.49-2.0227-23.043 1.5-3.762 2.445-6.448 6.236-7.506 10.596-.523 5.848-2.418 10.052-5.638 12.494-1.987 1.489-4.416 2.267-6.899 2.211-2.447 4.969-5.144 7.374-8.247 7.348-4.302-.038-7.358-5.057-8.528-7.35-2.484.057-4.916-.721-6.904-2.212-3.22-2.442-5.115-6.646-5.638-12.494-1.058-4.361-3.745-8.152-7.509-10.596-5.558-3.5248-13.322-4.0265-23.0824-1.489-1.1519 1.704-5.1627 8.303-3.0684 14.949 1.805 5.734 7.6498 10.206 17.3698 13.296l.202.064.18.117c1.038.671 6.187 4.199 5.407 7.756-.425 1.94-2.307 2.917-4.019 3.429 2.809 2.633 11.263 7.607 35.085 7.841 23.778-.234 32.633-5.2 35.68-7.868-1.789-.536-3.766-1.56-4.281-3.588-.881-3.477 3.403-6.867 4.271-7.512l.215-.159.252-.08c9.909-3.151 15.95-7.74 17.952-13.641zm-1.954-17.8212c.984-1.5828 1.41-3.4499 1.208-5.3029-.201-1.853-1.018-3.5849-2.32-4.919l-.77-.7538.411-1.0007c2.734-6.551-3.745-11.0129-4.021-11.1987l-.82-.5521.127-.9821c.138-1.0697.004-2.1568-.388-3.1615-.392-1.0046-1.031-1.8945-1.857-2.5879-.904-.8346-1.937-1.5184-3.058-2.0252l-.255-.1036-.21-.1884c-.167-.1433-4.472-3.7347-12.85.0053-.356.1494-.744.2084-1.129.1718-.385-.0367-.755-.1678-1.076-.3818-.975-.6132-2.254-2.1341-2.448-8.1515-.644-.1607-1.325-.0853-1.919.2123-2.023 1.006-3.344 4.3054-3.886 6.1608 1.449 1.8341 4.982 7.0314 2.994 11.8994-.933 2.0773-2.563 3.7628-4.608 4.7646 5.273 1.5307 9.984 4.5666 13.556 8.7355 2.226 2.5308 4.044 5.394 5.386 8.4859 5.075-1.1357 11.074-.8464 17.933.8736zm-21.012.0319c-1.218-2.6826-2.829-5.1694-4.778-7.3791-2.129-2.5057-4.74-4.5575-7.679-6.0331-2.938-1.4757-6.144-2.345-9.425-2.5564-2.851.617-5.748.9952-8.661 1.1307l-.05.0027-.385-.0053c-2.914-.1342-5.811-.5125-8.661-1.1308-3.282.2114-6.487 1.0807-9.426 2.5564-2.938 1.4756-5.55 3.5274-7.679 6.0331-1.948 2.2106-3.558 4.6972-4.778 7.3791 1.431.5266 2.801 1.2047 4.088 2.0226 4.529 2.9174 7.725 7.5014 8.895 12.7604l.018.132c.427 4.929 1.893 8.39 4.356 10.286 1.626 1.24 3.673 1.792 5.701 1.537l1.237-.215.507 1.149c.728 1.672 3.419 6.45 6.134 6.474h.019c1.821 0 3.87-2.306 5.776-6.498l.518-1.136 1.218.229c2.028.252 4.074-.301 5.699-1.54 2.463-1.896 3.928-5.354 4.356-10.283l.018-.133c1.17-5.258 4.366-9.843 8.895-12.7601 1.286-.8188 2.656-1.4968 4.087-2.0222zm-45.663-18.1292c-2.043-1.0027-3.672-2.6881-4.605-4.7646-1.988-4.8681 1.545-10.0653 2.994-11.8995-.539-1.8527-1.863-5.1547-3.888-6.1607-.593-.2978-1.273-.3732-1.917-.2124-.194 6.0174-1.473 7.541-2.447 8.1515-.322.214-.692.3452-1.077.3818-.384.0366-.772-.0224-1.129-.1718-8.377-3.74-12.682-.1486-12.86.008l-.21.1885-.249.0929c-.242.1008-5.999 2.53-5.299 7.7719l.131.9848-.829.5521c-.273.1831-6.7496 4.6451-4.0157 11.196l.4194 1.006-.783.7565c-1.2999 1.3337-2.1153 3.0645-2.3159 4.916-.2007 1.8515.225 3.7169 1.209 5.298 6.8592-1.72 12.8582-2.0094 17.9332-.8733 1.341-3.092 3.157-5.9553 5.383-8.486 3.573-4.1678 8.284-7.2036 13.555-8.7357zm-11.405-17.8585c.268-.5521.73-2.0173.815-5.6113-10.16-8.6955-20.916-16.6692-32.1898-23.8626-17.8213-11.4058-44.6515-25.64897-71.2613-28.74397-2.0054-.3028-4.0533-.14695-5.9897.45581-1.9365.60276-3.71105 1.63675-5.19029 3.0242-1.37034 1.3804-2.41016 3.05332-3.04135 4.89316-.6312 1.8398-.83738 3.7987-.60306 5.7296.07635.8502.24183 1.6901.49371 2.5057.19088.5897.42878 1.1631.7114 1.7147 1.9377 3.8833 11.89409 24.8792 17.55589 56.9066.4838 2.7568 1.4603 5.4039 2.8826 7.8144 4.446 7.5463 15.082 20.0567 36.4867 19.3637 0-2.673.0876-4.892.1885-6.3096-6.9863-1.9775-13.1258-7.3791-16.6136-14.6971l-.0159-.0319c-4.0638-9.0195-4.2815-18.315-.6132-26.1772l.0186-.0371c1.9589-3.9179 4.5124-8.3931 8.616-11.91l.0664-.0531c3.4258-2.6773 7.0338-5.1128 10.7979-7.2889l.0345-.0185c3.3922-1.8262 8.3585-2.2562 14.7608-1.2768 4.9067.7889 9.7105 2.1207 14.3229 3.9709l.0584.0239c5.8422 2.657 11.2199 12.1676 14.7799 18.461.063.1142.124.22.188.3318 2.593-.9824 6.888-1.6141 12.741.8226zm-11.958 126.743c-.77-.204-1.517-.484-2.23-.836-1.51-.759-3.118-1.302-4.778-1.614-.852-.16-1.723-.263-2.6438-.375-1.5239-.15-3.0353-.409-4.523-.772-5.6511-1.508-9.6061-4.467-11.7561-8.797-3.3392-6.726-1.2608-14.707-.2787-17.677-2.6385-1.726-9.6247-7.804-17.0516-26.855l-.2389.109c-1.3919-3.306-2.3372-6.783-2.8109-10.338-7.1162 4.758-13.6058 10.392-19.3158 16.77-5.7811 6.617-9.68 13.338-11.5889 19.968-2.371 8.008-1.6375 16.616 2.0545 24.107 2.6294 5.41 6.3426 10.222 10.9091 14.138 4.5666 3.915 9.889 6.85 15.6371 8.623 9.0092 2.833 31.404 6.711 48.615-16.451zm-21.5902-38.754c.4196-1.832.2828-3.748-.3928-5.502-1.789-4.52-7.1323-7.51-11.3022-9.219-2.1478-.869-4.3525-1.59-6.5988-2.158 6.9465 16.922 13.2028 22.079 15.1511 23.353.04-.003.08-.003.1194-.005 1.4231-1.937 2.4508-4.135 3.0233-6.469zm-1.282 8.603-.0558.072.04.018c.0073-.029.0105-.061.0158-.09zm-1.2688-.422.1646.066-.1832-.135zm-28.6861-109.3993c-.3052.2309-.6105.4618-.9237.7007-3.6391 3.13-5.898 7.0739-7.7985 10.87-3.2569 6.9995-3.0339 15.3368.6344 23.4857.6429 1.3462 1.3958 2.637 2.2509 3.8594.2974-.1655.5583-.3894.7671-.6582 1.951-2.4261 2.1076-9.4044.4274-19.1512-.6986-4.0248-.262-8.1646 1.2608-11.9552.9514-2.4629 2.0816-4.853 3.3816-7.1512z" fill="#4fb1c0"/><path d="m287.295 6.77563c1.371 1.38005 2.411 3.053 3.042 4.89297.63 1.8399.836 3.799.6 5.7297-.076.8501-.24 1.69-.491 2.5057-.191.5895-.429 1.1629-.711 1.7147-1.938 3.8833-11.895 24.8766-17.556 56.904-.483 2.757-1.46 5.4043-2.883 7.8144-4.446 7.5462-15.093 20.0559-36.487 19.3659 0-2.673-.087-4.894-.188-6.3091 6.986-1.9802 13.126-7.3818 16.613-14.6972l.016-.0318c4.064-9.0195 4.282-18.3177.614-26.1772l-.019-.04c-1.959-3.9151-4.515-8.393-8.619-11.91l-.064-.0531c-3.426-2.6756-7.034-5.1102-10.797-7.2862l-.038-.0186c-3.389-1.8288-8.355-2.2588-14.758-1.2794-4.906.791-9.71 2.1237-14.323 3.9736l-.058.0239c-5.842 2.6543-11.219 12.1675-14.779 18.461-.064.1115-.125.2203-.189.3291-2.593-.9794-6.888-1.6138-12.741.8255-.268-.5547-.73-2.0199-.815-5.6113 10.16-8.6953 20.915-16.6698 32.187-23.8652 17.824-11.4031 44.654-25.64636 71.261-28.74396 2.006-.30176 4.055-.14518 5.991.45799 1.937.60317 3.712 1.63724 5.192 3.0246z" fill="#4fb1c0"/><path d="m262.652 157.837c2.371 8.008 1.638 16.616-2.054 24.107-2.63 5.41-6.343 10.223-10.91 14.139-4.566 3.915-9.888 6.851-15.637 8.625-9.019 2.835-31.446 6.718-48.664-16.521.681-.195 1.343-.452 1.977-.767 1.509-.76 3.117-1.303 4.778-1.614.852-.159 1.723-.265 2.644-.374 1.524-.151 3.035-.409 4.523-.772 5.651-1.508 9.606-4.468 11.756-8.797 3.267-6.583 1.348-14.365.342-17.476.006-.021.011-.04.016-.059 2.45-1.52 9.628-7.387 17.275-27l.239.112c1.391-3.306 2.336-6.783 2.808-10.339 7.117 4.757 13.606 10.39 19.316 16.768 5.783 6.62 9.683 13.338 11.591 19.968z" fill="#4fb1c0"/><path d="m246.986 59.8547c3.257 6.9968 3.034 15.3368-.634 23.4857-.643 1.3461-1.396 2.6368-2.251 3.859-.297-.1674-.558-.392-.767-.6609-1.951-2.4235-2.108-9.4044-.43-19.1485.701-4.0247.264-8.1653-1.261-11.9552-.948-2.4642-2.079-4.8545-3.382-7.1509.308.2308.614.4592.924.7008 3.639 3.13 5.901 7.0716 7.801 10.87z" fill="#ffe9b9"/><path d="m241.68 87.8713c.318.4007.698.7476 1.126 1.0273-3.103 3.869-7.412 6.5884-12.239 7.7247l-1.601.3451.382 1.5714c.491 6.8482.321 13.7272-.509 20.5422l-.069.117c.004.002.02.013.05.029-.398 3.58-1.268 7.092-2.586 10.445-3.926.852-17.757 4.443-21.28 13.348-1.738 4.393-.708 9.32 3.05 14.658.008.167.029.333.064.496l-.098.04c.037.093 3.7 9.285.233 16.245-1.725 3.466-4.995 5.863-9.717 7.121-1.343.326-2.707.556-4.083.688-.931.114-1.893.228-2.842.406-1.953.366-3.844 1.004-5.62 1.895-3.519 1.755-8.258 1.006-12.074-1.908-2.533-2.031-3.797-4.919-5.137-7.977-.57-1.303-1.162-2.65-1.871-3.99l-.448-.846-38.78-.003-.449.847c-.709 1.34-1.301 2.686-1.871 3.989-1.341 3.058-2.604 5.946-5.137 7.979-3.816 2.912-8.554 3.661-12.074 1.906-1.776-.891-3.667-1.529-5.62-1.895-.95-.175-1.911-.292-2.8423-.404-1.3753-.134-2.7395-.364-4.0824-.69-4.7221-1.258-7.9922-3.655-9.7175-7.121-2.7898-5.601-.9636-12.643-.1248-15.231.205-.202.3663-.443.4741-.71.1077-.267.1596-.552.1523-.84 3.7587-5.335 4.7886-10.264 3.05-14.657-3.5223-8.906-17.3542-12.494-21.28-13.346-1.3194-3.353-2.1888-6.867-2.5853-10.448.0167-.008.0327-.018.0478-.029l-.0664-.117c-.8302-6.815-1.001-13.694-.51-20.542l.3822-1.5714-1.6006-.345c-4.8281-1.1351-9.137-3.8544-12.2392-7.7242.4285-.2789.8087-.6258 1.1255-1.0272 3.0366-3.7692 2.1473-13.4151.8679-20.842-.6343-3.6357-.2408-7.3763 1.1361-10.8005 1.7094-4.2311 3.6842-8.5736 7.2331-12.0349 1.2184-.7883 2.4261-1.5236 3.6418-2.219 6.1289-3.2834 19.0821-.1088 26.3232 2.8375 4.8893 2.2482 10.1505 11.5517 13.2955 17.1153.042.0716.082.1406.122.215-.026.0345-.055.069-.082.1035-2.768 1.2926-7.0341 4.6876-6.8562 9.9618-2.9384 2.3199-6.7766 7.3605-4.7752 13.5371-1.5623 1.8726-2.4835 4.1966-2.6282 6.631-.1448 2.4344.4945 4.8511 1.8239 6.8956-1.651 2.5244-5.6113 9.6834-3.225 17.2954 2.1102 6.748 8.5842 11.905 19.2387 15.332 2.174 1.452 4.027 3.504 3.854 4.287-.074.332-.987 1.067-3.923 1.486l-1.892.271.607 1.813c.109.323 1.227 3.241 6.814 6.033 7.066 3.533 18.02 5.394 32.556 5.535h.031c14.528-.141 25.596-1.999 32.899-5.524 5.725-2.763 7.028-5.63 7.156-5.949l.77-1.89-2.018-.286c-2.975-.425-4.194-1.221-4.334-1.776-.228-.886 1.301-2.779 2.88-4.016 10.785-3.48 17.428-8.728 19.748-15.6 2.525-7.485-.915-14.488-2.375-16.9641 1.343-2.0465 1.992-4.4705 1.852-6.9143-.14-2.4437-1.062-4.7776-2.63-6.6574 1.999-6.1767-1.837-11.2172-4.775-13.5372.178-5.2742-4.091-8.6718-6.856-9.9618-.027-.0371-.056-.0716-.085-.1061.042-.0717.082-.1407.122-.215 3.145-5.5636 8.409-14.8671 13.298-17.1153 7.241-2.9437 20.194-6.1183 26.323-2.8349 1.216.6928 2.424 1.4307 3.642 2.2191 3.549 3.4586 5.524 7.8011 7.233 12.0348 1.377 3.4242 1.771 7.1649 1.136 10.8006-1.279 7.4268-2.168 17.0728.868 20.8419zm-43.691 69.1517 1.909-2.551c-.401-.3-10.084-7.214-32.16 5.317-.682.39-1.474.544-2.253.436-.778-.107-1.499-.47-2.05-1.031-3.485-3.575-5.784-5.144-11.756-4.101l-2.827.497 1.917 2.136c.884.985 1.953 2.862 1.574 3.679-.101.218-.836 1.301-5.341 1.152-3.665-.119-5.279-.913-5.571-1.616-.353-.855.743-2.532 1.407-3.236l2.051-2.155-2.93-.512c-5.98-1.049-7.554.568-11.002 4.106l-.048.05c-.551.56-1.272.922-2.05 1.03-.778.107-1.57-.046-2.253-.436-22.076-12.533-31.7588-5.619-32.1595-5.316l1.8926 2.561c.2882-.187.594-.347.9131-.475-1.5077 3.326-3.1322 8.481-1.091 12.401 1.6139 3.098 5.0778 4.775 10.2938 4.988 1.527.051 3.033.378 4.443.966 1.216.552 2.53.854 3.865.889 1.294.034 2.555-.405 3.549-1.234 2.588-2.195 3.084-7.024 1.5-14.719 1.892.887 3.655 1.819 5.221 2.708 1.294.738 2.797 1.026 4.273.82 1.476-.207 2.841-.896 3.884-1.961l.048-.048c2.455-2.519 3.394-3.485 5.555-3.485.029 0 .056 0 .085.002-.368.64-.593 1.352-.662 2.087-.068.735.023 1.476.266 2.173.929 2.264 3.682 3.44 8.417 3.597.306.008.601.013.89.013 4.064 0 6.5-.987 7.442-3.007.292-.784.4-1.625.316-2.457s-.357-1.635-.799-2.345c2.615-.061 3.937.94 6.408 3.472 1.042 1.064 2.407 1.754 3.883 1.96 1.475.207 2.977-.081 4.271-.819 1.566-.889 3.331-1.823 5.224-2.71-1.585 7.698-1.091 12.524 1.5 14.721.993.83 2.255 1.268 3.549 1.235 1.335-.036 2.649-.34 3.864-.892 1.412-.587 2.917-.914 4.444-.966 5.216-.21 8.677-1.888 10.293-4.988 2.042-3.918.417-9.075-1.093-12.401.313.128.613.283.898.465z" fill="#ffe9b9"/><path d="m225.319 132.624c-6.944 16.919-13.2 22.079-15.149 23.353-.039-.003-.079-.006-.119-.006-1.424-1.935-2.452-4.134-3.023-6.468-.42-1.833-.283-3.749.392-5.503 2.679-6.771 13.126-10.158 17.899-11.376z" fill="#ffe9b9"/><path d="m198.648 100.676c1.059 1.747 4.456 8.117 2.251 14.612-2.002 5.901-8.043 10.49-17.952 13.641l-.252.08-.215.159c-.868.645-5.152 4.035-4.271 7.512.515 2.028 2.492 3.052 4.281 3.588-3.047 2.668-11.902 7.634-35.68 7.868-23.822-.234-32.276-5.208-35.085-7.841 1.712-.512 3.594-1.489 4.019-3.429.78-3.557-4.369-7.085-5.407-7.756l-.18-.117-.202-.064c-9.72-3.09-15.5648-7.562-17.3698-13.296-2.0943-6.646 1.9165-13.245 3.0684-14.949 9.7604-2.5375 17.5244-2.0358 23.0824 1.489 3.764 2.444 6.451 6.235 7.509 10.596.523 5.848 2.418 10.052 5.638 12.494 1.988 1.491 4.42 2.269 6.904 2.212 1.17 2.293 4.226 7.312 8.528 7.35 3.103.026 5.8-2.379 8.247-7.348 2.483.056 4.912-.722 6.899-2.211 3.22-2.442 5.115-6.646 5.638-12.494 1.058-4.36 3.744-8.151 7.506-10.596 5.553-3.5227 13.301-4.027 23.043-1.5z" fill="#4fb1c0"/><path d="m197.833 87.2449c1.302 1.3341 2.119 3.066 2.32 4.919.202 1.853-.224 3.7201-1.208 5.3029-6.859-1.72-12.858-2.0093-17.933-.8736-1.342-3.0919-3.16-5.9551-5.386-8.4859-3.572-4.1689-8.283-7.2048-13.556-8.7355 2.045-1.0018 3.675-2.6873 4.608-4.7646 1.988-4.868-1.545-10.0653-2.994-11.8994.542-1.8554 1.863-5.1548 3.886-6.1608.594-.2976 1.275-.373 1.919-.2123.194 6.0174 1.473 7.5383 2.448 8.1515.321.214.691.3451 1.076.3818.385.0366.773-.0224 1.129-.1718 8.378-3.74 12.683-.1486 12.85-.0053l.21.1884.255.1036c1.121.5068 2.154 1.1906 3.058 2.0252.826.6934 1.465 1.5833 1.857 2.5879.392 1.0047.526 2.0918.388 3.1615l-.127.9821.82.5521c.276.1858 6.755 4.6477 4.021 11.1987l-.411 1.0007z" fill="#ffe9b9"/><path d="m193.023 155.582c1.534 2.649 4.125 8.475 2.333 11.91-1.051 2.011-3.604 3.11-7.596 3.272-1.909.068-3.791.479-5.553 1.216-1.073.454-3.037 1.078-4.114.162-.821-.695-2.453-3.437.053-13.85 4.187-1.776 8.676-2.729 13.224-2.808.594.01 1.141.045 1.653.098z" fill="#4fb1c0"/><path d="m173.155 90.1196c1.949 2.2097 3.56 4.6965 4.778 7.3791-1.431.5254-2.801 1.2034-4.087 2.0222-4.529 2.9171-7.725 7.5021-8.895 12.7601l-.018.133c-.428 4.929-1.893 8.387-4.356 10.283-1.625 1.239-3.671 1.792-5.699 1.54l-1.218-.229-.518 1.136c-1.906 4.192-3.955 6.498-5.776 6.498h-.019c-2.715-.024-5.406-4.802-6.134-6.474l-.507-1.149-1.237.215c-2.028.255-4.075-.297-5.701-1.537-2.463-1.896-3.929-5.357-4.356-10.286l-.018-.132c-1.17-5.259-4.366-9.843-8.895-12.7604-1.287-.8179-2.657-1.496-4.088-2.0226 1.22-2.6819 2.83-5.1685 4.778-7.3791 2.129-2.5057 4.741-4.5575 7.679-6.0331 2.939-1.4757 6.144-2.345 9.426-2.5564 2.85.6183 5.747.9966 8.661 1.1308l.385.0053.05-.0027c2.913-.1355 5.81-.5137 8.661-1.1307 3.281.2114 6.487 1.0807 9.425 2.5564 2.939 1.4756 5.55 3.5274 7.679 6.0331zm-13.71-.4831c0-.7891-.233-1.5606-.672-2.2168-.438-.6563-1.061-1.1677-1.79-1.4698s-1.532-.3812-2.306-.2273-1.485.5339-2.043 1.0919-.938 1.2689-1.092 2.0429-.075 1.5763.227 2.3054.813 1.3523 1.47 1.7908c.656.4384 1.427.6724 2.216.6724 1.058-.0007 2.073-.4213 2.821-1.1693.748-.7479 1.168-1.7623 1.169-2.8202zm0 9.6592c0-.7891-.233-1.5606-.672-2.2168-.438-.6562-1.061-1.1677-1.79-1.4698s-1.532-.3812-2.306-.2273-1.485.5339-2.043 1.0919-.938 1.2689-1.092 2.0429-.075 1.5764.227 2.3054.813 1.352 1.47 1.791c.656.438 1.427.672 2.216.672 1.058-.001 2.073-.421 2.821-1.169s1.168-1.762 1.169-2.8203zm0 9.6593c.001-.789-.232-1.561-.67-2.218-.439-.656-1.061-1.168-1.79-1.471-.73-.302-1.532-.382-2.306-.228s-1.485.533-2.044 1.091c-.558.558-.938 1.269-1.093 2.043-.154.774-.075 1.577.227 2.306s.813 1.352 1.469 1.791c.657.439 1.428.673 2.217.673 1.058-.001 2.072-.421 2.82-1.169.748-.747 1.169-1.761 1.17-2.818zm0 8.868c0-.789-.234-1.561-.672-2.217s-1.062-1.167-1.791-1.469-1.531-.381-2.305-.227-1.485.534-2.043 1.092-.938 1.269-1.092 2.043-.075 1.576.227 2.305.814 1.352 1.47 1.791c.656.438 1.427.672 2.216.672 1.058-.001 2.073-.421 2.821-1.169.748-.749 1.169-1.763 1.169-2.821zm-16.568-28.1892c0-.789-.234-1.5604-.672-2.2164-.439-.6561-1.062-1.1674-1.791-1.4694-.729-.3019-1.531-.3809-2.305-.227s-1.485.5339-2.043 1.0918c-.558.558-.938 1.2688-1.091 2.0427-.154.7739-.075 1.5761.227 2.305.302.729.813 1.3521 1.469 1.7905.656.4383 1.427.6723 2.216.6723 1.058-.0013 2.072-.4221 2.82-1.1699.748-.7479 1.168-1.7619 1.17-2.8196zm0 9.6592c0-.789-.234-1.5603-.672-2.2164-.439-.6561-1.062-1.1674-1.791-1.4694-.729-.3019-1.531-.381-2.305-.227-.774.1539-1.485.5339-2.043 1.0918-.558.558-.938 1.2688-1.091 2.0427-.154.7739-.075 1.5763.227 2.3053s.813 1.352 1.469 1.79c.656.439 1.427.673 2.216.673 1.058-.001 2.072-.422 2.821-1.17.748-.748 1.168-1.762 1.169-2.82zm0 9.659c0-.789-.234-1.56-.672-2.216-.439-.656-1.062-1.168-1.791-1.47s-1.531-.381-2.305-.227-1.485.534-2.043 1.092-.938 1.269-1.091 2.043c-.154.774-.075 1.576.227 2.305s.813 1.352 1.469 1.79c.656.439 1.427.673 2.216.673 1.058-.001 2.072-.422 2.821-1.17.748-.748 1.168-1.762 1.169-2.82zm0 8.868c0-.789-.234-1.56-.672-2.216-.439-.656-1.062-1.167-1.791-1.469s-1.531-.381-2.305-.227-1.485.533-2.043 1.091-.938 1.269-1.091 2.043c-.154.774-.075 1.576.227 2.305s.813 1.352 1.469 1.791c.656.438 1.427.672 2.216.672 1.058-.001 2.072-.422 2.82-1.17s1.168-1.762 1.17-2.82z" fill="#ffe9b9"/><path d="m170.222 50.3919c-.032.0637-.061.1274-.093.1911-.034-.022-.071-.0416-.108-.0584.069-.0425.135-.0849.201-.1327z" fill="#f8961d"/><g fill="#4fb1c0"><path d="m155.456 85.647c.789-.0001 1.561.2339 2.217.6722.656.4384 1.168 1.0615 1.47 1.7906s.381 1.5313.227 2.3053-.534 1.485-1.092 2.0431-1.269.9381-2.043 1.0921-1.576.075-2.305-.227c-.729-.3019-1.352-.8133-1.791-1.4695-.438-.6562-.672-1.4276-.672-2.2168.001-1.0578.421-2.0721 1.169-2.8202s1.762-1.1688 2.82-1.1698zm2.132 3.99c0-.4215-.125-.8337-.36-1.1842-.234-.3505-.567-.6238-.956-.7851-.39-.1613-.818-.2036-1.232-.1213-.413.0822-.793.2852-1.091.5833s-.501.6779-.583 1.0914c-.083.4135-.04.8421.121 1.2316.161.3894.434.7224.785.9566.35.2342.763.3591 1.184.3591.565-.0004 1.107-.2252 1.507-.6249s.624-.9412.625-1.5065z"/><path d="m155.456 95.3062c.789 0 1.561.234 2.217.6723.656.4384 1.167 1.0614 1.469 1.7904s.381 1.5311.227 2.3051-.534 1.485-1.092 2.043-1.268.938-2.042 1.092-1.576.075-2.305-.227-1.352-.813-1.791-1.469c-.438-.656-.672-1.428-.672-2.2168.001-1.0578.421-2.0721 1.169-2.8202s1.762-1.1688 2.82-1.1698zm2.132 3.99c0-.4216-.125-.8337-.36-1.1842-.234-.3506-.567-.6238-.956-.7851-.39-.1614-.818-.2036-1.232-.1213-.413.0822-.793.2852-1.091.5833s-.501.6779-.583 1.0914c-.083.4135-.04.8421.121 1.2317.161.389.434.722.785.956.35.235.763.36 1.184.36.565-.001 1.107-.226 1.507-.625.4-.4.624-.9416.625-1.5068z"/><path d="m155.456 104.965c.789.001 1.56.235 2.215.673.656.438 1.167 1.061 1.469 1.79.301.729.38 1.53.226 2.304-.153.773-.533 1.484-1.091 2.041-.558.558-1.268.938-2.041 1.092-.774.154-1.576.075-2.304-.226-.729-.302-1.352-.813-1.79-1.468-.439-.656-.673-1.427-.673-2.216.001-1.057.421-2.072 1.169-2.82s1.762-1.169 2.82-1.17zm2.132 3.99c0-.421-.124-.834-.358-1.185-.234-.35-.567-.624-.956-.786-.39-.162-.818-.204-1.232-.122s-.794.284-1.092.582c-.299.298-.502.678-.584 1.092-.083.413-.041.842.121 1.232.161.389.434.722.785.957.35.234.762.359 1.184.359.565 0 1.106-.225 1.506-.624s.625-.94.626-1.505z"/><path d="m155.456 113.834c.789-.001 1.561.233 2.217.672.656.438 1.168 1.061 1.47 1.79s.381 1.532.227 2.306-.534 1.485-1.092 2.043-1.269.938-2.043 1.092-1.576.075-2.305-.227c-.73-.302-1.353-.814-1.791-1.47s-.672-1.428-.672-2.217c.001-1.058.421-2.072 1.169-2.82s1.762-1.168 2.82-1.169zm2.132 3.989c0-.422-.125-.834-.36-1.184-.234-.351-.567-.624-.956-.785-.39-.162-.818-.204-1.232-.122-.413.083-.793.286-1.091.584s-.501.678-.583 1.091c-.083.414-.04.842.121 1.232.161.389.434.722.785.956.351.235.763.36 1.184.36.565-.001 1.107-.226 1.507-.625.399-.4.624-.942.625-1.507z"/><path d="m138.888 85.6443c.789 0 1.56.234 2.216.6725.657.4384 1.168 1.0615 1.47 1.7906s.381 1.5314.227 2.3053c-.154.774-.534 1.485-1.092 2.043s-1.269.938-2.043 1.092c-.774.1539-1.576.0749-2.305-.2271s-1.352-.8134-1.791-1.4695c-.438-.6562-.672-1.4276-.672-2.2168.001-1.0578.422-2.0719 1.17-2.8199s1.762-1.1688 2.82-1.1701zm2.131 3.99c0-.4215-.125-.8337-.359-1.1842s-.567-.6237-.957-.785c-.389-.1613-.818-.2036-1.231-.1213-.414.0822-.793.2852-1.091.5833-.299.2981-.502.6779-.584 1.0914s-.04.842.121 1.2315c.162.3895.435.7224.786.9566.35.2342.762.3592 1.184.3592.565-.0008 1.107-.2258 1.506-.6254.4-.3997.624-.9409.625-1.5061z"/><path d="m138.888 95.3035c.789.0001 1.56.2342 2.216.6726s1.167 1.0615 1.469 1.7905c.302.7289.381 1.531.227 2.3044-.154.774-.534 1.485-1.092 2.043s-1.269.938-2.042 1.092c-.774.154-1.576.075-2.305-.227s-1.352-.813-1.791-1.469c-.438-.656-.672-1.427-.672-2.2165.001-1.0579.421-2.0723 1.169-2.8204s1.763-1.1687 2.821-1.1696zm2.131 3.99c0-.4215-.125-.8336-.359-1.1842-.234-.3505-.567-.6237-.957-.785-.389-.1614-.818-.2036-1.231-.1213-.414.0822-.793.2852-1.091.5833-.299.2981-.502.6779-.584 1.0914s-.04.842.121 1.2313c.162.39.435.723.786.957.35.234.762.359 1.184.359.565 0 1.107-.225 1.507-.625.399-.4.624-.9412.624-1.5065z"/><path d="m138.888 104.963c.789 0 1.56.234 2.216.672.657.439 1.168 1.062 1.47 1.791s.381 1.531.227 2.305-.534 1.485-1.092 2.043-1.269.938-2.043 1.092-1.576.075-2.305-.227-1.352-.813-1.791-1.469c-.438-.656-.672-1.428-.672-2.217.001-1.058.421-2.072 1.169-2.82.748-.749 1.763-1.169 2.821-1.17zm2.131 3.99c0-.422-.125-.834-.359-1.184-.234-.351-.567-.624-.957-.785-.389-.162-.818-.204-1.231-.122-.414.083-.793.286-1.091.584-.299.298-.502.678-.584 1.091-.082.414-.04.842.121 1.232.162.389.435.722.786.956.35.234.762.359 1.184.359.565 0 1.107-.225 1.507-.625.399-.399.624-.941.624-1.506z"/><path d="m138.888 113.831c.789 0 1.56.234 2.216.672.657.439 1.168 1.062 1.47 1.791s.381 1.531.227 2.305-.534 1.485-1.092 2.043-1.269.938-2.043 1.092-1.576.075-2.305-.227-1.352-.813-1.791-1.469c-.438-.657-.672-1.428-.672-2.217.001-1.058.422-2.072 1.17-2.82s1.762-1.169 2.82-1.17zm2.131 3.99c0-.422-.125-.834-.359-1.184-.234-.351-.567-.624-.957-.785-.389-.162-.818-.204-1.231-.122-.414.083-.793.285-1.091.584-.299.298-.502.677-.584 1.091-.082.413-.04.842.121 1.231.162.39.435.723.786.957.35.234.762.359 1.184.359.565-.001 1.107-.225 1.506-.625.4-.4.624-.941.625-1.506z"/></g><path d="m127.665 74.6049c.933 2.0765 2.562 3.7619 4.605 4.7646-5.271 1.5321-9.982 4.5679-13.555 8.7357-2.226 2.5307-4.042 5.394-5.383 8.486-5.075-1.1361-11.074-.8467-17.9332.8733-.984-1.5811-1.4097-3.4465-1.209-5.298.2006-1.8515 1.016-3.5823 2.3159-4.916l.783-.7565-.4194-1.006c-2.7339-6.5509 3.7427-11.0129 4.0157-11.196l.829-.5521-.131-.9848c-.7-5.2419 5.057-7.6711 5.299-7.7719l.249-.0929.21-.1885c.178-.1566 4.483-3.748 12.86-.008.357.1494.745.2084 1.129.1718.385-.0366.755-.1678 1.077-.3818.974-.6105 2.253-2.1341 2.447-8.1515.644-.1608 1.324-.0854 1.917.2124 2.025 1.006 3.349 4.308 3.888 6.1607-1.449 1.8342-4.982 7.0314-2.994 11.8995z" fill="#ffe9b9"/><path d="m121.68 55.8997c-.085 3.594-.547 5.0592-.815 5.6113-5.853-2.4367-10.148-1.805-12.741-.8226-.064-.1118-.125-.2176-.188-.3318-3.56-6.2934-8.9377-15.804-14.7799-18.461l-.0584-.0239c-4.6124-1.8502-9.4162-3.182-14.3229-3.9709-6.4023-.9794-11.3686-.5494-14.7608 1.2768l-.0345.0185c-3.7641 2.1761-7.3721 4.6116-10.7979 7.2889l-.0664.0531c-4.1036 3.5169-6.6571 7.9921-8.616 11.91l-.0186.0371c-3.6683 7.8622-3.4506 17.1577.6132 26.1772l.0159.0319c3.4878 7.318 9.6273 12.7196 16.6136 14.6971-.1009 1.4176-.1885 3.6366-.1885 6.3096-21.4047.693-32.0407-11.8174-36.4867-19.3637-1.4223-2.4105-2.3988-5.0576-2.8826-7.8144-5.6618-32.0274-15.61819-53.0233-17.55589-56.9066-.28262-.5516-.52052-1.125-.7114-1.7147-.25188-.8156-.41736-1.6555-.49371-2.5057-.23432-1.9309-.02814-3.8898.60306-5.7296.63119-1.83984 1.67101-3.51276 3.04135-4.89316 1.47924-1.38745 3.25379-2.42144 5.19029-3.0242 1.9364-.60276 3.9843-.75861 5.9897-.45581 26.6098 3.095 53.44 17.33817 71.2613 28.74397 11.2738 7.1934 22.0298 15.1671 32.1898 23.8626z" fill="#4fb1c0"/><path d="m119.296 9.09023c.005.02369.008.04763.011.0717-.122.02331-.242.05615-.359.0982l-.029-.016c.123-.05836.249-.10975.377-.1539z" fill="#f8961d"/><path d="m116.198 158.289c2.506 10.413.871 13.157.053 13.853-1.08.913-3.041.289-4.114-.165-1.763-.734-3.644-1.145-5.553-1.213-3.992-.162-6.545-1.263-7.5965-3.275-1.7917-3.435.799-9.261 2.3335-11.91.509-.054 1.059-.088 1.653-.099 4.547.082 9.036 1.036 13.224 2.809z" fill="#4fb1c0"/><path d="m106.677 187.418c.713.352 1.46.632 2.23.836-17.211 23.162-39.6058 19.284-48.615 16.451-5.7481-1.773-11.0705-4.708-15.6371-8.623-4.5665-3.916-8.2797-8.728-10.9091-14.138-3.692-7.491-4.4255-16.099-2.0545-24.107 1.9089-6.63 5.8078-13.351 11.5889-19.968 5.71-6.378 12.1996-12.012 19.3158-16.77.4737 3.555 1.419 7.032 2.8109 10.338l.2389-.109c7.4269 19.051 14.4131 25.129 17.0516 26.855-.9821 2.97-3.0605 10.951.2787 17.677 2.15 4.33 6.105 7.289 11.7561 8.797 1.4877.363 2.9991.622 4.523.772.9208.112 1.7918.215 2.6438.375 1.66.312 3.268.855 4.778 1.614z" fill="#4fb1c0"/><path d="m86.924 143.998c.6756 1.754.8124 3.67.3928 5.502-.5725 2.334-1.6002 4.532-3.0233 6.469-.0394.002-.0794.002-.1194.005-1.9483-1.274-8.2046-6.431-15.1511-23.353 2.2463.568 4.451 1.289 6.5988 2.158 4.1699 1.709 9.5132 4.699 11.3022 9.219z" fill="#ffe9b9"/><path d="m55.1562 48.9824c.3132-.2389.6185-.4698.9237-.7007-1.3 2.2982-2.4302 4.6883-3.3816 7.1512-1.5228 3.7906-1.9594 7.9304-1.2608 11.9552 1.6802 9.7468 1.5236 16.7251-.4274 19.1512-.2088.2688-.4697.4927-.7671.6582-.8551-1.2224-1.608-2.5132-2.2509-3.8594-3.6683-8.1489-3.8913-16.4862-.6344-23.4857 1.9005-3.7961 4.1594-7.74 7.7985-10.87z" fill="#ffe9b9"/></svg>