<svg width="295" height="211" viewBox="0 0 295 211" fill="none" xmlns="http://www.w3.org/2000/svg">
<path d="M199.898 154.472L197.989 157.023C197.704 156.841 197.403 156.686 197.089 156.558C198.599 159.884 200.224 165.041 198.183 168.959C196.567 172.059 193.105 173.737 187.89 173.947C186.362 173.999 184.857 174.326 183.446 174.913C182.23 175.466 180.916 175.769 179.581 175.805C178.288 175.839 177.026 175.4 176.032 174.57C173.442 172.373 172.948 167.547 174.532 159.849C172.64 160.736 170.875 161.67 169.309 162.559C168.014 163.297 166.512 163.585 165.037 163.378C163.562 163.172 162.197 162.482 161.155 161.418C158.683 158.886 157.361 157.885 154.747 157.946C155.189 158.657 155.462 159.459 155.546 160.291C155.629 161.123 155.521 161.964 155.23 162.748C154.288 164.768 151.851 165.755 147.787 165.755C147.498 165.755 147.203 165.75 146.898 165.742C142.163 165.585 139.41 164.41 138.481 162.145C138.238 161.448 138.147 160.707 138.215 159.972C138.283 159.237 138.509 158.525 138.877 157.885C138.847 157.883 138.821 157.883 138.792 157.883C136.631 157.883 135.692 158.849 133.236 161.368L133.188 161.416C132.146 162.481 130.78 163.17 129.304 163.377C127.829 163.583 126.326 163.295 125.032 162.557C123.465 161.668 121.703 160.736 119.81 159.85C121.395 167.544 120.899 172.373 118.31 174.568C117.317 175.397 116.055 175.836 114.762 175.802C113.427 175.767 112.113 175.465 110.897 174.913C109.486 174.325 107.981 173.998 106.453 173.947C101.238 173.734 97.7734 172.057 96.1598 168.959C94.1186 165.039 95.7431 159.884 97.2508 156.558C96.9318 156.686 96.626 156.846 96.3377 157.033L94.4451 154.472C94.8459 154.169 104.529 147.255 126.605 159.788C127.287 160.178 128.079 160.331 128.858 160.224C129.636 160.116 130.357 159.754 130.908 159.194L130.956 159.144C134.404 155.606 135.978 153.989 141.958 155.038L144.888 155.55L142.836 157.705C142.173 158.409 141.076 160.086 141.429 160.941C141.721 161.644 143.335 162.438 147.001 162.557C151.505 162.706 152.241 161.623 152.341 161.405C152.721 160.588 151.651 158.711 150.767 157.727L148.851 155.59L151.678 155.093C157.65 154.05 159.949 155.619 163.434 159.194C163.984 159.755 164.705 160.118 165.484 160.225C166.262 160.333 167.055 160.179 167.737 159.789C189.814 147.257 199.497 154.172 199.898 154.472ZM195.356 167.492C197.148 164.057 194.557 158.231 193.023 155.582C192.511 155.529 191.964 155.494 191.37 155.484C186.822 155.563 182.333 156.516 178.146 158.292C175.64 168.705 177.272 171.447 178.093 172.142C179.17 173.058 181.134 172.434 182.207 171.98C183.969 171.243 185.851 170.832 187.76 170.764C191.752 170.602 194.305 169.503 195.356 167.492ZM116.251 172.142C117.069 171.446 118.704 168.702 116.198 158.289C112.01 156.516 107.521 155.562 102.974 155.48C102.38 155.491 101.83 155.525 101.321 155.579C99.7865 158.228 97.1958 164.054 98.9875 167.489C100.039 169.501 102.592 170.602 106.584 170.764C108.493 170.832 110.374 171.243 112.137 171.977C113.21 172.431 115.171 173.055 116.251 172.142Z" fill="#4FB1C0"/>
<path d="M289.52 4.49554C291.233 6.20339 292.537 8.27783 293.332 10.5626C294.127 12.8473 294.394 15.2828 294.112 17.6855C294.016 18.7584 293.807 19.8181 293.488 20.8468C293.247 21.6011 292.945 22.3343 292.585 23.0393C290.682 26.8536 280.901 47.4806 275.316 79.078C274.767 82.2095 273.657 85.2163 272.041 87.9541C267.364 95.8933 256.353 108.916 234.521 108.918C233.945 108.918 233.361 108.905 232.77 108.886C232.701 111.604 232.533 114.593 232.207 117.582C240.055 122.651 247.187 128.75 253.412 135.717C259.517 142.695 263.652 149.83 265.702 156.917C268.31 165.682 267.515 175.109 263.475 183.314C260.657 189.119 256.675 194.283 251.778 198.486C246.881 202.689 241.173 205.842 235.007 207.747C230.2 209.267 225.19 210.05 220.148 210.07C216.354 210.077 212.574 209.596 208.902 208.639C198.258 205.855 189.151 199.139 181.817 188.681C181.809 188.681 181.798 188.684 181.79 188.684C178.206 188.622 174.74 187.392 171.919 185.18L171.89 185.159C168.739 182.637 167.252 179.242 165.814 175.962C165.389 174.995 164.957 174.003 164.479 173.034L129.566 173.031C129.088 174.003 128.653 174.993 128.231 175.959C126.792 179.242 125.306 182.635 122.152 185.156L122.126 185.18C119.377 187.33 116.018 188.554 112.53 188.676C105.196 199.137 96.0894 205.852 85.4428 208.637C81.7717 209.594 77.9927 210.074 74.1989 210.067C69.1562 210.048 64.1454 209.265 59.3372 207.745C53.1719 205.839 47.4638 202.687 42.5672 198.484C37.6706 194.281 33.6899 189.117 30.872 183.311C26.8301 175.108 26.0337 165.682 28.642 156.917C30.6912 149.827 34.8266 142.692 40.9343 135.714C47.1605 128.749 54.2916 122.65 62.1373 117.579C61.8134 114.59 61.6435 111.601 61.5745 108.886C38.5745 109.603 27.1051 96.1 22.3034 87.9512C20.6892 85.2123 19.5798 82.2059 19.0279 79.075C13.4432 47.4803 3.6645 26.8533 1.7614 23.039C1.40141 22.3336 1.09871 21.6004 0.856205 20.8465C0.539445 19.8164 0.331286 18.756 0.235111 17.6825C-0.0478589 15.2799 0.218421 12.8443 1.01387 10.5595C1.80933 8.27479 3.11318 6.20047 4.82711 4.49303C6.65216 2.78539 8.83586 1.50731 11.2185 0.752281C13.6011 -0.00274444 16.1223 -0.215619 18.5978 0.129234C30.6433 1.53073 43.7053 5.24154 57.423 11.1633C69.171 16.3192 80.485 22.4122 91.2554 29.3833C102.584 36.6206 113.398 44.6338 123.62 53.3654C124.212 53.1867 124.825 53.0893 125.443 53.076C125.454 53.076 125.467 53.0787 125.481 53.0787C126.48 53.0672 127.465 53.3073 128.347 53.7768C132.334 55.9003 133.805 62.0478 133.961 62.7512L134.139 63.5581L133.584 64.1686C133.539 64.2186 128.955 69.3552 130.617 73.4057C132.032 76.8457 137.728 78.9457 147.095 79.4757L147.262 79.4784C156.621 78.9449 162.315 76.8484 163.727 73.4084C165.391 69.3578 160.805 64.219 160.76 64.1684L160.208 63.5579L160.385 62.751C160.542 62.0502 162.015 55.8815 166.015 53.7686C166.989 53.2188 168.109 52.9825 169.222 53.0918C169.732 53.1252 170.236 53.2178 170.724 53.3678C180.946 44.6361 191.76 36.6229 203.089 29.3858C213.859 22.4143 225.173 16.3204 236.921 11.163C250.639 5.24383 263.703 1.53043 275.746 0.128929C278.222 -0.216068 280.744 -0.0030039 283.127 0.752525C285.51 1.50805 287.694 2.78693 289.52 4.49554ZM290.937 17.3983C291.173 15.4676 290.967 13.5085 290.337 11.6686C289.706 9.82863 288.666 8.15568 287.295 6.77563C285.815 5.38827 284.04 4.3542 282.103 3.75103C280.167 3.14786 278.118 2.99128 276.112 3.29304C249.505 6.39064 222.675 20.6339 204.851 32.037C193.579 39.2324 182.824 47.2069 172.664 55.9022C172.749 59.4936 173.211 60.9588 173.479 61.5135C179.332 59.0742 183.627 59.7086 186.22 60.688C186.284 60.5792 186.345 60.4704 186.409 60.3589C189.969 54.0654 195.346 44.5522 201.188 41.8979L201.246 41.874C205.859 40.0241 210.663 38.6914 215.569 37.9004C221.972 36.921 226.938 37.351 230.327 39.1798L230.365 39.1984C234.128 41.3744 237.736 43.809 241.162 46.4846L241.226 46.5377C245.33 50.0547 247.886 54.5326 249.845 58.4477L249.864 58.4877C253.532 66.3472 253.314 75.6454 249.25 84.6649L249.234 84.6967C245.747 92.0121 239.607 97.4137 232.621 99.3939C232.722 100.809 232.809 103.03 232.809 105.703C254.203 106.393 264.85 93.8833 269.296 86.3371C270.719 83.927 271.696 81.2797 272.179 78.5227C277.84 46.4953 287.797 25.502 289.735 21.6187C290.017 21.0669 290.255 20.4935 290.446 19.904C290.697 19.0883 290.861 18.2484 290.937 17.3983ZM260.598 181.944C264.29 174.453 265.023 165.845 262.652 157.837C260.744 151.207 256.844 144.489 251.061 137.869C245.351 131.491 238.862 125.858 231.745 121.101C231.273 124.657 230.328 128.134 228.937 131.44L228.698 131.328C221.051 150.941 213.873 156.808 211.423 158.328C211.418 158.347 211.413 158.366 211.407 158.387C212.413 161.498 214.332 169.28 211.065 175.863C208.915 180.192 204.96 183.152 199.309 184.66C197.821 185.023 196.31 185.281 194.786 185.432C193.865 185.541 192.994 185.647 192.142 185.806C190.481 186.117 188.873 186.66 187.364 187.42C186.73 187.735 186.068 187.992 185.387 188.187C202.605 211.426 225.032 207.543 234.051 204.708C239.8 202.934 245.122 199.998 249.688 196.083C254.255 192.167 257.968 187.354 260.598 181.944ZM246.352 83.3404C250.02 75.1915 250.243 66.8515 246.986 59.8547C245.086 56.0563 242.824 52.1147 239.185 48.9847C238.875 48.7431 238.569 48.5147 238.261 48.2839C239.564 50.5803 240.695 52.9706 241.643 55.4348C243.168 59.2247 243.605 63.3653 242.904 67.39C241.226 77.1341 241.383 84.115 243.334 86.5385C243.543 86.8074 243.804 87.032 244.101 87.1994C244.956 85.9772 245.709 84.6865 246.352 83.3404ZM242.806 88.8986C242.378 88.6189 241.998 88.272 241.68 87.8713C238.644 84.1022 239.533 74.4562 240.812 67.0294C241.447 63.3937 241.053 59.653 239.676 56.2288C237.967 51.9951 235.992 47.6526 232.443 44.194C231.225 43.4056 230.017 42.6677 228.801 41.9749C222.672 38.6915 209.719 41.8661 202.478 44.8098C197.589 47.058 192.325 56.3615 189.18 61.9251C189.14 61.9994 189.1 62.0684 189.058 62.1401C189.087 62.1746 189.116 62.2091 189.143 62.2462C191.908 63.5362 196.177 66.9338 195.999 72.208C198.937 74.528 202.773 79.5685 200.774 85.7452C202.342 87.625 203.264 89.9589 203.404 92.4026C203.544 94.8464 202.895 97.2704 201.552 99.3169C203.012 101.793 206.452 108.796 203.927 116.281C201.607 123.153 194.964 128.401 184.179 131.881C182.6 133.118 181.071 135.011 181.299 135.897C181.439 136.452 182.658 137.248 185.633 137.673L187.651 137.959L186.881 139.849C186.753 140.168 185.45 143.035 179.725 145.798C172.422 149.323 161.354 151.181 146.826 151.322H146.795C132.259 151.181 121.305 149.32 114.239 145.787C108.652 142.995 107.534 140.077 107.425 139.754L106.818 137.941L108.71 137.67C111.646 137.251 112.559 136.516 112.633 136.184C112.806 135.401 110.953 133.349 108.779 131.897C98.1245 128.47 91.6505 123.313 89.5403 116.565C87.154 108.953 91.1143 101.794 92.7653 99.2696C91.4359 97.2251 90.7966 94.8084 90.9414 92.374C91.0861 89.9396 92.0073 87.6156 93.5696 85.743C91.5682 79.5664 95.4064 74.5258 98.3448 72.2059C98.1669 66.9317 102.433 63.5367 105.201 62.2441C105.228 62.2096 105.257 62.1751 105.283 62.1406C105.243 62.0662 105.203 61.9972 105.161 61.9256C102.016 56.362 96.7548 47.0585 91.8655 44.8103C84.6244 41.864 71.6712 38.6894 65.5423 41.9728C64.3266 42.6682 63.1189 43.4035 61.9005 44.1918C58.3516 47.6531 56.3768 51.9956 54.6674 56.2267C53.2905 59.6509 52.897 63.3915 53.5313 67.0272C54.8107 74.4541 55.7 84.1 52.6634 87.8692C52.3466 88.2706 51.9664 88.6175 51.5379 88.8964C54.6401 92.7662 58.949 95.4855 63.7771 96.6206L65.3777 96.9656L64.9955 98.537C64.5045 105.385 64.6753 112.264 65.5055 119.079L65.5719 119.196C65.5568 119.207 65.5408 119.217 65.5241 119.225C65.9206 122.806 66.79 126.32 68.1094 129.673C72.0352 130.525 85.8671 134.113 89.3894 143.019C91.128 147.412 90.0981 152.341 86.3394 157.676C86.3467 157.964 86.2948 158.249 86.1871 158.516C86.0793 158.783 85.918 159.024 85.713 159.226C84.8742 161.814 83.048 168.856 85.8378 174.457C87.5631 177.923 90.8332 180.32 95.5553 181.578C96.8982 181.904 98.2624 182.134 99.6377 182.268C100.569 182.38 101.53 182.497 102.48 182.672C104.433 183.038 106.324 183.676 108.1 184.567C111.62 186.322 116.358 185.573 120.174 182.661C122.707 180.628 123.97 177.74 125.311 174.682C125.881 173.379 126.473 172.033 127.182 170.693L127.631 169.846L166.411 169.849L166.859 170.695C167.568 172.035 168.16 173.382 168.73 174.685C170.07 177.743 171.334 180.631 173.867 182.662C177.683 185.576 182.422 186.325 185.941 184.57C187.717 183.679 189.608 183.041 191.561 182.675C192.51 182.497 193.472 182.383 194.403 182.269C195.779 182.137 197.143 181.907 198.486 181.581C203.208 180.323 206.478 177.926 208.203 174.46C211.67 167.5 208.007 158.308 207.97 158.215L208.068 158.175C208.033 158.012 208.012 157.846 208.004 157.679C204.246 152.341 203.216 147.414 204.954 143.021C208.477 134.116 222.308 130.525 226.234 129.673C227.552 126.32 228.422 122.808 228.82 119.228C228.79 119.212 228.774 119.201 228.77 119.199L228.839 119.082C229.669 112.267 229.839 105.388 229.348 98.5398L228.966 96.9684L230.567 96.6233C235.394 95.487 239.703 92.7676 242.806 88.8986ZM210.17 155.977C212.119 154.703 218.375 149.543 225.319 132.624C220.546 133.842 210.099 137.229 207.42 144C206.745 145.754 206.608 147.67 207.028 149.503C207.599 151.837 208.627 154.036 210.051 155.971C210.091 155.971 210.131 155.974 210.17 155.977ZM200.899 115.288C203.104 108.793 199.707 102.423 198.648 100.676C188.906 98.149 181.158 98.6533 175.605 102.176C171.843 104.621 169.157 108.412 168.099 112.772C167.576 118.62 165.681 122.824 162.461 125.266C160.474 126.755 158.045 127.533 155.562 127.477C153.115 132.446 150.418 134.851 147.315 134.825C143.013 134.787 139.957 129.768 138.787 127.475C136.303 127.532 133.871 126.754 131.883 125.263C128.663 122.821 126.768 118.617 126.245 112.769C125.187 108.408 122.5 104.617 118.736 102.173C113.178 98.6482 105.414 98.1465 95.6536 100.684C94.5017 102.388 90.4909 108.987 92.5852 115.633C94.3902 121.367 100.235 125.839 109.955 128.929L110.157 128.993L110.337 129.11C111.375 129.781 116.524 133.309 115.744 136.866C115.319 138.806 113.437 139.783 111.725 140.295C114.534 142.928 122.988 147.902 146.81 148.136C170.588 147.902 179.443 142.936 182.49 140.268C180.701 139.732 178.724 138.708 178.209 136.68C177.328 133.203 181.612 129.813 182.48 129.168L182.695 129.009L182.947 128.929C192.856 125.778 198.897 121.189 200.899 115.288ZM198.945 97.4668C199.929 95.884 200.355 94.0169 200.153 92.1639C199.952 90.3109 199.135 88.579 197.833 87.2449L197.063 86.4911L197.474 85.4904C200.208 78.9394 193.729 74.4775 193.453 74.2917L192.633 73.7396L192.76 72.7575C192.898 71.6878 192.764 70.6007 192.372 69.596C191.98 68.5914 191.341 67.7015 190.515 67.0081C189.611 66.1735 188.578 65.4897 187.457 64.9829L187.202 64.8793L186.992 64.6909C186.825 64.5476 182.52 60.9562 174.142 64.6962C173.786 64.8456 173.398 64.9046 173.013 64.868C172.628 64.8313 172.258 64.7002 171.937 64.4862C170.962 63.873 169.683 62.3521 169.489 56.3347C168.845 56.174 168.164 56.2494 167.57 56.547C165.547 57.553 164.226 60.8524 163.684 62.7078C165.133 64.5419 168.666 69.7392 166.678 74.6072C165.745 76.6845 164.115 78.37 162.07 79.3718C167.343 80.9025 172.054 83.9384 175.626 88.1073C177.852 90.6381 179.67 93.5013 181.012 96.5932C186.087 95.4575 192.086 95.7468 198.945 97.4668ZM177.933 97.4987C176.715 94.8161 175.104 92.3293 173.155 90.1196C171.026 87.6139 168.415 85.5621 165.476 84.0865C162.538 82.6108 159.332 81.7415 156.051 81.5301C153.2 82.1471 150.303 82.5253 147.39 82.6608L147.34 82.6635L146.955 82.6582C144.041 82.524 141.144 82.1457 138.294 81.5274C135.012 81.7388 131.807 82.6081 128.868 84.0838C125.93 85.5594 123.318 87.6112 121.189 90.1169C119.241 92.3275 117.631 94.8141 116.411 97.496C117.842 98.0226 119.212 98.7007 120.499 99.5186C125.028 102.436 128.224 107.02 129.394 112.279L129.412 112.411C129.839 117.34 131.305 120.801 133.768 122.697C135.394 123.937 137.441 124.489 139.469 124.234L140.706 124.019L141.213 125.168C141.941 126.84 144.632 131.618 147.347 131.642H147.366C149.187 131.642 151.236 129.336 153.142 125.144L153.66 124.008L154.878 124.237C156.906 124.489 158.952 123.936 160.577 122.697C163.04 120.801 164.505 117.343 164.933 112.414L164.951 112.281C166.121 107.023 169.317 102.438 173.846 99.5209C175.132 98.7021 176.502 98.0241 177.933 97.4987ZM132.27 79.3695C130.227 78.3668 128.598 76.6814 127.665 74.6049C125.677 69.7368 129.21 64.5396 130.659 62.7054C130.12 60.8527 128.796 57.5507 126.771 56.5447C126.178 56.2469 125.498 56.1715 124.854 56.3323C124.66 62.3497 123.381 63.8733 122.407 64.4838C122.085 64.6978 121.715 64.829 121.33 64.8656C120.946 64.9022 120.558 64.8432 120.201 64.6938C111.824 60.9538 107.519 64.5452 107.341 64.7018L107.131 64.8903L106.882 64.9832C106.64 65.084 100.883 67.5132 101.583 72.7551L101.714 73.7399L100.885 74.292C100.612 74.4751 94.1354 78.9371 96.8693 85.488L97.2887 86.494L96.5057 87.2505C95.2058 88.5842 94.3904 90.315 94.1898 92.1665C93.9891 94.018 94.4148 95.8834 95.3988 97.4645C102.258 95.7445 108.257 95.4551 113.332 96.5912C114.673 93.4992 116.489 90.6359 118.715 88.1052C122.288 83.9374 126.999 80.9016 132.27 79.3695ZM120.865 61.511C121.133 60.9589 121.595 59.4937 121.68 55.8997C111.52 47.2042 100.764 39.2305 89.4902 32.0371C71.6689 20.6313 44.8387 6.38813 18.2289 3.29313C16.2235 2.99033 14.1756 3.14618 12.2392 3.74894C10.3027 4.3517 8.52815 5.38569 7.04891 6.77314C5.67857 8.15354 4.63875 9.82646 4.00756 11.6663C3.37636 13.5061 3.17018 15.465 3.4045 17.3959C3.48085 18.2461 3.64633 19.086 3.89821 19.9016C4.08909 20.4913 4.32699 21.0647 4.60961 21.6163C6.54731 25.4996 16.5037 46.4955 22.1655 78.5229C22.6493 81.2797 23.6258 83.9268 25.0481 86.3373C29.4941 93.8836 40.1301 106.394 61.5348 105.701C61.5348 103.028 61.6224 100.809 61.7233 99.3914C54.737 97.4139 48.5975 92.0123 45.1097 84.6943L45.0938 84.6624C41.03 75.6429 40.8123 66.3474 44.4806 58.4852L44.4992 58.4481C46.4581 54.5302 49.0116 50.055 53.1152 46.5381L53.1816 46.485C56.6074 43.8077 60.2154 41.3722 63.9795 39.1961L64.014 39.1776C67.4062 37.3514 72.3725 36.9214 78.7748 37.9008C83.6815 38.6897 88.4853 40.0215 93.0977 41.8717L93.1561 41.8956C98.9983 44.5526 104.376 54.0632 107.936 60.3566C107.999 60.4708 108.06 60.5766 108.124 60.6884C110.717 59.706 115.012 59.0743 120.865 61.511ZM108.907 188.254C108.137 188.05 107.39 187.77 106.677 187.418C105.167 186.659 103.559 186.116 101.899 185.804C101.047 185.644 100.176 185.541 99.2552 185.429C97.7313 185.279 96.2199 185.02 94.7322 184.657C89.0811 183.149 85.1261 180.19 82.9761 175.86C79.6369 169.134 81.7153 161.153 82.6974 158.183C80.0589 156.457 73.0727 150.379 65.6458 131.328L65.4069 131.437C64.015 128.131 63.0697 124.654 62.596 121.099C55.4798 125.857 48.9902 131.491 43.2802 137.869C37.4991 144.486 33.6002 151.207 31.6913 157.837C29.3203 165.845 30.0538 174.453 33.7458 181.944C36.3752 187.354 40.0884 192.166 44.6549 196.082C49.2215 199.997 54.5439 202.932 60.292 204.705C69.3012 207.538 91.696 211.416 108.907 188.254ZM87.3168 149.5C87.7364 147.668 87.5996 145.752 86.924 143.998C85.135 139.478 79.7917 136.488 75.6218 134.779C73.474 133.91 71.2693 133.189 69.023 132.621C75.9695 149.543 82.2258 154.7 84.1741 155.974C84.2141 155.971 84.2541 155.971 84.2935 155.969C85.7166 154.032 86.7443 151.834 87.3168 149.5ZM86.0348 158.103L85.979 158.175L86.019 158.193C86.0263 158.164 86.0295 158.132 86.0348 158.103ZM84.766 157.681L84.9306 157.747L84.7474 157.612L84.766 157.681ZM56.0799 48.2817C55.7747 48.5126 55.4694 48.7435 55.1562 48.9824C51.5171 52.1124 49.2582 56.0563 47.3577 59.8524C44.1008 66.8519 44.3238 75.1892 47.9921 83.3381C48.635 84.6843 49.3879 85.9751 50.243 87.1975C50.5404 87.032 50.8013 86.8081 51.0101 86.5393C52.9611 84.1132 53.1177 77.1349 51.4375 67.3881C50.7389 63.3633 51.1755 59.2235 52.6983 55.4329C53.6497 52.97 54.7799 50.5799 56.0799 48.2817Z" fill="#4FB1C0"/>
<path d="M287.295 6.77563C288.666 8.15568 289.706 9.82863 290.337 11.6686C290.967 13.5085 291.173 15.4676 290.937 17.3983C290.861 18.2484 290.697 19.0883 290.446 19.904C290.255 20.4935 290.017 21.0669 289.735 21.6187C287.797 25.502 277.84 46.4953 272.179 78.5227C271.696 81.2797 270.719 83.927 269.296 86.3371C264.85 93.8833 254.203 106.393 232.809 105.703C232.809 103.03 232.722 100.809 232.621 99.3939C239.607 97.4137 245.747 92.0121 249.234 84.6967L249.25 84.6649C253.314 75.6454 253.532 66.3472 249.864 58.4877L249.845 58.4477C247.886 54.5326 245.33 50.0547 241.226 46.5377L241.162 46.4846C237.736 43.809 234.128 41.3744 230.365 39.1984L230.327 39.1798C226.938 37.351 221.972 36.921 215.569 37.9004C210.663 38.6914 205.859 40.0241 201.246 41.874L201.188 41.8979C195.346 44.5522 189.969 54.0654 186.409 60.3589C186.345 60.4704 186.284 60.5792 186.22 60.688C183.627 59.7086 179.332 59.0742 173.479 61.5135C173.211 60.9588 172.749 59.4936 172.664 55.9022C182.824 47.2069 193.579 39.2324 204.851 32.037C222.675 20.6339 249.505 6.39064 276.112 3.29304C278.118 2.99128 280.167 3.14786 282.103 3.75103C284.04 4.3542 285.815 5.38827 287.295 6.77563Z" fill="#4FB1C0"/>
<path d="M262.652 157.837C265.023 165.845 264.29 174.453 260.598 181.944C257.968 187.354 254.255 192.167 249.688 196.083C245.122 199.998 239.8 202.934 234.051 204.708C225.032 207.543 202.605 211.426 185.387 188.187C186.068 187.992 186.73 187.735 187.364 187.42C188.873 186.66 190.481 186.117 192.142 185.806C192.994 185.647 193.865 185.541 194.786 185.432C196.31 185.281 197.821 185.023 199.309 184.66C204.96 183.152 208.915 180.192 211.065 175.863C214.332 169.28 212.413 161.498 211.407 158.387C211.413 158.366 211.418 158.347 211.423 158.328C213.873 156.808 221.051 150.941 228.698 131.328L228.937 131.44C230.328 128.134 231.273 124.657 231.745 121.101C238.862 125.858 245.351 131.491 251.061 137.869C256.844 144.489 260.744 151.207 262.652 157.837Z" fill="#4FB1C0"/>
<path d="M246.986 59.8547C250.243 66.8515 250.02 75.1915 246.352 83.3404C245.709 84.6865 244.956 85.9772 244.101 87.1994C243.804 87.032 243.543 86.8074 243.334 86.5385C241.383 84.115 241.226 77.1341 242.904 67.39C243.605 63.3653 243.168 59.2247 241.643 55.4348C240.695 52.9706 239.564 50.5803 238.261 48.2839C238.569 48.5147 238.875 48.7431 239.185 48.9847C242.824 52.1147 245.086 56.0563 246.986 59.8547Z" fill="#FFE9B9"/>
<path d="M241.68 87.8713C241.998 88.272 242.378 88.6189 242.806 88.8986C239.703 92.7676 235.394 95.487 230.567 96.6233L228.966 96.9684L229.348 98.5398C229.839 105.388 229.669 112.267 228.839 119.082L228.77 119.199C228.774 119.201 228.79 119.212 228.82 119.228C228.422 122.808 227.552 126.32 226.234 129.673C222.308 130.525 208.477 134.116 204.954 143.021C203.216 147.414 204.246 152.341 208.004 157.679C208.012 157.846 208.033 158.012 208.068 158.175L207.97 158.215C208.007 158.308 211.67 167.5 208.203 174.46C206.478 177.926 203.208 180.323 198.486 181.581C197.143 181.907 195.779 182.137 194.403 182.269C193.472 182.383 192.51 182.497 191.561 182.675C189.608 183.041 187.717 183.679 185.941 184.57C182.422 186.325 177.683 185.576 173.867 182.662C171.334 180.631 170.07 177.743 168.73 174.685C168.16 173.382 167.568 172.035 166.859 170.695L166.411 169.849L127.631 169.846L127.182 170.693C126.473 172.033 125.881 173.379 125.311 174.682C123.97 177.74 122.707 180.628 120.174 182.661C116.358 185.573 111.62 186.322 108.1 184.567C106.324 183.676 104.433 183.038 102.48 182.672C101.53 182.497 100.569 182.38 99.6377 182.268C98.2624 182.134 96.8982 181.904 95.5553 181.578C90.8332 180.32 87.5631 177.923 85.8378 174.457C83.048 168.856 84.8742 161.814 85.713 159.226C85.918 159.024 86.0793 158.783 86.1871 158.516C86.2948 158.249 86.3467 157.964 86.3394 157.676C90.0981 152.341 91.128 147.412 89.3894 143.019C85.8671 134.113 72.0352 130.525 68.1094 129.673C66.79 126.32 65.9206 122.806 65.5241 119.225C65.5408 119.217 65.5568 119.207 65.5719 119.196L65.5055 119.079C64.6753 112.264 64.5045 105.385 64.9955 98.537L65.3777 96.9656L63.7771 96.6206C58.949 95.4855 54.6401 92.7662 51.5379 88.8964C51.9664 88.6175 52.3466 88.2706 52.6634 87.8692C55.7 84.1 54.8107 74.4541 53.5313 67.0272C52.897 63.3915 53.2905 59.6509 54.6674 56.2267C56.3768 51.9956 58.3516 47.6531 61.9005 44.1918C63.1189 43.4035 64.3266 42.6682 65.5423 41.9728C71.6712 38.6894 84.6244 41.864 91.8655 44.8103C96.7548 47.0585 102.016 56.362 105.161 61.9256C105.203 61.9972 105.243 62.0662 105.283 62.1406C105.257 62.1751 105.228 62.2096 105.201 62.2441C102.433 63.5367 98.1669 66.9317 98.3448 72.2059C95.4064 74.5258 91.5682 79.5664 93.5696 85.743C92.0073 87.6156 91.0861 89.9396 90.9414 92.374C90.7966 94.8084 91.4359 97.2251 92.7653 99.2696C91.1143 101.794 87.154 108.953 89.5403 116.565C91.6505 123.313 98.1245 128.47 108.779 131.897C110.953 133.349 112.806 135.401 112.633 136.184C112.559 136.516 111.646 137.251 108.71 137.67L106.818 137.941L107.425 139.754C107.534 140.077 108.652 142.995 114.239 145.787C121.305 149.32 132.259 151.181 146.795 151.322H146.826C161.354 151.181 172.422 149.323 179.725 145.798C185.45 143.035 186.753 140.168 186.881 139.849L187.651 137.959L185.633 137.673C182.658 137.248 181.439 136.452 181.299 135.897C181.071 135.011 182.6 133.118 184.179 131.881C194.964 128.401 201.607 123.153 203.927 116.281C206.452 108.796 203.012 101.793 201.552 99.3169C202.895 97.2704 203.544 94.8464 203.404 92.4026C203.264 89.9589 202.342 87.625 200.774 85.7452C202.773 79.5685 198.937 74.528 195.999 72.208C196.177 66.9338 191.908 63.5362 189.143 62.2462C189.116 62.2091 189.087 62.1746 189.058 62.1401C189.1 62.0684 189.14 61.9994 189.18 61.9251C192.325 56.3615 197.589 47.058 202.478 44.8098C209.719 41.8661 222.672 38.6915 228.801 41.9749C230.017 42.6677 231.225 43.4056 232.443 44.194C235.992 47.6526 237.967 51.9951 239.676 56.2288C241.053 59.653 241.447 63.3937 240.812 67.0294C239.533 74.4562 238.644 84.1022 241.68 87.8713ZM197.989 157.023L199.898 154.472C199.497 154.172 189.814 147.258 167.738 159.789C167.056 160.179 166.264 160.333 165.485 160.225C164.707 160.118 163.986 159.755 163.435 159.194C159.95 155.619 157.651 154.05 151.679 155.093L148.852 155.59L150.769 157.726C151.653 158.711 152.722 160.588 152.343 161.405C152.242 161.623 151.507 162.706 147.002 162.557C143.337 162.438 141.723 161.644 141.431 160.941C141.078 160.086 142.174 158.409 142.838 157.705L144.889 155.55L141.959 155.038C135.979 153.989 134.405 155.606 130.957 159.144L130.909 159.194C130.358 159.754 129.637 160.116 128.859 160.224C128.081 160.331 127.289 160.178 126.606 159.788C104.53 147.255 94.8472 154.169 94.4465 154.472L96.3391 157.033C96.6273 156.846 96.9331 156.686 97.2522 156.558C95.7445 159.884 94.12 165.039 96.1612 168.959C97.7751 172.057 101.239 173.734 106.455 173.947C107.982 173.998 109.488 174.325 110.898 174.913C112.114 175.465 113.428 175.767 114.763 175.802C116.057 175.836 117.318 175.397 118.312 174.568C120.9 172.373 121.396 167.544 119.812 159.849C121.704 160.736 123.467 161.668 125.033 162.557C126.327 163.295 127.83 163.583 129.306 163.377C130.782 163.17 132.147 162.481 133.19 161.416L133.238 161.368C135.693 158.849 136.632 157.883 138.793 157.883C138.822 157.883 138.849 157.883 138.878 157.885C138.51 158.525 138.285 159.237 138.216 159.972C138.148 160.707 138.239 161.448 138.482 162.145C139.411 164.409 142.164 165.585 146.899 165.742C147.205 165.75 147.5 165.755 147.789 165.755C151.853 165.755 154.289 164.768 155.231 162.748C155.523 161.964 155.631 161.123 155.547 160.291C155.463 159.459 155.19 158.656 154.748 157.946C157.363 157.885 158.685 158.886 161.156 161.418C162.198 162.482 163.563 163.172 165.039 163.378C166.514 163.585 168.016 163.297 169.31 162.559C170.876 161.67 172.641 160.736 174.534 159.849C172.949 167.547 173.443 172.373 176.034 174.57C177.027 175.4 178.289 175.838 179.583 175.805C180.918 175.769 182.232 175.465 183.447 174.913C184.859 174.326 186.364 173.999 187.891 173.947C193.107 173.737 196.568 172.059 198.184 168.959C200.226 165.041 198.601 159.884 197.091 156.558C197.404 156.686 197.704 156.841 197.989 157.023Z" fill="#FFE9B9"/>
<path d="M225.319 132.624C218.375 149.543 212.119 154.703 210.17 155.977C210.131 155.974 210.091 155.971 210.051 155.971C208.627 154.036 207.599 151.837 207.028 149.503C206.608 147.67 206.745 145.754 207.42 144C210.099 137.229 220.546 133.842 225.319 132.624Z" fill="#FFE9B9"/>
<path d="M198.648 100.676C199.707 102.423 203.104 108.793 200.899 115.288C198.897 121.189 192.856 125.778 182.947 128.929L182.695 129.009L182.48 129.168C181.612 129.813 177.328 133.203 178.209 136.68C178.724 138.708 180.701 139.732 182.49 140.268C179.443 142.936 170.588 147.902 146.81 148.136C122.988 147.902 114.534 142.928 111.725 140.295C113.437 139.783 115.319 138.806 115.744 136.866C116.524 133.309 111.375 129.781 110.337 129.11L110.157 128.993L109.955 128.929C100.235 125.839 94.3902 121.367 92.5852 115.633C90.4909 108.987 94.5017 102.388 95.6536 100.684C105.414 98.1465 113.178 98.6482 118.736 102.173C122.5 104.617 125.187 108.408 126.245 112.769C126.768 118.617 128.663 122.821 131.883 125.263C133.871 126.754 136.303 127.532 138.787 127.475C139.957 129.768 143.013 134.787 147.315 134.825C150.418 134.851 153.115 132.446 155.562 127.477C158.045 127.533 160.474 126.755 162.461 125.266C165.681 122.824 167.576 118.62 168.099 112.772C169.157 108.412 171.843 104.621 175.605 102.176C181.158 98.6533 188.906 98.149 198.648 100.676Z" fill="#4FB1C0"/>
<path d="M197.833 87.2449C199.135 88.579 199.952 90.3109 200.153 92.1639C200.355 94.0169 199.929 95.884 198.945 97.4668C192.086 95.7468 186.087 95.4575 181.012 96.5932C179.67 93.5013 177.852 90.6381 175.626 88.1073C172.054 83.9384 167.343 80.9025 162.07 79.3718C164.115 78.37 165.745 76.6845 166.678 74.6072C168.666 69.7392 165.133 64.5419 163.684 62.7078C164.226 60.8524 165.547 57.553 167.57 56.547C168.164 56.2494 168.845 56.174 169.489 56.3347C169.683 62.3521 170.962 63.873 171.937 64.4862C172.258 64.7002 172.628 64.8313 173.013 64.868C173.398 64.9046 173.786 64.8456 174.142 64.6962C182.52 60.9562 186.825 64.5476 186.992 64.6909L187.202 64.8793L187.457 64.9829C188.578 65.4897 189.611 66.1735 190.515 67.0081C191.341 67.7015 191.98 68.5914 192.372 69.596C192.764 70.6007 192.898 71.6878 192.76 72.7575L192.633 73.7396L193.453 74.2917C193.729 74.4775 200.208 78.9394 197.474 85.4904L197.063 86.4911L197.833 87.2449Z" fill="#FFE9B9"/>
<path d="M193.023 155.582C194.557 158.231 197.148 164.057 195.356 167.492C194.305 169.503 191.752 170.602 187.76 170.764C185.851 170.832 183.969 171.243 182.207 171.98C181.134 172.434 179.17 173.058 178.093 172.142C177.272 171.447 175.64 168.705 178.146 158.292C182.333 156.516 186.822 155.563 191.37 155.484C191.964 155.494 192.511 155.529 193.023 155.582Z" fill="#4FB1C0"/>
<path d="M173.155 90.1196C175.104 92.3293 176.715 94.8161 177.933 97.4987C176.502 98.0241 175.132 98.7021 173.846 99.5209C169.317 102.438 166.121 107.023 164.951 112.281L164.933 112.414C164.505 117.343 163.04 120.801 160.577 122.697C158.952 123.936 156.906 124.489 154.878 124.237L153.66 124.008L153.142 125.144C151.236 129.336 149.187 131.642 147.366 131.642H147.347C144.632 131.618 141.941 126.84 141.213 125.168L140.706 124.019L139.469 124.234C137.441 124.489 135.394 123.937 133.768 122.697C131.305 120.801 129.839 117.34 129.412 112.411L129.394 112.279C128.224 107.02 125.028 102.436 120.499 99.5186C119.212 98.7007 117.842 98.0226 116.411 97.496C117.631 94.8141 119.241 92.3275 121.189 90.1169C123.318 87.6112 125.93 85.5594 128.868 84.0838C131.807 82.6081 135.012 81.7388 138.294 81.5274C141.144 82.1457 144.041 82.524 146.955 82.6582L147.34 82.6635L147.39 82.6608C150.303 82.5253 153.2 82.1471 156.051 81.5301C159.332 81.7415 162.538 82.6108 165.476 84.0865C168.415 85.5621 171.026 87.6139 173.155 90.1196ZM159.445 89.6365C159.445 88.8474 159.212 88.0759 158.773 87.4197C158.335 86.7634 157.712 86.252 156.983 85.9499C156.254 85.6478 155.451 85.5687 154.677 85.7226C153.903 85.8765 153.192 86.2565 152.634 86.8145C152.076 87.3725 151.696 88.0834 151.542 88.8574C151.388 89.6314 151.467 90.4337 151.769 91.1628C152.071 91.8919 152.582 92.5151 153.239 92.9536C153.895 93.392 154.666 93.626 155.455 93.626C156.513 93.6253 157.528 93.2047 158.276 92.4567C159.024 91.7088 159.444 90.6944 159.445 89.6365ZM159.445 99.2957C159.445 98.5066 159.212 97.7351 158.773 97.0789C158.335 96.4227 157.712 95.9112 156.983 95.6091C156.254 95.307 155.451 95.2279 154.677 95.3818C153.903 95.5357 153.192 95.9157 152.634 96.4737C152.076 97.0317 151.696 97.7426 151.542 98.5166C151.388 99.2906 151.467 100.093 151.769 100.822C152.071 101.551 152.582 102.174 153.239 102.613C153.895 103.051 154.666 103.285 155.455 103.285C156.513 103.284 157.528 102.864 158.276 102.116C159.024 101.368 159.444 100.354 159.445 99.2957ZM159.445 108.955C159.446 108.166 159.213 107.394 158.775 106.737C158.336 106.081 157.714 105.569 156.985 105.266C156.255 104.964 155.453 104.884 154.679 105.038C153.905 105.192 153.194 105.571 152.635 106.129C152.077 106.687 151.697 107.398 151.542 108.172C151.388 108.946 151.467 109.749 151.769 110.478C152.071 111.207 152.582 111.83 153.238 112.269C153.895 112.708 154.666 112.942 155.455 112.942C156.513 112.941 157.527 112.521 158.275 111.773C159.023 111.026 159.444 110.012 159.445 108.955ZM159.445 117.823C159.445 117.034 159.211 116.262 158.773 115.606C158.335 114.95 157.711 114.439 156.982 114.137C156.253 113.835 155.451 113.756 154.677 113.91C153.903 114.064 153.192 114.444 152.634 115.002C152.076 115.56 151.696 116.271 151.542 117.045C151.388 117.819 151.467 118.621 151.769 119.35C152.071 120.079 152.583 120.702 153.239 121.141C153.895 121.579 154.666 121.813 155.455 121.813C156.513 121.812 157.528 121.392 158.276 120.644C159.024 119.895 159.445 118.881 159.445 117.823ZM142.877 89.6338C142.877 88.8448 142.643 88.0734 142.205 87.4174C141.766 86.7613 141.143 86.25 140.414 85.948C139.685 85.6461 138.883 85.5671 138.109 85.721C137.335 85.8749 136.624 86.2549 136.066 86.8128C135.508 87.3708 135.128 88.0816 134.975 88.8555C134.821 89.6294 134.9 90.4316 135.202 91.1605C135.504 91.8895 136.015 92.5126 136.671 92.951C137.327 93.3893 138.098 93.6233 138.887 93.6233C139.945 93.622 140.959 93.2012 141.707 92.4534C142.455 91.7055 142.875 90.6915 142.877 89.6338ZM142.877 99.293C142.877 98.504 142.643 97.7327 142.205 97.0766C141.766 96.4205 141.143 95.9092 140.414 95.6072C139.685 95.3053 138.883 95.2262 138.109 95.3802C137.335 95.5341 136.624 95.9141 136.066 96.472C135.508 97.03 135.128 97.7408 134.975 98.5147C134.821 99.2886 134.9 100.091 135.202 100.82C135.504 101.549 136.015 102.172 136.671 102.61C137.327 103.049 138.098 103.283 138.887 103.283C139.945 103.282 140.959 102.861 141.708 102.113C142.456 101.365 142.876 100.351 142.877 99.293ZM142.877 108.952C142.877 108.163 142.643 107.392 142.205 106.736C141.766 106.08 141.143 105.568 140.414 105.266C139.685 104.964 138.883 104.885 138.109 105.039C137.335 105.193 136.624 105.573 136.066 106.131C135.508 106.689 135.128 107.4 134.975 108.174C134.821 108.948 134.9 109.75 135.202 110.479C135.504 111.208 136.015 111.831 136.671 112.269C137.327 112.708 138.098 112.942 138.887 112.942C139.945 112.941 140.959 112.52 141.708 111.772C142.456 111.024 142.876 110.01 142.877 108.952ZM142.877 117.82C142.877 117.031 142.643 116.26 142.205 115.604C141.766 114.948 141.143 114.437 140.414 114.135C139.685 113.833 138.883 113.754 138.109 113.908C137.335 114.062 136.624 114.441 136.066 114.999C135.508 115.557 135.128 116.268 134.975 117.042C134.821 117.816 134.9 118.618 135.202 119.347C135.504 120.076 136.015 120.699 136.671 121.138C137.327 121.576 138.098 121.81 138.887 121.81C139.945 121.809 140.959 121.388 141.707 120.64C142.455 119.892 142.875 118.878 142.877 117.82Z" fill="#FFE9B9"/>
<path d="M170.222 50.3919C170.19 50.4556 170.161 50.5193 170.129 50.583C170.095 50.561 170.058 50.5414 170.021 50.5246C170.09 50.4821 170.156 50.4397 170.222 50.3919Z" fill="#F8961D"/>
<path d="M155.456 85.647C156.245 85.6469 157.017 85.8809 157.673 86.3192C158.329 86.7576 158.841 87.3807 159.143 88.1098C159.445 88.8389 159.524 89.6411 159.37 90.4151C159.216 91.1891 158.836 91.9001 158.278 92.4582C157.72 93.0163 157.009 93.3963 156.235 93.5503C155.461 93.7043 154.659 93.6253 153.93 93.3233C153.201 93.0214 152.578 92.51 152.139 91.8538C151.701 91.1976 151.467 90.4262 151.467 89.637C151.468 88.5792 151.888 87.5649 152.636 86.8168C153.384 86.0687 154.398 85.648 155.456 85.647ZM157.588 89.637C157.588 89.2155 157.463 88.8033 157.228 88.4528C156.994 88.1023 156.661 87.829 156.272 87.6677C155.882 87.5064 155.454 87.4641 155.04 87.5464C154.627 87.6286 154.247 87.8316 153.949 88.1297C153.651 88.4278 153.448 88.8076 153.366 89.2211C153.283 89.6346 153.326 90.0632 153.487 90.4527C153.648 90.8421 153.921 91.1751 154.272 91.4093C154.622 91.6435 155.035 91.7684 155.456 91.7684C156.021 91.768 156.563 91.5432 156.963 91.1435C157.363 90.7438 157.587 90.2023 157.588 89.637Z" fill="#4FB1C0"/>
<path d="M155.456 95.3062C156.245 95.3062 157.017 95.5402 157.673 95.9785C158.329 96.4169 158.84 97.0399 159.142 97.7689C159.444 98.4979 159.523 99.3 159.369 100.074C159.215 100.848 158.835 101.559 158.277 102.117C157.719 102.675 157.009 103.055 156.235 103.209C155.461 103.363 154.659 103.284 153.93 102.982C153.201 102.68 152.578 102.169 152.139 101.513C151.701 100.857 151.467 100.085 151.467 99.2962C151.468 98.2384 151.888 97.2241 152.636 96.476C153.384 95.7279 154.398 95.3072 155.456 95.3062ZM157.588 99.2962C157.588 98.8746 157.463 98.4625 157.228 98.112C156.994 97.7614 156.661 97.4882 156.272 97.3269C155.882 97.1655 155.454 97.1233 155.04 97.2056C154.627 97.2878 154.247 97.4908 153.949 97.7889C153.651 98.087 153.448 98.4668 153.366 98.8803C153.283 99.2938 153.326 99.7224 153.487 100.112C153.648 100.501 153.921 100.834 154.272 101.068C154.622 101.303 155.035 101.428 155.456 101.428C156.021 101.427 156.563 101.202 156.963 100.803C157.363 100.403 157.587 99.8614 157.588 99.2962Z" fill="#4FB1C0"/>
<path d="M155.456 104.965C156.245 104.966 157.016 105.2 157.671 105.638C158.327 106.076 158.838 106.699 159.14 107.428C159.441 108.157 159.52 108.958 159.366 109.732C159.213 110.505 158.833 111.216 158.275 111.773C157.717 112.331 157.007 112.711 156.234 112.865C155.46 113.019 154.658 112.94 153.93 112.639C153.201 112.337 152.578 111.826 152.14 111.171C151.701 110.515 151.467 109.744 151.467 108.955C151.468 107.898 151.888 106.883 152.636 106.135C153.384 105.387 154.398 104.966 155.456 104.965ZM157.588 108.955C157.588 108.534 157.464 108.121 157.23 107.77C156.996 107.42 156.663 107.146 156.274 106.984C155.884 106.822 155.456 106.78 155.042 106.862C154.628 106.944 154.248 107.146 153.95 107.444C153.651 107.742 153.448 108.122 153.366 108.536C153.283 108.949 153.325 109.378 153.487 109.768C153.648 110.157 153.921 110.49 154.272 110.725C154.622 110.959 155.034 111.084 155.456 111.084C156.021 111.084 156.562 110.859 156.962 110.46C157.362 110.061 157.587 109.52 157.588 108.955Z" fill="#4FB1C0"/>
<path d="M155.456 113.834C156.245 113.833 157.017 114.067 157.673 114.506C158.329 114.944 158.841 115.567 159.143 116.296C159.445 117.025 159.524 117.828 159.37 118.602C159.216 119.376 158.836 120.087 158.278 120.645C157.72 121.203 157.009 121.583 156.235 121.737C155.461 121.891 154.659 121.812 153.93 121.51C153.2 121.208 152.577 120.696 152.139 120.04C151.701 119.384 151.467 118.612 151.467 117.823C151.468 116.765 151.888 115.751 152.636 115.003C153.384 114.255 154.398 113.835 155.456 113.834ZM157.588 117.823C157.588 117.401 157.463 116.989 157.228 116.639C156.994 116.288 156.661 116.015 156.272 115.854C155.882 115.692 155.454 115.65 155.04 115.732C154.627 115.815 154.247 116.018 153.949 116.316C153.651 116.614 153.448 116.994 153.366 117.407C153.283 117.821 153.326 118.249 153.487 118.639C153.648 119.028 153.921 119.361 154.272 119.595C154.623 119.83 155.035 119.955 155.456 119.955C156.021 119.954 156.563 119.729 156.963 119.33C157.362 118.93 157.587 118.388 157.588 117.823Z" fill="#4FB1C0"/>
<path d="M138.888 85.6443C139.677 85.6443 140.448 85.8783 141.104 86.3168C141.761 86.7552 142.272 87.3783 142.574 88.1074C142.876 88.8365 142.955 89.6388 142.801 90.4127C142.647 91.1867 142.267 91.8977 141.709 92.4557C141.151 93.0137 140.44 93.3937 139.666 93.5477C138.892 93.7016 138.09 93.6226 137.361 93.3206C136.632 93.0186 136.009 92.5072 135.57 91.8511C135.132 91.1949 134.898 90.4235 134.898 89.6343C134.899 88.5765 135.32 87.5624 136.068 86.8144C136.816 86.0664 137.83 85.6456 138.888 85.6443ZM141.019 89.6343C141.019 89.2128 140.894 88.8006 140.66 88.4501C140.426 88.0996 140.093 87.8264 139.703 87.6651C139.314 87.5038 138.885 87.4615 138.472 87.5438C138.058 87.626 137.679 87.829 137.381 88.1271C137.082 88.4252 136.879 88.805 136.797 89.2185C136.715 89.632 136.757 90.0605 136.918 90.45C137.08 90.8395 137.353 91.1724 137.704 91.4066C138.054 91.6408 138.466 91.7658 138.888 91.7658C139.453 91.765 139.995 91.54 140.394 91.1404C140.794 90.7407 141.018 90.1995 141.019 89.6343Z" fill="#4FB1C0"/>
<path d="M138.888 95.3035C139.677 95.3036 140.448 95.5377 141.104 95.9761C141.76 96.4145 142.271 97.0376 142.573 97.7666C142.875 98.4955 142.954 99.2976 142.8 100.071C142.646 100.845 142.266 101.556 141.708 102.114C141.15 102.672 140.439 103.052 139.666 103.206C138.892 103.36 138.09 103.281 137.361 102.979C136.632 102.677 136.009 102.166 135.57 101.51C135.132 100.854 134.898 100.083 134.898 99.2935C134.899 98.2356 135.319 97.2212 136.067 96.4731C136.815 95.725 137.83 95.3044 138.888 95.3035ZM141.019 99.2935C141.019 98.872 140.894 98.4599 140.66 98.1093C140.426 97.7588 140.093 97.4856 139.703 97.3243C139.314 97.1629 138.885 97.1207 138.472 97.203C138.058 97.2852 137.679 97.4882 137.381 97.7863C137.082 98.0844 136.879 98.4642 136.797 98.8777C136.715 99.2912 136.757 99.7197 136.918 100.109C137.08 100.499 137.353 100.832 137.704 101.066C138.054 101.3 138.466 101.425 138.888 101.425C139.453 101.425 139.995 101.2 140.395 100.8C140.794 100.4 141.019 99.8588 141.019 99.2935Z" fill="#4FB1C0"/>
<path d="M138.888 104.963C139.677 104.963 140.448 105.197 141.104 105.635C141.761 106.074 142.272 106.697 142.574 107.426C142.876 108.155 142.955 108.957 142.801 109.731C142.647 110.505 142.267 111.216 141.709 111.774C141.151 112.332 140.44 112.712 139.666 112.866C138.892 113.02 138.09 112.941 137.361 112.639C136.632 112.337 136.009 111.826 135.57 111.17C135.132 110.514 134.898 109.742 134.898 108.953C134.899 107.895 135.319 106.881 136.067 106.133C136.815 105.384 137.83 104.964 138.888 104.963ZM141.019 108.953C141.019 108.531 140.894 108.119 140.66 107.769C140.426 107.418 140.093 107.145 139.703 106.984C139.314 106.822 138.885 106.78 138.472 106.862C138.058 106.945 137.679 107.148 137.381 107.446C137.082 107.744 136.879 108.124 136.797 108.537C136.715 108.951 136.757 109.379 136.918 109.769C137.08 110.158 137.353 110.491 137.704 110.725C138.054 110.959 138.466 111.084 138.888 111.084C139.453 111.084 139.995 110.859 140.395 110.459C140.794 110.06 141.019 109.518 141.019 108.953Z" fill="#4FB1C0"/>
<path d="M138.888 113.831C139.677 113.831 140.448 114.065 141.104 114.503C141.761 114.942 142.272 115.565 142.574 116.294C142.876 117.023 142.955 117.825 142.801 118.599C142.647 119.373 142.267 120.084 141.709 120.642C141.151 121.2 140.44 121.58 139.666 121.734C138.892 121.888 138.09 121.809 137.361 121.507C136.632 121.205 136.009 120.694 135.57 120.038C135.132 119.381 134.898 118.61 134.898 117.821C134.899 116.763 135.32 115.749 136.068 115.001C136.816 114.253 137.83 113.832 138.888 113.831ZM141.019 117.821C141.019 117.399 140.894 116.987 140.66 116.637C140.426 116.286 140.093 116.013 139.703 115.852C139.314 115.69 138.885 115.648 138.472 115.73C138.058 115.813 137.679 116.015 137.381 116.314C137.082 116.612 136.879 116.991 136.797 117.405C136.715 117.818 136.757 118.247 136.918 118.636C137.08 119.026 137.353 119.359 137.704 119.593C138.054 119.827 138.466 119.952 138.888 119.952C139.453 119.951 139.995 119.727 140.394 119.327C140.794 118.927 141.018 118.386 141.019 117.821Z" fill="#4FB1C0"/>
<path d="M127.665 74.6049C128.598 76.6814 130.227 78.3668 132.27 79.3695C126.999 80.9016 122.288 83.9374 118.715 88.1052C116.489 90.6359 114.673 93.4992 113.332 96.5912C108.257 95.4551 102.258 95.7445 95.3988 97.4645C94.4148 95.8834 93.9891 94.018 94.1898 92.1665C94.3904 90.315 95.2058 88.5842 96.5057 87.2505L97.2887 86.494L96.8693 85.488C94.1354 78.9371 100.612 74.4751 100.885 74.292L101.714 73.7399L101.583 72.7551C100.883 67.5132 106.64 65.084 106.882 64.9832L107.131 64.8903L107.341 64.7018C107.519 64.5452 111.824 60.9538 120.201 64.6938C120.558 64.8432 120.946 64.9022 121.33 64.8656C121.715 64.829 122.085 64.6978 122.407 64.4838C123.381 63.8733 124.66 62.3497 124.854 56.3323C125.498 56.1715 126.178 56.2469 126.771 56.5447C128.796 57.5507 130.12 60.8527 130.659 62.7054C129.21 64.5396 125.677 69.7368 127.665 74.6049Z" fill="#FFE9B9"/>
<path d="M121.68 55.8997C121.595 59.4937 121.133 60.9589 120.865 61.511C115.012 59.0743 110.717 59.706 108.124 60.6884C108.06 60.5766 107.999 60.4708 107.936 60.3566C104.376 54.0632 98.9983 44.5526 93.1561 41.8956L93.0977 41.8717C88.4853 40.0215 83.6815 38.6897 78.7748 37.9008C72.3725 36.9214 67.4062 37.3514 64.014 39.1776L63.9795 39.1961C60.2154 41.3722 56.6074 43.8077 53.1816 46.485L53.1152 46.5381C49.0116 50.055 46.4581 54.5302 44.4992 58.4481L44.4806 58.4852C40.8123 66.3474 41.03 75.6429 45.0938 84.6624L45.1097 84.6943C48.5975 92.0123 54.737 97.4139 61.7233 99.3914C61.6224 100.809 61.5348 103.028 61.5348 105.701C40.1301 106.394 29.4941 93.8836 25.0481 86.3373C23.6258 83.9268 22.6493 81.2797 22.1655 78.5229C16.5037 46.4955 6.54731 25.4996 4.60961 21.6163C4.32699 21.0647 4.08909 20.4913 3.89821 19.9016C3.64633 19.086 3.48085 18.2461 3.4045 17.3959C3.17018 15.465 3.37636 13.5061 4.00756 11.6663C4.63875 9.82646 5.67857 8.15354 7.04891 6.77314C8.52815 5.38569 10.3027 4.3517 12.2392 3.74894C14.1756 3.14618 16.2235 2.99033 18.2289 3.29313C44.8387 6.38813 71.6689 20.6313 89.4902 32.0371C100.764 39.2305 111.52 47.2042 121.68 55.8997Z" fill="#4FB1C0"/>
<path d="M119.296 9.09023C119.301 9.11392 119.304 9.13786 119.307 9.16193C119.185 9.18524 119.065 9.21808 118.948 9.26013L118.919 9.24413C119.042 9.18577 119.168 9.13438 119.296 9.09023Z" fill="#F8961D"/>
<path d="M116.198 158.289C118.704 168.702 117.069 171.446 116.251 172.142C115.171 173.055 113.21 172.431 112.137 171.977C110.374 171.243 108.493 170.832 106.584 170.764C102.592 170.602 100.039 169.501 98.9875 167.489C97.1958 164.054 99.7865 158.228 101.321 155.579C101.83 155.525 102.38 155.491 102.974 155.48C107.521 155.562 112.01 156.516 116.198 158.289Z" fill="#4FB1C0"/>
<path d="M106.677 187.418C107.39 187.77 108.137 188.05 108.907 188.254C91.696 211.416 69.3012 207.538 60.292 204.705C54.5439 202.932 49.2215 199.997 44.6549 196.082C40.0884 192.166 36.3752 187.354 33.7458 181.944C30.0538 174.453 29.3203 165.845 31.6913 157.837C33.6002 151.207 37.4991 144.486 43.2802 137.869C48.9902 131.491 55.4798 125.857 62.596 121.099C63.0697 124.654 64.015 128.131 65.4069 131.437L65.6458 131.328C73.0727 150.379 80.0589 156.457 82.6974 158.183C81.7153 161.153 79.6369 169.134 82.9761 175.86C85.1261 180.19 89.0811 183.149 94.7322 184.657C96.2199 185.02 97.7313 185.279 99.2552 185.429C100.176 185.541 101.047 185.644 101.899 185.804C103.559 186.116 105.167 186.659 106.677 187.418Z" fill="#4FB1C0"/>
<path d="M86.924 143.998C87.5996 145.752 87.7364 147.668 87.3168 149.5C86.7443 151.834 85.7166 154.032 84.2935 155.969C84.2541 155.971 84.2141 155.971 84.1741 155.974C82.2258 154.7 75.9695 149.543 69.023 132.621C71.2693 133.189 73.474 133.91 75.6218 134.779C79.7917 136.488 85.135 139.478 86.924 143.998Z" fill="#FFE9B9"/>
<path d="M55.1562 48.9824C55.4694 48.7435 55.7747 48.5126 56.0799 48.2817C54.7799 50.5799 53.6497 52.97 52.6983 55.4329C51.1755 59.2235 50.7389 63.3633 51.4375 67.3881C53.1177 77.1349 52.9611 84.1132 51.0101 86.5393C50.8013 86.8081 50.5404 87.032 50.243 87.1975C49.3879 85.9751 48.635 84.6843 47.9921 83.3381C44.3238 75.1892 44.1008 66.8519 47.3577 59.8524C49.2582 56.0563 51.5171 52.1124 55.1562 48.9824Z" fill="#FFE9B9"/>
</svg>
