<svg id="Layer_1" data-name="Layer 1" xmlns="http://www.w3.org/2000/svg" viewBox="0 0 501.4856 358.2803"><defs><style>.cls-1{fill:#763465;}.cls-2{fill:#67b0bd;}.cls-3{fill:#ffcf80;}.cls-4{fill:#ffeac0;}.cls-5{fill:#f99c25;}</style></defs><path class="cls-1" d="M549.0075,223.5638c5.8489,5.7042,8.6331,13.6945,7.8318,22.4951a25.9637,25.9637,0,0,1-1.0639,5.3917,24.7427,24.7427,0,0,1-1.5392,3.7394c-3.2459,6.5054-19.9282,41.6853-29.4531,95.5757a45.1085,45.1085,0,0,1-5.5865,15.1385c-7.9767,13.5405-26.755,35.75-63.99,35.7549-.9824,0-1.9783-.0227-2.9879-.0544-.1177,4.6358-.4029,9.7333-.96,14.8307a178.13,178.13,0,0,1,36.1668,30.929c10.4123,11.9017,17.4655,24.0705,20.96,36.1578a61.9379,61.9379,0,0,1-3.7982,45.0218,80.3546,80.3546,0,0,1-48.5529,41.6717,85.1675,85.1675,0,0,1-25.3426,3.9612,75.5167,75.5167,0,0,1-19.1812-2.44c-18.1536-4.7489-33.686-16.2024-46.1943-34.0391-.0136,0-.0317.0046-.0453.0046a28.0633,28.0633,0,0,1-16.8362-5.9758l-.05-.0362c-5.3737-4.3007-7.9088-10.0908-10.3625-15.6863-.7243-1.6479-1.4622-3.341-2.2771-4.9934l-59.5447-.0045c-.8148,1.6569-1.5573,3.3455-2.2771,4.9934-2.4537,5.6-4.9888,11.3856-10.367,15.6863l-.0453.0407a28.1617,28.1617,0,0,1-16.3653,5.9622c-12.5084,17.8412-28.0408,29.2947-46.1989,34.0436a75.4578,75.4578,0,0,1-19.1767,2.44,85.175,85.175,0,0,1-25.3471-3.9612A80.334,80.334,0,0,1,107.8754,528.54a61.9064,61.9064,0,0,1-3.8027-45.0173c3.4949-12.0918,10.5481-24.2606,20.9649-36.1623A178.4144,178.4144,0,0,1,161.2,416.4309c-.5523-5.0975-.842-10.195-.96-14.8262-39.2272,1.2224-58.7887-21.8069-66.9782-35.705a45.3064,45.3064,0,0,1-5.5864-15.1386C78.1507,296.8753,61.4729,261.6954,58.227,255.19a25.1957,25.1957,0,0,1-1.5437-3.7394,26.3648,26.3648,0,0,1-1.0594-5.3962c-.8013-8.8007,1.9784-16.791,7.8319-22.4951,5.9259-5.7765,14.4866-8.4883,23.4864-7.4425,20.5439,2.39,42.8217,8.7192,66.2176,18.8191A407.7919,407.7919,0,0,1,210.8619,266.01a496.5862,496.5862,0,0,1,55.1987,40.9022,11.6194,11.6194,0,0,1,3.11-.4935c.0181,0,.0407.0045.0634.0045a10.1548,10.1548,0,0,1,4.8892,1.1907c6.8,3.6216,9.3077,14.1063,9.5748,15.306l.3033,1.3762-.9462,1.0413c-.0769.086-7.8952,8.8459-5.0612,15.7542,2.4129,5.8671,12.128,9.448,28.1041,10.3534l.2852.0046c15.9624-.91,25.673-4.4864,28.0814-10.3535,2.8385-6.9083-4.9843-15.6727-5.0612-15.7587l-.9417-1.0413.3033-1.3762c.2671-1.1951,2.78-11.7161,9.602-15.32a9.2769,9.2769,0,0,1,5.4687-1.1544,11.2124,11.2124,0,0,1,2.5623.4708,496.448,496.448,0,0,1,55.1987-40.9022,408.0852,408.0852,0,0,1,57.7021-31.0783c23.3959-10.0954,45.6782-16.4288,66.2175-18.8191C534.5163,215.071,543.0815,217.7828,549.0075,223.5638Zm2.4174,22.0062c.6519-7.1438-1.5573-13.5767-6.2111-18.1174-4.8214-4.6991-11.5939-6.8087-19.0726-5.9395-45.3794,5.2831-91.1391,29.5754-121.5339,49.0237a489.1689,489.1689,0,0,0-54.9,40.7029c.1449,6.1252.9326,8.6241,1.39,9.57,9.9822-4.16,17.307-3.0784,21.73-1.4079.1086-.1856.2128-.3713.3214-.5659,6.0708-10.7337,15.2427-26.9542,25.2068-31.4813l.1-.0408a114.6485,114.6485,0,0,1,24.4281-6.777c10.9193-1.6705,19.3894-.9371,25.1705,2.1775l.0634.0363a160.2469,160.2469,0,0,1,18.4162,12.4268l.1086.09c7.0034,5.9984,11.3584,13.6356,14.6994,20.313l.0317.0679c6.2564,13.4047,5.8852,29.2631-1.0457,44.6461l-.0272.0543c-5.9486,12.4766-16.42,21.6892-28.335,25.0619.172,2.4174.3214,6.2066.3214,10.7654,36.4883,1.177,54.6464-20.1591,62.2292-33.03a39.6734,39.6734,0,0,0,4.9165-13.3277c9.6562-54.6237,26.6373-90.4284,29.942-97.0515a19.9524,19.9524,0,0,0,1.2133-2.9245A20.8285,20.8285,0,0,0,551.4249,245.57ZM499.68,526.208a56.63,56.63,0,0,0,3.504-41.1149c-3.255-11.3086-9.9053-22.7667-19.7652-34.0572a174.2234,174.2234,0,0,0-32.9436-28.5975,68.9985,68.9985,0,0,1-4.7942,17.6329l-.4074-.19c-13.0425,33.4506-25.2837,43.4554-29.4622,46.0494-.0091.0317-.0181.0634-.0272.1,1.7158,5.3057,4.9889,18.5791-.584,29.8063-3.6669,7.3836-10.4123,12.4313-20.05,15.0027a55.5849,55.5849,0,0,1-7.7141,1.3174c-1.5709.1856-3.0558.3667-4.509.6383a30.8551,30.8551,0,0,0-8.1487,2.748,19.9459,19.9459,0,0,1-3.3727,1.3128c29.3671,39.6346,67.6164,33.0115,82.9994,28.1765A74.8941,74.8941,0,0,0,499.68,526.208ZM475.3836,358.0361c6.2564-13.8981,6.6367-28.1222,1.082-40.0555-3.2414-6.4783-7.0985-13.201-13.3051-18.5384-.53-.412-1.05-.8013-1.5754-1.1952a90.9381,90.9381,0,0,1,5.7675,12.1915,37.4319,37.4319,0,0,1,2.15,20.3944c-2.8611,16.6189-2.594,28.5252.7334,32.6584a4.3966,4.3966,0,0,0,1.3083,1.1272A46.2588,46.2588,0,0,0,475.3836,358.0361Zm-6.0482,9.48a8.117,8.117,0,0,1-1.9195-1.7519c-5.1789-6.433-3.6624-22.88-1.48-35.5466a33.7981,33.7981,0,0,0-1.9376-18.4207c-2.9154-7.2207-6.2836-14.627-12.3318-20.5258-2.0824-1.3445-4.1422-2.6031-6.2156-3.7846-10.4531-5.6-32.5452-.1856-44.8951,4.8349-8.3388,3.8344-17.316,19.7018-22.6806,29.1906-.0679.1267-.1358.2445-.2083.3667.05.0588.1.1177.1449.1811,4.7172,2.2,11.9967,7.9948,11.6934,16.99,5.0115,3.9567,11.5531,12.5536,8.1442,23.0881a19.4658,19.4658,0,0,1,1.3265,23.1469c2.49,4.2238,8.357,16.1662,4.0517,28.9326-3.9567,11.7206-15.2879,20.6706-33.6814,26.6056-2.6937,2.11-5.3012,5.3374-4.9119,6.85.24.9461,2.3178,2.3043,7.3927,3.0286l3.4406.4889-1.3129,3.2233c-.2173.5432-2.44,5.428-12.205,10.1452-12.454,6.0119-31.3319,9.1809-56.1086,9.4208h-.0543c-24.79-.24-43.4735-3.4134-55.5246-9.4389-9.53-4.7625-11.4354-9.7378-11.6165-10.29l-1.0412-3.092,3.2278-.4617c5.0069-.7153,6.5688-1.9693,6.691-2.5352.2943-1.3355-2.8656-4.8349-6.5733-7.3112-18.1717-5.8445-29.2132-14.6406-32.8123-26.1484-4.07-12.9837,2.6846-25.1977,5.5-29.4985a19.4554,19.4554,0,0,1,1.3717-23.07c-3.4134-10.5346,3.1328-19.1315,8.1443-23.0881-.3034-8.9953,6.9717-14.7855,11.6934-16.99.0453-.0588.0951-.1177.14-.1765-.0679-.1268-.1358-.2445-.2082-.3712-5.3646-9.4843-14.3373-25.3517-22.6761-29.1906-12.35-5.0206-34.442-10.4349-44.8951-4.835-2.0734,1.1861-4.1332,2.44-6.2111,3.7847-6.0527,5.9033-9.4209,13.31-12.3363,20.5258a33.8023,33.8023,0,0,0-1.9376,18.4206c2.1821,12.6668,3.6986,29.1182-1.48,35.5466a8.0208,8.0208,0,0,1-1.9195,1.752,37.8588,37.8588,0,0,0,20.8743,13.1738l2.73.5885-.6519,2.68a182.0637,182.0637,0,0,0,.8692,35.035l.1131.1992a.6041.6041,0,0,1-.0815.05c.8692,6.5235,2.2545,12.8343,4.4094,17.8141,6.6956,1.4577,30.2862,7.5783,36.2936,22.7666,2.9652,7.4923,1.2087,15.8991-5.2016,24.9986a3.5638,3.5638,0,0,1-1.0684,2.6438c-1.4306,4.4093-4.5452,16.4242.2128,25.9763,2.9426,5.9124,8.52,10,16.5736,12.1462a50.21,50.21,0,0,0,6.9626,1.177c1.589.19,3.2278.3894,4.8485.6881a36.2292,36.2292,0,0,1,9.5839,3.2324c6.0029,2.9924,14.0837,1.7157,20.5936-3.25,4.3189-3.4677,6.4738-8.3932,8.76-13.6084.9734-2.2228,1.9829-4.518,3.1916-6.8042l.7651-1.4441,66.1406.0045.7651,1.4442c1.2087,2.2816,2.2182,4.5814,3.1916,6.8042,2.2861,5.2152,4.441,10.1406,8.76,13.6038,6.51,4.9708,14.5907,6.2474,20.5936,3.255a36.28,36.28,0,0,1,9.5839-3.2323c1.6207-.3033,3.264-.498,4.8485-.6927a49.5455,49.5455,0,0,0,6.9626-1.1725c8.0537-2.1458,13.631-6.2338,16.5736-12.1461,5.9124-11.8746-.335-27.5473-.3983-27.7058l.1675-.0679a5.1235,5.1235,0,0,1-.1087-.8465c-6.41-9.104-8.1668-17.5062-5.2016-24.9985,6.0074-15.1884,29.598-21.3135,36.2936-22.7667,2.1549-4.9843,3.54-11.2951,4.4093-17.8141-.05-.0271-.0769-.0452-.086-.05l.1177-.1992a182.0614,182.0614,0,0,0,.8692-35.035l-.6519-2.68,2.73-.5886A37.8834,37.8834,0,0,0,469.3354,367.5158ZM413.675,481.92c3.3229-2.173,13.9932-10.9736,25.836-39.8292-8.14,2.0779-25.9582,7.85-30.5261,19.403a16.1059,16.1059,0,0,0-.67,9.3847,31.1743,31.1743,0,0,0,5.1564,11.0325C413.5392,481.9106,413.6071,481.9151,413.675,481.92Zm-15.8131-69.3955c3.762-11.0778-2.0326-21.9428-3.8389-24.9216-16.6144-4.31-29.829-3.45-39.3,2.5578a29.9742,29.9742,0,0,0-12.8026,18.0721c-.8918,9.9731-4.1241,17.144-9.6155,21.3089a18.9165,18.9165,0,0,1-11.7659,3.7711c-4.1739,8.4747-8.7734,12.5762-14.0656,12.5309-7.3384-.0633-12.5491-8.624-14.5455-12.5354a18.9025,18.9025,0,0,1-11.7749-3.7711c-5.4914-4.1649-8.7237-11.3358-9.6155-21.3089a29.9648,29.9648,0,0,0-12.8071-18.0721c-9.48-6.012-22.7214-6.8676-39.3675-2.54-1.9648,2.9018-8.8052,14.1607-5.2333,25.4965,3.0784,9.7785,13.047,17.4066,29.6252,22.6761l.3441.1087.3078.1991c1.77,1.1454,10.5526,7.1619,9.2216,13.2282-.7243,3.3093-3.934,4.9752-6.8539,5.8489,4.79,4.4909,19.2083,12.9747,59.8389,13.373,40.5535-.3983,55.6559-8.8685,60.8529-13.4182-3.0512-.9145-6.4239-2.6619-7.3021-6.1206-1.503-5.93,5.8037-11.7116,7.284-12.8117l.3667-.2716.43-.1358C384.1449,430.4151,394.4485,422.5877,397.8619,412.5241ZM394.53,382.1293c5.7494-9.7287-1.5664-17.1079-1.8969-17.4338L391.32,363.41l.7017-1.7067c4.6629-11.1728-6.3877-18.7829-6.8585-19.1l-1.3989-.9416.2173-1.675c.4889-3.6715-.8013-6.9717-3.83-9.8057a19.5724,19.5724,0,0,0-5.2152-3.4541l-.4346-.1766-.3576-.3214c-.2852-.2445-7.6282-6.37-21.9156.0091a4.0025,4.0025,0,0,1-3.762-.3577c-1.6615-1.0457-3.8435-3.64-4.174-13.9026a4.7183,4.7183,0,0,0-3.2731.3621c-3.45,1.7158-5.7041,7.3429-6.6276,10.5074,2.4718,3.1282,8.4973,11.9877,5.1065,20.2949q-2.0168,4.9231-7.859,8.1261a48.1121,48.1121,0,0,1,23.12,14.8986,55.1827,55.1827,0,0,1,9.1855,14.473C372.6008,378.7023,382.832,379.1957,394.53,382.1293Zm-35.8364.0543a50.7723,50.7723,0,0,0-8.1487-12.5853,41.8087,41.8087,0,0,0-29.1725-14.65,89.4968,89.4968,0,0,1-14.7718,1.9285l-.0815.0045-.661-.009a89.0262,89.0262,0,0,1-14.7718-1.9285,41.8083,41.8083,0,0,0-29.1725,14.65,50.94,50.94,0,0,0-8.1488,12.5853,36.4663,36.4663,0,0,1,6.9717,3.45,34.9024,34.9024,0,0,1,15.17,21.7616l.0317.2264c.7288,8.4068,3.2278,14.31,7.4289,17.5424a13.3032,13.3032,0,0,0,9.7242,2.6212l2.11-.3667.8647,1.96c1.24,2.8521,5.8308,11.0008,10.462,11.037.0091,0,.0227.0046.0317.0046,3.1056,0,6.6005-3.9341,9.8509-11.0823l.8828-1.9376,2.078.3893a13.3057,13.3057,0,0,0,9.72-2.6257c4.2011-3.2323,6.7-9.1311,7.4289-17.5379l.0317-.2263a34.9026,34.9026,0,0,1,15.17-21.7617A36.21,36.21,0,0,1,358.6936,382.1836Zm-77.8747-30.92q-5.8332-3.1983-7.859-8.1261c-3.3908-8.3026,2.6347-17.1666,5.1065-20.2949-.919-3.16-3.178-8.7915-6.6276-10.5073a4.7435,4.7435,0,0,0-3.2731-.3622c-.3305,10.2629-2.5125,12.8615-4.174,13.9027a4.0021,4.0021,0,0,1-3.762.3576c-14.2874-6.3786-21.63-.2535-21.9337.0136l-.3576.3214-.4256.1585c-.4119.172-10.2312,4.3143-9.036,13.2553l.2218,1.68-1.4079.9416c-.4663.3124-11.5169,7.9224-6.854,19.0953l.72,1.7157-1.34,1.29c-.3214.3169-7.6372,7.6915-1.8878,17.42,11.698-2.9335,21.9292-3.427,30.5849-1.4894a55.119,55.119,0,0,1,9.1809-14.473A48.1465,48.1465,0,0,1,280.8189,351.2636Zm-19.4574-30.4581c.4572-.9462,1.2449-3.4406,1.39-9.57a488.78,488.78,0,0,0-54.9-40.6984c-30.3948-19.4529-76.1545-43.7452-121.5384-49.0237-7.4788-.8738-14.2467,1.2359-19.0681,5.935-4.6538,4.5406-6.863,10.9781-6.2156,18.1173a20.8279,20.8279,0,0,0,.842,4.2736,19.761,19.761,0,0,0,1.2132,2.9245c3.3048,6.6231,20.2859,42.4323,29.9421,97.056a39.7475,39.7475,0,0,0,4.9164,13.3277c7.5829,12.87,25.7274,34.2066,62.2292,33.025,0-4.5587.1494-8.3434.3215-10.7608-11.9153-3.3727-22.3864-12.59-28.335-25.0664l-.0272-.0544c-6.9309-15.383-7.3021-31.2368-1.0457-44.646l.0317-.0634c3.3409-6.6819,7.696-14.3146,14.6949-20.3175l.1131-.09a160.2485,160.2485,0,0,1,18.4162-12.4269l.0588-.0317c5.7856-3.1146,14.2558-3.848,25.1751-2.1775a114.3746,114.3746,0,0,1,24.4281,6.7725l.1.0408c9.9641,4.5316,19.136,20.7521,25.2068,31.4858.1086.1946.2128.3757.3214.5659C244.0545,317.7271,251.3793,316.65,261.3615,320.8055ZM240.967,536.9689a20.2371,20.2371,0,0,1-3.8027-1.426,30.8149,30.8149,0,0,0-8.1488-2.7525c-1.4532-.2716-2.9381-.4482-4.509-.6383a55.5849,55.5849,0,0,1-7.7141-1.3174c-9.6381-2.5714-16.3835-7.6191-20.05-15.0027-5.6951-11.4717-2.15-25.0891-.4754-30.15-4.5-2.9426-16.4106-13.31-29.0819-45.8049l-.4074.19a68.7128,68.7128,0,0,1-4.79-17.633A173.9778,173.9778,0,0,0,129.04,451.0359c-9.86,11.286-16.51,22.744-19.7652,34.0572a56.6339,56.6339,0,0,0,3.504,41.1149,74.875,74.875,0,0,0,45.2753,38.82C173.4185,569.8581,211.6134,576.4722,240.967,536.9689Zm-36.8232-66.0953a16.1088,16.1088,0,0,0-.67-9.3847c-3.0512-7.71-12.1642-12.8071-19.2763-15.7225a86.5482,86.5482,0,0,0-11.2543-3.68c11.8474,28.86,22.5177,37.6562,25.8406,39.8292.0679-.0045.1358-.0045.2037-.0091A31.1739,31.1739,0,0,0,204.1438,470.8736Zm-2.1866,14.6722-.0951.1222.0679.0272A1.4693,1.4693,0,0,0,201.9572,485.5458Zm-2.164-.72.2807.1132-.3124-.2309Zm-48.92-186.5835c-.5251.3939-1.0457.7832-1.58,1.1952-6.2021,5.3374-10.0592,12.0646-13.3006,18.5383-5.5547,11.9379-5.1744,26.1575,1.082,40.0556a46.2644,46.2644,0,0,0,3.839,6.5824,4.3786,4.3786,0,0,0,1.3083-1.1227c3.3274-4.1378,3.5945-16.04.7334-32.6629a37.4521,37.4521,0,0,1,2.1458-20.39A91.5787,91.5787,0,0,1,150.8736,298.2425Z" transform="translate(-55.4887 -215.8966)"/><path class="cls-2" d="M545.2138,227.4526c4.6538,4.5407,6.863,10.9736,6.2111,18.1174a20.8285,20.8285,0,0,1-.8375,4.2735,19.9524,19.9524,0,0,1-1.2133,2.9245c-3.3047,6.6231-20.2858,42.4278-29.942,97.0515a39.6734,39.6734,0,0,1-4.9165,13.3277c-7.5828,12.87-25.7409,34.2066-62.2292,33.03,0-4.5588-.1494-8.348-.3214-10.7654,11.9153-3.3727,22.3864-12.5853,28.335-25.0619l.0272-.0543c6.9309-15.383,7.3021-31.2414,1.0457-44.6461l-.0317-.0679c-3.341-6.6774-7.696-14.3146-14.6994-20.313l-.1086-.09a160.2469,160.2469,0,0,0-18.4162-12.4268l-.0634-.0363c-5.7811-3.1146-14.2512-3.848-25.1705-2.1775a114.6485,114.6485,0,0,0-24.4281,6.777l-.1.0408c-9.9641,4.5271-19.136,20.7476-25.2068,31.4813-.1086.1946-.2128.38-.3214.5659-4.423-1.6705-11.7478-2.7525-21.73,1.4079-.4572-.9462-1.2449-3.4451-1.39-9.57a489.1689,489.1689,0,0,1,54.9-40.7029c30.3948-19.4483,76.1545-43.7406,121.5339-49.0237C533.62,220.6439,540.3924,222.7535,545.2138,227.4526Z" transform="translate(-55.4887 -215.8966)"/><path class="cls-2" d="M503.1844,485.0931a56.63,56.63,0,0,1-3.504,41.1149,74.8941,74.8941,0,0,1-45.2753,38.8242c-15.383,4.835-53.6323,11.4581-82.9994-28.1765a19.9459,19.9459,0,0,0,3.3727-1.3128,30.8551,30.8551,0,0,1,8.1487-2.748c1.4532-.2716,2.9381-.4527,4.509-.6383a55.5849,55.5849,0,0,0,7.7141-1.3174c9.6381-2.5714,16.3835-7.6191,20.05-15.0027,5.5729-11.2272,2.3-24.5006.584-29.8063.0091-.0362.0181-.0679.0272-.1,4.1785-2.594,16.42-12.5988,29.4622-46.0494l.4074.19a68.9985,68.9985,0,0,0,4.7942-17.6329,174.2234,174.2234,0,0,1,32.9436,28.5975C493.2791,462.3264,499.9294,473.7845,503.1844,485.0931Z" transform="translate(-55.4887 -215.8966)"/><path class="cls-3" d="M476.4656,317.9806c5.5547,11.9333,5.1744,26.1574-1.082,40.0555a46.2588,46.2588,0,0,1-3.839,6.5824,4.3966,4.3966,0,0,1-1.3083-1.1272c-3.3274-4.1332-3.5945-16.04-.7334-32.6584a37.4319,37.4319,0,0,0-2.15-20.3944,90.9381,90.9381,0,0,0-5.7675-12.1915c.5251.3939,1.0457.7832,1.5754,1.1952C469.3671,304.78,473.2242,311.5023,476.4656,317.9806Z" transform="translate(-55.4887 -215.8966)"/><path class="cls-4" d="M467.4159,365.7639a8.117,8.117,0,0,0,1.9195,1.7519A37.8834,37.8834,0,0,1,448.4611,380.69l-2.73.5886.6519,2.68a182.0614,182.0614,0,0,1-.8692,35.035l-.1177.1992c.0091.0046.0362.0227.086.05-.8692,6.519-2.2544,12.83-4.4093,17.8141-6.6956,1.4532-30.2862,7.5783-36.2936,22.7667-2.9652,7.4923-1.2087,15.8945,5.2016,24.9985a5.1235,5.1235,0,0,0,.1087.8465l-.1675.0679c.0633.1585,6.3107,15.8312.3983,27.7058-2.9426,5.9123-8.52,10-16.5736,12.1461a49.5455,49.5455,0,0,1-6.9626,1.1725c-1.5845.1947-3.2278.3894-4.8485.6927a36.28,36.28,0,0,0-9.5839,3.2323c-6.0029,2.9924-14.0837,1.7158-20.5936-3.255-4.3189-3.4632-6.4738-8.3886-8.76-13.6038-.9734-2.2228-1.9829-4.5226-3.1916-6.8042l-.7651-1.4442-66.1406-.0045-.7651,1.4441c-1.2087,2.2862-2.2182,4.5814-3.1916,6.8042-2.2861,5.2152-4.441,10.1407-8.76,13.6084-6.51,4.9662-14.5907,6.2429-20.5936,3.25a36.2292,36.2292,0,0,0-9.5839-3.2324c-1.6207-.2987-3.26-.4979-4.8485-.6881a50.21,50.21,0,0,1-6.9626-1.177c-8.0537-2.1459-13.631-6.2338-16.5736-12.1462-4.758-9.5521-1.6434-21.567-.2128-25.9763a3.5638,3.5638,0,0,0,1.0684-2.6438c6.41-9.1,8.1668-17.5063,5.2016-24.9986-6.0074-15.1883-29.598-21.3089-36.2936-22.7666-2.1549-4.98-3.54-11.2906-4.4094-17.8141a.6041.6041,0,0,0,.0815-.05l-.1131-.1992a182.0637,182.0637,0,0,1-.8692-35.035l.6519-2.68-2.73-.5885a37.8588,37.8588,0,0,1-20.8743-13.1738,8.0208,8.0208,0,0,0,1.9195-1.752c5.1789-6.4284,3.6624-22.88,1.48-35.5466a33.8023,33.8023,0,0,1,1.9376-18.4206c2.9154-7.2162,6.2836-14.6225,12.3363-20.5258,2.0779-1.3446,4.1377-2.5986,6.2111-3.7847,10.4531-5.6,32.5452-.1856,44.8951,4.835,8.3388,3.8389,17.3115,19.7063,22.6761,29.1906.0724.1267.14.2444.2082.3712-.0452.0588-.095.1177-.14.1765-4.7217,2.2047-11.9968,7.9949-11.6934,16.99-5.0115,3.9566-11.5577,12.5535-8.1443,23.0881a19.4554,19.4554,0,0,0-1.3717,23.07c-2.8158,4.3008-9.57,16.5148-5.5,29.4985,3.5991,11.5078,14.6406,20.3039,32.8123,26.1484,3.7077,2.4763,6.8676,5.9757,6.5733,7.3112-.1222.5659-1.6841,1.82-6.691,2.5352l-3.2278.4617,1.0412,3.092c.1811.5523,2.087,5.5276,11.6165,10.29,12.0511,6.0255,30.7343,9.199,55.5246,9.4389h.0543c24.7767-.24,43.6546-3.4089,56.1086-9.4208,9.7649-4.7172,11.9877-9.602,12.205-10.1452l1.3129-3.2233-3.4406-.4889c-5.0749-.7243-7.1528-2.0825-7.3927-3.0286-.3893-1.5121,2.2182-4.74,4.9119-6.85,18.3935-5.935,29.7247-14.885,33.6814-26.6056,4.3053-12.7664-1.5618-24.7088-4.0517-28.9326a19.4658,19.4658,0,0,0-1.3265-23.1469c3.4089-10.5345-3.1327-19.1314-8.1442-23.0881.3033-8.9953-6.9762-14.79-11.6934-16.99-.0453-.0634-.0951-.1223-.1449-.1811.0725-.1222.14-.24.2083-.3667,5.3646-9.4888,14.3418-25.3562,22.6806-29.1906,12.35-5.0205,34.442-10.4349,44.8951-4.8349,2.0734,1.1815,4.1332,2.44,6.2156,3.7846,6.0482,5.8988,9.4164,13.3051,12.3318,20.5258a33.7981,33.7981,0,0,1,1.9376,18.4207C463.7535,342.884,462.237,359.3309,467.4159,365.7639ZM392.9,483.7033l3.255-4.3505c-.6836-.5116-17.1984-12.3046-54.85,9.0677a6.0619,6.0619,0,0,1-7.3384-1.0141c-5.944-6.0979-9.8645-8.778-20.05-6.9943l-4.8213.8466,3.2685,3.6443c1.5121,1.6795,3.332,4.88,2.6846,6.2745-.172.3712-1.426,2.2183-9.1085,1.9647-6.2519-.2037-9.0043-1.5573-9.5023-2.7569-.6021-1.4578,1.2676-4.3189,2.3993-5.5186l3.5-3.6759-4.9979-.8738c-10.1995-1.7882-12.8841.9688-18.7648,7.0034l-.0815.086a6.0691,6.0691,0,0,1-7.3384,1.0141c-37.6517-21.3769-54.1664-9.5838-54.85-9.0677l3.2278,4.3686a8.9946,8.9946,0,0,1,1.5618-.81c-2.5759,5.6679-5.3465,14.464-1.8651,21.1459,2.7524,5.2877,8.66,8.1488,17.556,8.5109a21.5878,21.5878,0,0,1,7.5783,1.6479,17.0184,17.0184,0,0,0,6.5914,1.5166,9.0764,9.0764,0,0,0,6.0527-2.1051c4.4139-3.7439,5.2605-11.9787,2.5578-25.1027,3.2278,1.5121,6.2383,3.1011,8.9048,4.6176a11.5033,11.5033,0,0,0,13.9117-1.9466l.0815-.0815c4.1875-4.2962,5.7946-5.944,9.4752-5.944.05,0,.095,0,.1448.0045a8.7746,8.7746,0,0,0-.6745,7.2659c1.5845,3.8616,6.2791,5.8671,14.3554,6.1342.5206.0136,1.0231.0227,1.5165.0227,6.931,0,11.0914-1.6841,12.694-5.1292,1.2947-2.7751.3983-5.8264-.824-8.19,4.4592-.1041,6.7137,1.6026,10.9284,5.9214a11.4978,11.4978,0,0,0,13.9072,1.9467c2.6709-1.5166,5.6815-3.11,8.9093-4.6222-2.7027,13.1286-1.8607,21.3588,2.5578,25.1072a9.0757,9.0757,0,0,0,6.0527,2.1051,17.0357,17.0357,0,0,0,6.5914-1.5211,21.688,21.688,0,0,1,7.5783-1.6479c8.8957-.3576,14.799-3.2187,17.556-8.5063,3.4813-6.682.7108-15.4781-1.8651-21.1505A9.6657,9.6657,0,0,1,392.9,483.7033Z" transform="translate(-55.4887 -215.8966)"/><path class="cls-3" d="M439.511,442.09c-11.8428,28.8556-22.5131,37.6562-25.836,39.8292-.0679-.0045-.1358-.009-.2037-.009a31.1743,31.1743,0,0,1-5.1564-11.0325,16.1059,16.1059,0,0,1,.67-9.3847C413.5528,449.94,431.3713,444.1683,439.511,442.09Z" transform="translate(-55.4887 -215.8966)"/><path class="cls-2" d="M394.023,387.6025c1.8063,2.9788,7.6009,13.8438,3.8389,24.9216-3.4134,10.0636-13.717,17.891-30.6166,23.2646l-.43.1358-.3667.2716c-1.48,1.1-8.787,6.8812-7.284,12.8117.8782,3.4587,4.2509,5.2061,7.3021,6.1206-5.197,4.55-20.2994,13.02-60.8529,13.4182-40.6306-.3983-55.0493-8.8821-59.8389-13.373,2.92-.8737,6.13-2.54,6.8539-5.8489,1.331-6.0663-7.4515-12.0828-9.2216-13.2282l-.3078-.1991-.3441-.1087c-16.5782-5.2695-26.5468-12.8976-29.6252-22.6761-3.5719-11.3358,3.2685-22.5947,5.2333-25.4965,16.6461-4.3279,29.8878-3.4723,39.3675,2.54a29.9648,29.9648,0,0,1,12.8071,18.0721c.8918,9.9731,4.1241,17.144,9.6155,21.3089a18.9025,18.9025,0,0,0,11.7749,3.7711c1.9964,3.9114,7.2071,12.4721,14.5455,12.5354,5.2922.0453,9.8917-4.0562,14.0656-12.5309a18.9165,18.9165,0,0,0,11.7659-3.7711c5.4914-4.1649,8.7237-11.3358,9.6155-21.3089A29.9742,29.9742,0,0,1,354.7234,390.16C364.194,384.1529,377.4086,383.2927,394.023,387.6025Z" transform="translate(-55.4887 -215.8966)"/><path class="cls-1" d="M396.1552,479.3528l-3.255,4.3505a9.6657,9.6657,0,0,0-1.5346-.7922c2.5759,5.6724,5.3464,14.4685,1.8651,21.1505-2.757,5.2876-8.66,8.1487-17.556,8.5063a21.688,21.688,0,0,0-7.5783,1.6479,17.0357,17.0357,0,0,1-6.5914,1.5211,9.0757,9.0757,0,0,1-6.0527-2.1051c-4.4185-3.7484-5.26-11.9786-2.5578-25.1072-3.2278,1.5121-6.2384,3.1056-8.9093,4.6222A11.4978,11.4978,0,0,1,330.078,491.2c-4.2147-4.3188-6.4692-6.0255-10.9284-5.9214,1.2223,2.3631,2.1187,5.4144.824,8.19-1.6026,3.4451-5.763,5.1292-12.694,5.1292-.4934,0-.9959-.0091-1.5165-.0227-8.0763-.2671-12.7709-2.2726-14.3554-6.1342a8.7746,8.7746,0,0,1,.6745-7.2659c-.05-.0045-.095-.0045-.1448-.0045-3.6806,0-5.2877,1.6478-9.4752,5.944l-.0815.0815a11.5033,11.5033,0,0,1-13.9117,1.9466c-2.6665-1.5165-5.677-3.1055-8.9048-4.6176,2.7027,13.124,1.8561,21.3588-2.5578,25.1027a9.0764,9.0764,0,0,1-6.0527,2.1051,17.0184,17.0184,0,0,1-6.5914-1.5166,21.5878,21.5878,0,0,0-7.5783-1.6479c-8.8957-.3621-14.8036-3.2232-17.556-8.5109-3.4814-6.6819-.7108-15.478,1.8651-21.1459a8.9946,8.9946,0,0,0-1.5618.81l-3.2278-4.3686c.6836-.5161,17.1983-12.3092,54.85,9.0677a6.0691,6.0691,0,0,0,7.3384-1.0141l.0815-.086c5.8807-6.0346,8.5653-8.7916,18.7648-7.0034l4.9979.8738-3.5,3.6759c-1.1317,1.2-3.0014,4.0608-2.3993,5.5186.498,1.2,3.25,2.5532,9.5023,2.7569,7.6825.2536,8.9365-1.5935,9.1085-1.9647.6474-1.3943-1.1725-4.595-2.6846-6.2745l-3.2685-3.6443,4.8213-.8466c10.1859-1.7837,14.1064.8964,20.05,6.9943a6.0619,6.0619,0,0,0,7.3384,1.0141C378.9568,467.0482,395.4716,478.8412,396.1552,479.3528Zm-7.7458,22.2053c3.0558-5.8581-1.3627-15.795-3.9793-20.3175-.8692-.0861-1.8063-.1449-2.82-.163-7.4289-.1358-15.3151,1.9421-22.5539,4.7851-4.2735,17.7643-1.4894,22.4407-.09,23.6268,1.838,1.5619,5.188.498,7.0169-.2761a27.0363,27.0363,0,0,1,9.4707-2.0734C382.2616,506.8638,386.6167,504.99,388.4094,501.5581ZM253.4934,509.49c1.3944-1.1906,4.183-5.8671-.0905-23.6268-7.2433-2.843-15.125-4.9209-22.5539-4.79-1.0141.0181-1.9512.0769-2.82.1675-2.6166,4.518-7.0351,14.4549-3.9793,20.313,1.7927,3.4315,6.1478,5.31,12.9565,5.5864a27.158,27.158,0,0,1,9.4707,2.0688C248.3054,509.983,251.6509,511.0468,253.4934,509.49Z" transform="translate(-55.4887 -215.8966)"/><path class="cls-3" d="M392.6331,364.6955c.33.3259,7.6463,7.7051,1.8969,17.4338-11.698-2.9336-21.9292-3.427-30.5849-1.49a55.1827,55.1827,0,0,0-9.1855-14.473,48.1121,48.1121,0,0,0-23.12-14.8986q5.8332-3.1984,7.859-8.1261c3.3908-8.3072-2.6347-17.1667-5.1065-20.2949.9235-3.1645,3.178-8.7916,6.6276-10.5074a4.7183,4.7183,0,0,1,3.2731-.3621c.33,10.2628,2.5125,12.8569,4.174,13.9026a4.0025,4.0025,0,0,0,3.762.3577c14.2874-6.3787,21.63-.2536,21.9156-.0091l.3576.3214.4346.1766a19.5724,19.5724,0,0,1,5.2152,3.4541c3.0286,2.834,4.3188,6.1342,3.83,9.8057l-.2173,1.675,1.3989.9416c.4708.3169,11.5214,7.927,6.8585,19.1L391.32,363.41Z" transform="translate(-55.4887 -215.8966)"/><path class="cls-2" d="M384.43,481.2406c2.6166,4.5225,7.0351,14.4594,3.9793,20.3175-1.7927,3.4315-6.1478,5.3057-12.9565,5.5819a27.0363,27.0363,0,0,0-9.4707,2.0734c-1.8289.7741-5.1789,1.838-7.0169.2761-1.3989-1.1861-4.183-5.8625.09-23.6268,7.2388-2.843,15.125-4.9209,22.5539-4.7851C382.6238,481.0957,383.5609,481.1545,384.43,481.2406Z" transform="translate(-55.4887 -215.8966)"/><path class="cls-4" d="M350.5449,369.5983a50.7723,50.7723,0,0,1,8.1487,12.5853,36.21,36.21,0,0,0-6.9717,3.45,34.9026,34.9026,0,0,0-15.17,21.7617l-.0317.2263c-.7288,8.4068-3.2278,14.3056-7.4289,17.5379a13.3057,13.3057,0,0,1-9.72,2.6257l-2.078-.3893-.8828,1.9376c-3.25,7.1482-6.7453,11.0823-9.8509,11.0823-.009,0-.0226-.0046-.0317-.0046-4.6312-.0362-9.2216-8.1849-10.462-11.037l-.8647-1.96-2.11.3667a13.3032,13.3032,0,0,1-9.7242-2.6212c-4.2011-3.2323-6.7-9.1356-7.4289-17.5424l-.0317-.2264a34.9024,34.9024,0,0,0-15.17-21.7616,36.4663,36.4663,0,0,0-6.9717-3.45,50.94,50.94,0,0,1,8.1488-12.5853,41.8083,41.8083,0,0,1,29.1725-14.65,89.0262,89.0262,0,0,0,14.7718,1.9285l.661.009.0815-.0045a89.4968,89.4968,0,0,0,14.7718-1.9285A41.8087,41.8087,0,0,1,350.5449,369.5983Zm-23.3823-.8239a6.8042,6.8042,0,1,0-6.8042,6.8042A6.81,6.81,0,0,0,327.1626,368.7744Zm0,16.474a6.8042,6.8042,0,1,0-6.8042,6.8A6.8106,6.8106,0,0,0,327.1626,385.2484Zm0,16.474a6.8042,6.8042,0,1,0-6.8042,6.8A6.8106,6.8106,0,0,0,327.1626,401.7224Zm0,15.125a6.8042,6.8042,0,1,0-6.8042,6.8042A6.8106,6.8106,0,0,0,327.1626,416.8474ZM298.9045,368.77A6.8042,6.8042,0,1,0,292.1,375.574,6.8133,6.8133,0,0,0,298.9045,368.77Zm0,16.4741a6.8042,6.8042,0,1,0-6.8042,6.8042A6.81,6.81,0,0,0,298.9045,385.2439Zm0,16.474a6.8042,6.8042,0,1,0-6.8042,6.8042A6.81,6.81,0,0,0,298.9045,401.7179Zm0,15.125a6.8042,6.8042,0,1,0-6.8042,6.8042A6.8134,6.8134,0,0,0,298.9045,416.8429Z" transform="translate(-55.4887 -215.8966)"/><path class="cls-5" d="M345.5425,301.8415c-.0543.1087-.1041.2173-.1585.326a1.4654,1.4654,0,0,0-.1856-.1C345.3161,301.9955,345.4293,301.923,345.5425,301.8415Z" transform="translate(-55.4887 -215.8966)"/><path class="cls-1" d="M320.3584,361.97a6.8042,6.8042,0,1,1-6.8042,6.8042A6.81,6.81,0,0,1,320.3584,361.97Zm3.6352,6.8042a3.6353,3.6353,0,1,0-3.6352,3.6352A3.6381,3.6381,0,0,0,323.9936,368.7744Z" transform="translate(-55.4887 -215.8966)"/><path class="cls-1" d="M320.3584,378.4442a6.802,6.802,0,1,1-6.8042,6.8042A6.8106,6.8106,0,0,1,320.3584,378.4442Zm3.6352,6.8042a3.6353,3.6353,0,1,0-3.6352,3.6307A3.638,3.638,0,0,0,323.9936,385.2484Z" transform="translate(-55.4887 -215.8966)"/><path class="cls-1" d="M320.3584,394.9182a6.802,6.802,0,1,1-6.8042,6.8042A6.8106,6.8106,0,0,1,320.3584,394.9182Zm3.6352,6.8042a3.6353,3.6353,0,1,0-3.6352,3.6308A3.638,3.638,0,0,0,323.9936,401.7224Z" transform="translate(-55.4887 -215.8966)"/><path class="cls-1" d="M320.3584,410.0432a6.8042,6.8042,0,1,1-6.8042,6.8042A6.8106,6.8106,0,0,1,320.3584,410.0432Zm3.6352,6.8042a3.6353,3.6353,0,1,0-3.6352,3.6353A3.638,3.638,0,0,0,323.9936,416.8474Z" transform="translate(-55.4887 -215.8966)"/><path class="cls-1" d="M292.1,361.9657a6.8042,6.8042,0,1,1-6.8042,6.8041A6.8133,6.8133,0,0,1,292.1,361.9657Zm3.6353,6.8041a3.6353,3.6353,0,1,0-3.6353,3.6353A3.6381,3.6381,0,0,0,295.7356,368.77Z" transform="translate(-55.4887 -215.8966)"/><path class="cls-1" d="M292.1,378.44a6.8042,6.8042,0,1,1-6.8042,6.8042A6.81,6.81,0,0,1,292.1,378.44Zm3.6353,6.8042a3.6353,3.6353,0,1,0-3.6353,3.6352A3.6381,3.6381,0,0,0,295.7356,385.2439Z" transform="translate(-55.4887 -215.8966)"/><path class="cls-1" d="M292.1,394.9137a6.8042,6.8042,0,1,1-6.8042,6.8042A6.81,6.81,0,0,1,292.1,394.9137Zm3.6353,6.8042a3.6353,3.6353,0,1,0-3.6353,3.6353A3.6381,3.6381,0,0,0,295.7356,401.7179Z" transform="translate(-55.4887 -215.8966)"/><path class="cls-1" d="M292.1,410.0387a6.8042,6.8042,0,1,1-6.8042,6.8042A6.8134,6.8134,0,0,1,292.1,410.0387Zm3.6353,6.8042a3.6353,3.6353,0,1,0-3.6353,3.6352A3.641,3.641,0,0,0,295.7356,416.8429Z" transform="translate(-55.4887 -215.8966)"/><path class="cls-3" d="M272.96,343.1375q2.0167,4.9233,7.859,8.1261a48.1465,48.1465,0,0,0-23.1244,14.8987,55.119,55.119,0,0,0-9.1809,14.473c-8.6557-1.9376-18.8869-1.4441-30.5849,1.4894-5.7494-9.7287,1.5664-17.1033,1.8878-17.42l1.34-1.29-.72-1.7157c-4.6629-11.1729,6.3877-18.7829,6.854-19.0953l1.4079-.9416-.2218-1.68c-1.1952-8.941,8.6241-13.0833,9.036-13.2553l.4256-.1585.3576-.3214c.3033-.2671,7.6463-6.3922,21.9337-.0136a4.0021,4.0021,0,0,0,3.762-.3576c1.6615-1.0412,3.8435-3.64,4.174-13.9027a4.7435,4.7435,0,0,1,3.2731.3622c3.45,1.7158,5.7086,7.3474,6.6276,10.5073C275.5946,325.9709,269.5691,334.8349,272.96,343.1375Z" transform="translate(-55.4887 -215.8966)"/><path class="cls-2" d="M262.7513,311.2352c-.1449,6.13-.9326,8.6241-1.39,9.57-9.9822-4.1559-17.307-3.0784-21.73-1.4034-.1086-.19-.2128-.3713-.3214-.5659-6.0708-10.7337-15.2427-26.9542-25.2068-31.4858l-.1-.0408a114.3746,114.3746,0,0,0-24.4281-6.7725c-10.9193-1.6705-19.3895-.9371-25.1751,2.1775l-.0588.0317a160.2485,160.2485,0,0,0-18.4162,12.4269l-.1131.09c-6.9989,6.0029-11.354,13.6356-14.6949,20.3175l-.0317.0634c-6.2564,13.4092-5.8852,29.263,1.0457,44.646l.0272.0544c5.9486,12.4766,16.42,21.6937,28.335,25.0664-.1721,2.4174-.3215,6.2021-.3215,10.7608-36.5018,1.1816-54.6463-20.1545-62.2292-33.025A39.7475,39.7475,0,0,1,93.0266,349.82c-9.6562-54.6237-26.6373-90.4329-29.9421-97.056a19.761,19.761,0,0,1-1.2132-2.9245,20.8279,20.8279,0,0,1-.842-4.2736c-.6474-7.1392,1.5618-13.5767,6.2156-18.1173,4.8214-4.6991,11.5893-6.8088,19.0681-5.935,45.3839,5.2785,91.1436,29.5708,121.5384,49.0237A488.78,488.78,0,0,1,262.7513,311.2352Z" transform="translate(-55.4887 -215.8966)"/><path class="cls-5" d="M258.686,231.4a1.1473,1.1473,0,0,1,.0181.1222,4.0776,4.0776,0,0,0-.6112.1675c-.0181-.009-.0317-.0181-.05-.0271A6.1815,6.1815,0,0,1,258.686,231.4Z" transform="translate(-55.4887 -215.8966)"/><path class="cls-2" d="M253.4029,485.8627c4.2735,17.76,1.4849,22.4362.0905,23.6268-1.8425,1.5573-5.188.4935-7.0169-.2807a27.158,27.158,0,0,0-9.4707-2.0688c-6.8087-.2762-11.1638-2.1549-12.9565-5.5864-3.0558-5.8581,1.3627-15.795,3.9793-20.313.8692-.0906,1.8063-.1494,2.82-.1675C238.2779,480.9418,246.16,483.02,253.4029,485.8627Z" transform="translate(-55.4887 -215.8966)"/><path class="cls-2" d="M237.1643,535.5429a20.2371,20.2371,0,0,0,3.8027,1.426c-29.3536,39.5033-67.5485,32.8892-82.9134,28.0588a74.875,74.875,0,0,1-45.2753-38.82,56.6339,56.6339,0,0,1-3.504-41.1149c3.255-11.3132,9.9053-22.7712,19.7652-34.0572a173.9778,173.9778,0,0,1,32.9481-28.6021,68.7128,68.7128,0,0,0,4.79,17.633l.4074-.19c12.6713,32.4953,24.582,42.8623,29.0819,45.8049-1.675,5.0613-5.22,18.6787.4754,30.15,3.6669,7.3836,10.4123,12.4313,20.05,15.0027a55.5849,55.5849,0,0,0,7.7141,1.3174c1.5709.19,3.0558.3667,4.509.6383A30.8149,30.8149,0,0,1,237.1643,535.5429Z" transform="translate(-55.4887 -215.8966)"/><path class="cls-3" d="M203.4737,461.4889a16.1088,16.1088,0,0,1,.67,9.3847,31.1739,31.1739,0,0,1-5.1564,11.0324c-.0679.0046-.1358.0046-.2037.0091-3.3229-2.173-13.9932-10.9691-25.8406-39.8292a86.5482,86.5482,0,0,1,11.2543,3.68C191.31,448.6818,200.4225,453.7793,203.4737,461.4889Z" transform="translate(-55.4887 -215.8966)"/><path class="cls-3" d="M149.2937,299.4377c.5342-.412,1.0548-.8013,1.58-1.1952a91.5787,91.5787,0,0,0-5.772,12.196,37.4521,37.4521,0,0,0-2.1458,20.39c2.8611,16.6234,2.594,28.5251-.7334,32.6629a4.3786,4.3786,0,0,1-1.3083,1.1227,46.2644,46.2644,0,0,1-3.839-6.5824c-6.2564-13.8981-6.6367-28.1177-1.082-40.0556C139.2345,311.5023,143.0916,304.7751,149.2937,299.4377Z" transform="translate(-55.4887 -215.8966)"/></svg>