<svg width="205" height="177" viewBox="0 0 205 177" fill="none" xmlns="http://www.w3.org/2000/svg">
<path d="M201.986 50.8547C205.243 57.8515 205.02 66.1915 201.352 74.3404C200.709 75.6866 199.956 76.9774 199.101 78.1998C198.804 78.0324 198.543 77.8078 198.334 77.5389C196.383 75.1154 196.226 68.1345 197.904 58.3904C198.605 54.3657 198.168 50.2251 196.643 46.4352C195.695 43.971 194.564 41.5807 193.261 39.2843C193.569 39.5153 193.874 39.7435 194.185 39.9851C197.824 43.1146 200.086 47.0563 201.986 50.8547Z" fill="#CEAED6"/>
<path d="M196.68 78.8713C196.998 79.272 197.378 79.6189 197.806 79.8986C194.703 83.7675 190.394 86.4866 185.566 87.6227L183.966 87.9678L184.348 89.5392C184.839 96.387 184.668 103.266 183.838 110.081L183.769 110.198C183.774 110.201 183.79 110.211 183.819 110.227C183.421 113.808 182.552 117.32 181.234 120.672C177.308 121.524 163.476 125.115 159.954 134.021C158.215 138.414 159.245 143.34 163.004 148.678C163.011 148.845 163.032 149.011 163.067 149.174L162.969 149.215C163.006 149.307 166.669 158.499 163.203 165.459C161.477 168.926 158.207 171.323 153.485 172.581C152.142 172.907 150.778 173.136 149.403 173.268C148.471 173.382 147.51 173.497 146.56 173.674C144.608 174.041 142.716 174.679 140.941 175.57C137.421 177.324 132.683 176.576 128.866 173.661C126.334 171.631 125.07 168.743 123.73 165.685C123.159 164.382 122.567 163.036 121.859 161.695L121.41 160.848L82.63 160.845L82.1814 161.692C81.4727 163.032 80.8808 164.378 80.3101 165.682C78.9701 168.739 77.7062 171.627 75.1739 173.661C71.357 176.572 66.619 177.321 63.0993 175.566C61.3239 174.675 59.4324 174.037 57.48 173.671C56.53 173.496 55.5689 173.379 54.6372 173.268C53.2619 173.134 51.8977 172.903 50.5548 172.578C45.8327 171.319 42.5626 168.923 40.8373 165.456C38.0473 159.855 39.8737 152.813 40.7125 150.225C40.9175 150.024 41.0788 149.782 41.1866 149.515C41.2943 149.249 41.3462 148.963 41.3389 148.675C45.0975 143.34 46.1274 138.411 44.3889 134.018C40.8666 125.113 27.0347 121.524 23.1089 120.672C21.7895 117.319 20.9201 113.806 20.5236 110.224C20.5403 110.216 20.5563 110.206 20.5714 110.195L20.505 110.078C19.6748 103.263 19.504 96.3842 19.995 89.5364L20.3772 87.965L18.7766 87.62C13.9485 86.4849 9.63964 83.7656 6.5374 79.8958C6.96593 79.6169 7.3461 79.27 7.6629 78.8686C10.6995 75.0994 9.81021 65.4535 8.53081 58.0266C7.89665 54.391 8.29011 50.6506 9.6669 47.2266C11.3763 42.9955 13.3511 38.653 16.9 35.1917C18.1184 34.4034 19.3261 33.6681 20.5418 32.9727C26.6707 29.6893 39.6239 32.8639 46.865 35.8102C51.7543 38.0584 57.015 47.3619 60.1606 52.9255C60.2031 52.9971 60.2429 53.0661 60.2827 53.1405C60.2562 53.175 60.227 53.2095 60.2005 53.244C57.432 54.5366 53.1664 57.9316 53.3443 63.2058C50.4059 65.5258 46.5677 70.5663 48.5691 76.7429C47.0068 78.6155 46.0856 80.9394 45.9409 83.3738C45.7961 85.8083 46.4354 88.225 47.7648 90.2695C46.1138 92.7938 42.1535 99.9526 44.5398 107.565C46.6498 114.313 53.124 119.47 63.7785 122.897C65.9524 124.349 67.8052 126.401 67.6326 127.184C67.5583 127.515 66.6452 128.251 63.7095 128.67L61.817 128.941L62.4248 130.754C62.5336 131.078 63.6511 133.995 69.2385 136.787C76.3044 140.32 87.2585 142.181 101.794 142.321H101.826C116.353 142.181 127.422 140.323 134.724 136.798C140.45 134.035 141.753 131.168 141.88 130.849L142.65 128.959L140.633 128.673C137.657 128.248 136.439 127.452 136.298 126.897C136.07 126.01 137.599 124.118 139.178 122.881C149.963 119.401 156.607 114.153 158.927 107.281C161.451 99.7955 158.011 92.7933 156.551 90.3168C157.894 88.2703 158.543 85.8463 158.403 83.4025C158.263 80.9588 157.341 78.6248 155.773 76.7451C157.772 70.5684 153.937 65.5278 150.998 63.2079C151.176 57.9337 146.908 54.5361 144.142 53.2461C144.116 53.209 144.086 53.1745 144.057 53.14C144.1 53.0683 144.139 52.9993 144.179 52.925C147.325 47.3614 152.588 38.0579 157.477 35.8097C164.719 32.866 177.672 29.6914 183.801 32.9748C185.016 33.6676 186.224 34.4055 187.442 35.1939C190.991 38.6525 192.966 42.995 194.676 47.2287C196.053 50.6529 196.446 54.3936 195.812 58.0293C194.533 65.4562 193.644 75.1022 196.68 78.8713ZM152.989 148.023L154.898 145.472C154.497 145.172 144.814 138.258 122.738 150.789C122.056 151.179 121.264 151.333 120.485 151.225C119.707 151.118 118.986 150.755 118.435 150.194C114.95 146.619 112.651 145.05 106.679 146.093L103.852 146.59L105.769 148.726C106.653 149.711 107.722 151.588 107.343 152.405C107.242 152.623 106.507 153.706 102.002 153.557C98.3365 153.438 96.7227 152.644 96.4307 151.941C96.0777 151.086 97.1739 149.409 97.8375 148.705L99.8893 146.55L96.9593 146.038C90.9793 144.989 89.405 146.606 85.957 150.144L85.9092 150.194C85.3583 150.754 84.6374 151.116 83.8591 151.224C83.0808 151.331 82.2887 151.178 81.6065 150.788C59.5303 138.254 49.8472 145.169 49.4465 145.472L51.3391 148.033C51.6273 147.846 51.9331 147.686 52.2522 147.558C50.7445 150.884 49.12 156.039 51.1612 159.959C52.7751 163.057 56.239 164.734 61.4548 164.947C62.9821 164.998 64.4875 165.325 65.8982 165.913C67.114 166.465 68.4281 166.767 69.7629 166.802C71.0566 166.836 72.3182 166.397 73.3118 165.568C75.8998 163.373 76.3961 158.544 74.8118 150.849C76.7044 151.736 78.4668 152.668 80.0329 153.557C81.3275 154.295 82.8301 154.583 84.3059 154.377C85.7817 154.17 87.1475 153.481 88.1897 152.415L88.2375 152.368C90.6928 149.849 91.6324 148.883 93.7931 148.883C93.8223 148.883 93.8488 148.883 93.878 148.885C93.5103 149.525 93.2847 150.237 93.2165 150.972C93.1482 151.707 93.239 152.448 93.4825 153.145C94.4115 155.409 97.1641 156.585 101.899 156.742C102.205 156.75 102.5 156.755 102.789 156.755C106.853 156.755 109.289 155.768 110.231 153.748C110.523 152.964 110.631 152.123 110.547 151.291C110.463 150.459 110.19 149.656 109.748 148.946C112.363 148.885 113.685 149.886 116.156 152.418C117.198 153.482 118.563 154.172 120.039 154.378C121.514 154.585 123.016 154.297 124.31 153.559C125.876 152.67 127.641 151.736 129.534 150.849C127.949 158.547 128.443 163.373 131.034 165.57C132.027 166.4 133.289 166.838 134.583 166.805C135.918 166.769 137.232 166.465 138.447 165.913C139.859 165.326 141.364 164.999 142.891 164.947C148.107 164.737 151.568 163.059 153.184 159.959C155.226 156.041 153.601 150.884 152.091 147.558C152.404 147.686 152.704 147.841 152.989 148.023Z" fill="#CEAED6"/>
<path d="M180.319 123.624C173.375 140.543 167.119 145.703 165.17 146.977C165.13 146.974 165.09 146.971 165.051 146.971C163.627 145.036 162.599 142.837 162.028 140.503C161.608 138.67 161.745 136.754 162.42 135C165.099 128.229 175.546 124.842 180.319 123.624Z" fill="#CEAED6"/>
<path d="M153.648 91.6759C154.707 93.4225 158.104 99.7929 155.899 106.288C153.897 112.189 147.856 116.778 137.947 119.929L137.695 120.009L137.48 120.168C136.612 120.813 132.328 124.203 133.209 127.68C133.724 129.708 135.702 130.732 137.491 131.269C134.444 133.936 125.589 138.902 101.811 139.136C77.988 138.902 69.5339 133.928 66.7255 131.295C68.4376 130.783 70.3195 129.806 70.7442 127.866C71.5242 124.309 66.3752 120.781 65.3373 120.11L65.1573 119.993L64.9556 119.929C55.2356 116.839 49.3905 112.367 47.5856 106.633C45.4913 99.987 49.5021 93.3883 50.654 91.6842C60.414 89.1466 68.1781 89.6483 73.7363 93.1733C77.5008 95.6166 80.1876 99.408 81.2454 103.769C81.7684 109.617 83.6636 113.822 86.8833 116.264C88.8717 117.754 91.3032 118.532 93.7873 118.475C94.9578 120.768 98.013 125.787 102.316 125.825C105.419 125.851 108.116 123.446 110.563 118.477C113.045 118.533 115.474 117.755 117.461 116.266C120.681 113.824 122.576 109.62 123.099 103.772C124.158 99.4116 126.843 95.6207 130.606 93.176C136.158 89.653 143.906 89.149 153.648 91.6759Z" fill="#CEAED6"/>
<path d="M152.833 78.2449C154.135 79.579 154.952 81.3109 155.153 83.1639C155.355 85.0169 154.93 86.884 153.945 88.4668C147.086 86.7468 141.088 86.4575 136.012 87.5935C134.67 84.5016 132.853 81.6384 130.627 79.1076C127.055 74.9387 122.343 71.9028 117.071 70.3721C119.116 69.3702 120.746 67.6847 121.679 65.6075C123.667 60.7395 120.134 55.5422 118.685 53.7081C119.226 51.8527 120.548 48.5533 122.571 47.5473C123.165 47.2496 123.845 47.1743 124.49 47.335C124.684 53.3524 125.963 54.8733 126.937 55.4865C127.259 55.7005 127.629 55.8316 128.014 55.8682C128.399 55.9049 128.786 55.8459 129.143 55.6965C137.52 51.9565 141.825 55.5479 141.993 55.6912L142.203 55.8796L142.458 55.9832C143.579 56.4899 144.612 57.1737 145.516 58.0084C146.342 58.7018 146.98 59.5917 147.373 60.5963C147.765 61.6009 147.899 62.6881 147.761 63.7578L147.634 64.7399L148.454 65.292C148.73 65.4778 155.209 69.9397 152.475 76.4907L152.064 77.4914L152.833 78.2449Z" fill="#CEAED6"/>
<path d="M148.023 146.581C149.557 149.23 152.148 155.057 150.356 158.491C149.305 160.503 146.752 161.602 142.759 161.764C140.85 161.831 138.969 162.243 137.207 162.98C136.134 163.434 134.17 164.057 133.092 163.142C132.272 162.446 130.64 159.704 133.145 149.292C137.332 147.516 141.822 146.562 146.369 146.483C146.964 146.494 147.511 146.528 148.023 146.581Z" fill="#CEAED6"/>
<path d="M128.155 81.1196C130.104 83.3293 131.715 85.8161 132.933 88.4987C131.502 89.0242 130.132 89.7023 128.846 90.5213C124.317 93.4381 121.121 98.0231 119.951 103.281L119.932 103.414C119.505 108.343 118.04 111.802 115.576 113.697C113.952 114.937 111.905 115.49 109.877 115.237L108.659 115.009L108.142 116.145C106.236 120.336 104.187 122.643 102.366 122.643H102.347C99.6317 122.619 96.9402 117.841 96.2129 116.169L95.706 115.019L94.469 115.234C92.4405 115.489 90.3931 114.937 88.7675 113.697C86.3042 111.802 84.839 108.341 84.4117 103.412L84.3931 103.279C83.2232 98.0208 80.0272 93.4359 75.4984 90.519C74.2118 89.7011 72.8415 89.023 71.4107 88.4964C72.6306 85.8145 74.2407 83.3279 76.1885 81.1173C78.3177 78.6116 80.9293 76.5598 83.8678 75.0842C86.8063 73.6085 90.0117 72.7392 93.2931 72.5278C96.1435 73.1461 99.0407 73.5243 101.954 73.6586L102.339 73.6639L102.389 73.6612C105.303 73.5257 108.2 73.1474 111.05 72.5305C114.332 72.7417 117.537 73.611 120.476 75.0866C123.414 76.5622 126.026 78.6139 128.155 81.1196ZM114.445 80.6365C114.445 79.8473 114.212 79.0759 113.773 78.4196C113.335 77.7634 112.712 77.252 111.983 76.9499C111.254 76.6478 110.451 76.5687 109.677 76.7226C108.903 76.8765 108.192 77.2565 107.634 77.8145C107.076 78.3725 106.696 79.0834 106.542 79.8574C106.388 80.6314 106.467 81.4337 106.769 82.1628C107.071 82.8919 107.582 83.5151 108.239 83.9536C108.895 84.392 109.666 84.626 110.455 84.626C111.513 84.6252 112.528 84.2047 113.276 83.4567C114.024 82.7087 114.444 81.6944 114.445 80.6365ZM114.445 90.2957C114.445 89.5065 114.212 88.7351 113.773 88.0789C113.335 87.4226 112.712 86.9111 111.983 86.6091C111.254 86.307 110.451 86.2279 109.677 86.3818C108.903 86.5357 108.192 86.9157 107.634 87.4737C107.076 88.0317 106.696 88.7426 106.542 89.5166C106.388 90.2906 106.467 91.0929 106.769 91.822C107.071 92.5511 107.582 93.1743 108.239 93.6127C108.895 94.0512 109.666 94.2852 110.455 94.2852C111.513 94.2844 112.528 93.8639 113.276 93.1159C114.024 92.3679 114.444 91.3536 114.445 90.2957ZM114.445 99.9549C114.446 99.1656 114.213 98.3939 113.775 97.7373C113.336 97.0807 112.714 96.5688 111.985 96.2664C111.255 95.9639 110.453 95.8844 109.679 96.038C108.905 96.1916 108.194 96.5713 107.635 97.1292C107.077 97.6871 106.697 98.398 106.542 99.1721C106.388 99.9462 106.467 100.749 106.769 101.478C107.071 102.207 107.582 102.83 108.238 103.269C108.895 103.708 109.666 103.942 110.455 103.942C111.513 103.941 112.527 103.521 113.275 102.773C114.023 102.026 114.444 101.012 114.445 99.9549ZM114.445 108.823C114.445 108.034 114.211 107.262 113.773 106.606C113.335 105.95 112.711 105.439 111.982 105.137C111.253 104.835 110.451 104.756 109.677 104.91C108.903 105.064 108.192 105.444 107.634 106.002C107.076 106.56 106.696 107.271 106.542 108.045C106.388 108.819 106.467 109.621 106.769 110.35C107.071 111.079 107.583 111.702 108.239 112.141C108.895 112.579 109.666 112.813 110.455 112.813C111.513 112.812 112.528 112.392 113.276 111.643C114.024 110.895 114.445 109.881 114.445 108.823ZM97.8769 80.6338C97.8769 79.8448 97.6429 79.0734 97.2045 78.4174C96.7662 77.7613 96.1431 77.25 95.4141 76.948C94.6851 76.646 93.883 76.567 93.1091 76.721C92.3352 76.8749 91.6243 77.2549 91.0664 77.8128C90.5084 78.3707 90.1285 79.0816 89.9746 79.8555C89.8206 80.6294 89.8996 81.4315 90.2016 82.1605C90.5035 82.8895 91.0149 83.5126 91.6709 83.951C92.327 84.3893 93.0984 84.6233 93.8874 84.6233C94.9451 84.622 95.9591 84.2012 96.707 83.4533C97.4549 82.7055 97.8755 81.6915 97.8769 80.6338ZM97.8769 90.293C97.8769 89.504 97.6429 88.7326 97.2045 88.0766C96.7662 87.4205 96.1431 86.9092 95.4141 86.6072C94.6851 86.3053 93.883 86.2262 93.1091 86.3802C92.3352 86.5341 91.6243 86.9141 91.0664 87.472C90.5084 88.03 90.1285 88.7408 89.9746 89.5147C89.8206 90.2886 89.8996 91.0907 90.2016 91.8197C90.5035 92.5487 91.0149 93.1718 91.6709 93.6102C92.327 94.0485 93.0984 94.2825 93.8874 94.2825C94.9452 94.2816 95.9595 93.861 96.7075 93.113C97.4555 92.3651 97.8759 91.3508 97.8769 90.293ZM97.8769 99.9522C97.8769 99.1632 97.6429 98.3918 97.2045 97.7358C96.7662 97.0797 96.1431 96.5683 95.4141 96.2664C94.6851 95.9644 93.883 95.8854 93.1091 96.0394C92.3352 96.1933 91.6243 96.5733 91.0664 97.1312C90.5084 97.6891 90.1285 98.4 89.9746 99.1739C89.8206 99.9478 89.8996 100.75 90.2016 101.479C90.5035 102.208 91.0149 102.831 91.6709 103.269C92.327 103.708 93.0984 103.942 93.8874 103.942C94.9452 103.941 95.9595 103.52 96.7075 102.772C97.4556 102.024 97.876 101.01 97.8769 99.9522ZM97.8769 108.82C97.8769 108.031 97.6429 107.26 97.2045 106.604C96.7662 105.948 96.1431 105.437 95.4141 105.135C94.6851 104.833 93.883 104.754 93.1091 104.908C92.3352 105.061 91.6243 105.441 91.0664 105.999C90.5084 106.557 90.1285 107.268 89.9746 108.042C89.8206 108.816 89.8996 109.618 90.2016 110.347C90.5035 111.076 91.0149 111.699 91.6709 112.138C92.327 112.576 93.0984 112.81 93.8874 112.81C94.9451 112.809 95.9591 112.388 96.707 111.64C97.4549 110.892 97.8755 109.878 97.8769 108.82Z" fill="#CEAED6"/>
<path d="M125.222 41.3919C125.19 41.4556 125.161 41.5193 125.129 41.583C125.095 41.5609 125.058 41.5414 125.021 41.5246C125.09 41.4821 125.156 41.4397 125.222 41.3919Z" fill="#CEAED6"/>
<path d="M110.456 76.647C111.245 76.6469 112.017 76.8808 112.673 77.3192C113.329 77.7576 113.841 78.3807 114.143 79.1098C114.445 79.8388 114.524 80.6411 114.37 81.4151C114.216 82.1891 113.836 82.9001 113.278 83.4582C112.72 84.0163 112.009 84.3963 111.235 84.5503C110.461 84.7043 109.659 84.6253 108.93 84.3233C108.201 84.0214 107.578 83.51 107.139 82.8538C106.701 82.1976 106.467 81.4262 106.467 80.637C106.468 79.5792 106.888 78.5648 107.636 77.8168C108.384 77.0687 109.398 76.648 110.456 76.647ZM112.588 80.637C112.588 80.2154 112.463 79.8033 112.228 79.4528C111.994 79.1023 111.661 78.829 111.272 78.6677C110.882 78.5064 110.454 78.4641 110.04 78.5464C109.627 78.6286 109.247 78.8316 108.949 79.1297C108.651 79.4278 108.448 79.8076 108.366 80.2211C108.283 80.6346 108.326 81.0632 108.487 81.4526C108.648 81.8421 108.921 82.175 109.272 82.4092C109.622 82.6434 110.035 82.7684 110.456 82.7684C111.021 82.768 111.563 82.5432 111.963 82.1435C112.363 81.7437 112.587 81.2023 112.588 80.637Z" fill="#CEAED6"/>
<path d="M110.456 86.3062C111.245 86.3062 112.017 86.5402 112.673 86.9785C113.329 87.4169 113.84 88.0399 114.142 88.7689C114.444 89.4978 114.523 90.3 114.369 91.0739C114.215 91.8477 113.835 92.5586 113.277 93.1165C112.719 93.6745 112.009 94.0545 111.235 94.2085C110.461 94.3625 109.659 94.2835 108.93 93.9817C108.201 93.6798 107.578 93.1685 107.139 92.5125C106.701 91.8565 106.467 91.0852 106.467 90.2962C106.468 89.2383 106.888 88.2241 107.636 87.476C108.384 86.7279 109.398 86.3072 110.456 86.3062ZM112.588 90.2962C112.588 89.8746 112.463 89.4625 112.228 89.112C111.994 88.7614 111.661 88.4882 111.272 88.3269C110.882 88.1655 110.454 88.1233 110.04 88.2056C109.627 88.2878 109.247 88.4908 108.949 88.7889C108.651 89.087 108.448 89.4668 108.366 89.8803C108.283 90.2938 108.326 90.7224 108.487 91.1118C108.648 91.5013 108.921 91.8342 109.272 92.0684C109.622 92.3026 110.035 92.4276 110.456 92.4276C111.021 92.4272 111.563 92.2024 111.963 91.8027C112.363 91.4029 112.587 90.8614 112.588 90.2962Z" fill="#CEAED6"/>
<path d="M110.456 95.9654C111.245 95.9657 112.016 96.1998 112.671 96.6381C113.327 97.0764 113.838 97.6992 114.14 98.4279C114.441 99.1566 114.52 99.9583 114.366 100.732C114.213 101.505 113.833 102.216 113.275 102.773C112.717 103.331 112.007 103.711 111.234 103.865C110.46 104.019 109.658 103.94 108.93 103.639C108.201 103.337 107.578 102.826 107.14 102.171C106.701 101.515 106.467 100.744 106.467 99.9554C106.468 98.8975 106.888 97.8832 107.636 97.1352C108.384 96.3871 109.398 95.9664 110.456 95.9654ZM112.588 99.9554C112.588 99.5337 112.464 99.1213 112.23 98.7704C111.996 98.4196 111.663 98.1459 111.274 97.9842C110.884 97.8224 110.456 97.7798 110.042 97.8617C109.628 97.9437 109.248 98.1465 108.95 98.4445C108.651 98.7425 108.448 99.1222 108.366 99.5358C108.283 99.9494 108.325 100.378 108.487 100.768C108.648 101.157 108.921 101.49 109.272 101.725C109.622 101.959 110.034 102.084 110.456 102.084C111.021 102.084 111.562 101.859 111.962 101.46C112.362 101.061 112.587 100.52 112.588 99.9554Z" fill="#CEAED6"/>
<path d="M110.456 104.834C111.245 104.833 112.017 105.067 112.673 105.506C113.329 105.944 113.841 106.567 114.143 107.296C114.445 108.025 114.524 108.828 114.37 109.602C114.216 110.376 113.836 111.087 113.278 111.645C112.72 112.203 112.009 112.583 111.235 112.737C110.461 112.891 109.659 112.812 108.93 112.51C108.2 112.208 107.577 111.696 107.139 111.04C106.701 110.384 106.467 109.612 106.467 108.823C106.468 107.765 106.888 106.751 107.636 106.003C108.384 105.255 109.398 104.835 110.456 104.834ZM112.588 108.823C112.588 108.401 112.463 107.989 112.228 107.639C111.994 107.288 111.661 107.015 111.272 106.854C110.882 106.692 110.454 106.65 110.04 106.732C109.627 106.815 109.247 107.018 108.949 107.316C108.651 107.614 108.448 107.994 108.366 108.407C108.283 108.821 108.326 109.249 108.487 109.639C108.648 110.028 108.921 110.361 109.272 110.595C109.623 110.83 110.035 110.955 110.456 110.954C111.021 110.954 111.563 110.729 111.963 110.33C112.362 109.93 112.587 109.388 112.588 108.823Z" fill="#CEAED6"/>
<path d="M93.8877 76.6443C94.6769 76.6443 95.4483 76.8783 96.1044 77.3167C96.7606 77.7552 97.272 78.3783 97.574 79.1074C97.876 79.8365 97.955 80.6387 97.801 81.4127C97.6471 82.1867 97.2671 82.8976 96.7091 83.4557C96.151 84.0137 95.4401 84.3937 94.6661 84.5476C93.8921 84.7016 93.0899 84.6226 92.3608 84.3206C91.6317 84.0186 91.0086 83.5072 90.5701 82.851C90.1317 82.1949 89.8977 81.4235 89.8977 80.6343C89.899 79.5765 90.3198 78.5624 91.0678 77.8144C91.8158 77.0664 92.8299 76.6456 93.8877 76.6443ZM96.0192 80.6343C96.0192 80.2127 95.8942 79.8006 95.66 79.4501C95.4258 79.0996 95.0929 78.8264 94.7034 78.6651C94.3139 78.5037 93.8853 78.4615 93.4719 78.5438C93.0584 78.626 92.6786 78.829 92.3805 79.1271C92.0824 79.4252 91.8794 79.805 91.7972 80.2185C91.7149 80.6319 91.7571 81.0605 91.9184 81.45C92.0798 81.8395 92.353 82.1724 92.7035 82.4066C93.054 82.6408 93.4661 82.7658 93.8877 82.7658C94.4528 82.7649 94.9946 82.54 95.3941 82.1404C95.7937 81.7407 96.0185 81.1994 96.0192 80.6343Z" fill="#CEAED6"/>
<path d="M93.8877 86.3035C94.6767 86.3036 95.448 86.5377 96.104 86.9761C96.76 87.4145 97.2712 88.0376 97.5731 88.7665C97.875 89.4955 97.954 90.2976 97.8 91.0714C97.6461 91.8453 97.2661 92.5561 96.7082 93.114C96.1503 93.6719 95.4395 94.0519 94.6656 94.2058C93.8918 94.3598 93.0897 94.2808 92.3607 93.9789C91.6317 93.677 91.0087 93.1658 90.5703 92.5098C90.1319 91.8538 89.8978 91.0825 89.8977 90.2935C89.8985 89.2356 90.3192 88.2212 91.0673 87.4731C91.8154 86.725 92.8298 86.3043 93.8877 86.3035ZM96.0192 90.2935C96.0192 89.8719 95.8942 89.4598 95.66 89.1093C95.4258 88.7588 95.0929 88.4856 94.7034 88.3242C94.3139 88.1629 93.8853 88.1207 93.4719 88.203C93.0584 88.2852 92.6786 88.4882 92.3805 88.7863C92.0824 89.0844 91.8794 89.4642 91.7972 89.8777C91.7149 90.2912 91.7571 90.7197 91.9184 91.1092C92.0798 91.4987 92.353 91.8316 92.7035 92.0658C93.054 92.3 93.4661 92.425 93.8877 92.425C94.453 92.4246 94.995 92.1998 95.3946 91.8001C95.7943 91.4003 96.0189 90.8588 96.0192 90.2935Z" fill="#CEAED6"/>
<path d="M93.8877 95.963C94.6769 95.963 95.4483 96.197 96.1044 96.6354C96.7606 97.0739 97.272 97.697 97.574 98.4261C97.876 99.1552 97.955 99.9574 97.801 100.731C97.6471 101.505 97.2671 102.216 96.7091 102.774C96.151 103.332 95.4401 103.712 94.6661 103.866C93.8921 104.02 93.0899 103.941 92.3608 103.639C91.6317 103.337 91.0086 102.826 90.5701 102.17C90.1317 101.514 89.8977 100.742 89.8977 99.953C89.8985 98.895 90.3192 97.8807 91.0672 97.1326C91.8153 96.3845 92.8297 95.9638 93.8877 95.963ZM96.0192 99.953C96.0192 99.5314 95.8942 99.1193 95.66 98.7688C95.4258 98.4183 95.0929 98.145 94.7034 97.9837C94.314 97.8224 93.8854 97.7801 93.4719 97.8624C93.0585 97.9446 92.6786 98.1476 92.3805 98.4457C92.0824 98.7438 91.8794 99.1236 91.7972 99.537C91.7149 99.9505 91.7571 100.379 91.9184 100.769C92.0798 101.158 92.353 101.491 92.7035 101.725C93.054 101.959 93.4661 102.084 93.8877 102.084C94.453 102.084 94.995 101.859 95.3947 101.459C95.7943 101.06 96.019 100.518 96.0192 99.953Z" fill="#CEAED6"/>
<path d="M93.8877 104.831C94.6769 104.831 95.4483 105.065 96.1044 105.503C96.7606 105.942 97.272 106.565 97.574 107.294C97.876 108.023 97.955 108.825 97.801 109.599C97.6471 110.373 97.2671 111.084 96.7091 111.642C96.151 112.2 95.4401 112.58 94.6661 112.734C93.8921 112.888 93.0899 112.809 92.3608 112.507C91.6317 112.205 91.0086 111.694 90.5701 111.038C90.1317 110.381 89.8977 109.61 89.8977 108.821C89.899 107.763 90.3198 106.749 91.0678 106.001C91.8158 105.253 92.8299 104.832 93.8877 104.831ZM96.0192 108.821C96.0192 108.399 95.8942 107.987 95.66 107.637C95.4258 107.286 95.0929 107.013 94.7034 106.852C94.314 106.69 93.8854 106.648 93.4719 106.73C93.0585 106.812 92.6786 107.015 92.3805 107.314C92.0824 107.612 91.8794 107.991 91.7972 108.405C91.7149 108.818 91.7571 109.247 91.9184 109.636C92.0798 110.026 92.353 110.359 92.7035 110.593C93.054 110.827 93.4661 110.952 93.8877 110.952C94.4528 110.951 94.9945 110.726 95.3941 110.327C95.7936 109.927 96.0184 109.386 96.0192 108.821Z" fill="#CEAED6"/>
<path d="M82.6651 65.6049C83.5978 67.6814 85.2268 69.3668 87.2704 70.3695C81.9987 71.9015 77.2879 74.9371 73.7147 79.1049C71.4888 81.6356 69.6725 84.4989 68.3316 87.5909C63.2565 86.4548 57.2577 86.7441 50.3988 88.4642C49.4148 86.883 48.9891 85.0177 49.1898 83.1662C49.3904 81.3147 50.2058 79.5839 51.5057 78.2502L52.2887 77.4937L51.8693 76.4877C49.1354 69.9368 55.612 65.4748 55.8854 65.2917L56.7135 64.7396L56.5835 63.7548C55.8827 58.5125 61.64 56.0837 61.8816 55.9829L62.1311 55.89L62.3411 55.7015C62.5189 55.5449 66.8243 51.9536 75.2011 55.6935C75.5576 55.8429 75.9455 55.9019 76.3303 55.8653C76.7152 55.8287 77.085 55.6975 77.4069 55.4835C78.381 54.873 79.6604 53.3494 79.8542 47.332C80.4978 47.1712 81.1778 47.2466 81.7706 47.5444C83.7959 48.5504 85.1206 51.8524 85.6592 53.7051C84.21 55.5396 80.677 60.7368 82.6651 65.6049Z" fill="#CEAED6"/>
<path d="M74.296 0.09021C74.3008 0.113905 74.3043 0.13784 74.3066 0.161911C74.1847 0.185221 74.0649 0.218061 73.9482 0.260117L73.919 0.24411C74.0417 0.185751 74.1675 0.134369 74.296 0.09021Z" fill="#CEAED6"/>
<path d="M71.1983 149.289C73.704 159.702 72.069 162.446 71.2514 163.142C70.1714 164.055 68.2095 163.431 67.1372 162.977C65.374 162.243 63.493 161.832 61.5843 161.764C57.5921 161.602 55.0386 160.501 53.9875 158.489C52.1958 155.054 54.7865 149.228 56.3207 146.579C56.8307 146.526 57.3798 146.491 57.9744 146.48C62.5214 146.562 67.0104 147.516 71.1983 149.289Z" fill="#CEAED6"/>
<path d="M41.9231 134.998C42.5987 136.752 42.7355 138.668 42.3159 140.5C41.7433 142.834 40.7159 145.032 39.2926 146.969C39.2526 146.971 39.2126 146.971 39.1732 146.974C37.2249 145.7 30.9686 140.543 24.0221 123.621C26.2684 124.189 28.4731 124.91 30.6209 125.779C34.7912 127.488 40.1345 130.477 41.9231 134.998Z" fill="#CEAED6"/>
<path d="M10.1562 39.9824C10.4694 39.7435 10.7747 39.5124 11.0799 39.2817C9.77994 41.5797 8.64974 43.9697 7.6983 46.4325C6.17546 50.223 5.73886 54.3629 6.4375 58.3877C8.1175 68.1345 7.9611 75.1128 6.0101 77.5389C5.80131 77.8077 5.54039 78.0316 5.24299 78.1971C4.38786 76.9747 3.635 75.6839 2.99209 74.3377C-0.676206 66.1888 -0.899206 57.8515 2.35769 50.852C4.25819 47.0563 6.5171 43.1119 10.1562 39.9824Z" fill="#CEAED6"/>
</svg>
