<svg width="532" height="72" viewBox="0 0 532 72" fill="none" xmlns="http://www.w3.org/2000/svg">
<g filter="url(#filter0_d_1_491)">
<path d="M16.1392 1.20203L27.0031 32.4754H27.1286L38.1817 1.20203H53.8809V2.0809H48.1031V45.035H53.8805V45.915H33.2831V45.035H38.9981V2.0809H38.8721L23.4238 45.9149H22.419L6.9077 2.0809H6.7822V45.035H12.5596V45.915H-0.000396729V45.035H5.777V2.0809H3.8147e-06V1.20203H16.1392Z" fill="#7F2E68"/>
<path d="M84.5581 46.4803C83.5296 46.6405 82.4906 46.7244 81.4497 46.7313C79.7903 46.8547 78.1336 46.4595 76.7085 45.6004C75.6818 44.8465 74.9935 43.7183 74.793 42.4604H74.6675C74.1991 43.8943 73.2142 45.1028 71.9043 45.851C70.2956 46.5198 68.5578 46.8205 66.8179 46.731C65.7843 46.7278 64.7536 46.6225 63.7407 46.4165C62.7345 46.2218 61.7615 45.8834 60.8516 45.4116C59.9883 44.9659 59.2534 44.3066 58.7168 43.4966C58.1513 42.6067 57.8668 41.5671 57.9004 40.5132C57.8629 39.4518 58.1124 38.3999 58.6226 37.4683C59.1005 36.6547 59.7419 35.9491 60.5064 35.396C61.3156 34.8126 62.2037 34.3473 63.1441 34.0142C64.127 33.6587 65.1422 33.3133 66.1895 32.9781C67.9058 32.4751 69.2979 32.0461 70.3657 31.6909C71.2389 31.4257 72.0729 31.0454 72.8457 30.5601C73.3704 30.2312 73.7942 29.7638 74.0703 29.2095C74.3218 28.5925 74.4395 27.9291 74.4155 27.2632V23.433C74.4283 22.3522 74.1462 21.2883 73.5996 20.3558C73.2603 19.8681 72.7947 19.4818 72.2526 19.2386C71.7105 18.9953 71.1124 18.9042 70.5225 18.9749C69.6397 18.9534 68.7688 19.1819 68.0103 19.6341C67.6333 19.9057 67.3355 20.2729 67.1479 20.698C66.9603 21.1231 66.8895 21.5906 66.9429 22.0521C66.9512 22.2729 66.9721 22.4929 67.0054 22.7113C67.0469 23.0246 67.0889 23.37 67.1314 23.7474C67.1724 24.1244 67.2142 24.4802 67.2568 24.8148C67.2891 25.0436 67.31 25.2739 67.3193 25.5048C67.3502 26.0333 67.1947 26.5558 66.8799 26.9814C66.6043 27.3241 66.2484 27.5935 65.8438 27.7656C65.4453 27.9338 65.02 28.0297 64.5879 28.0488C64.1484 28.0702 63.7813 28.08 63.4888 28.08C63.0581 28.0793 62.6279 28.0477 62.2017 27.9853C61.7852 27.9316 61.3872 27.7809 61.0396 27.5453C60.6839 27.293 60.3933 26.9596 60.1919 26.5727C59.9376 26.0448 59.819 25.4618 59.8467 24.8764C59.8331 23.8312 60.152 22.8087 60.7573 21.9564C61.3928 21.0725 62.219 20.3428 63.1748 19.8216C64.248 19.2305 65.4006 18.7967 66.5972 18.5335C67.9057 18.2375 69.2434 18.0902 70.585 18.0941C72.0899 18.087 73.5924 18.2131 75.075 18.471C76.3698 18.6815 77.6086 19.1516 78.7171 19.8529C79.7552 20.5372 80.5989 21.4781 81.1663 22.5843C81.8187 23.9439 82.1312 25.4416 82.077 26.9486V42.523C82.0633 43.2393 82.1803 43.9522 82.4222 44.6265C82.6521 45.2339 83.2277 45.5376 84.1492 45.5376C84.6192 45.5556 85.0855 45.4471 85.4992 45.2232C85.8883 44.9858 86.238 44.6893 86.5358 44.3443L87.1008 44.9097C86.8166 45.3405 86.4418 45.7042 86.0027 45.9755C85.5636 46.2467 85.0706 46.419 84.5581 46.4803ZM74.2905 30.3403C74.1917 30.6141 74.0305 30.8611 73.8198 31.0619C73.4529 31.3831 73.0402 31.6477 72.5952 31.8471C71.7993 32.2241 71.0039 32.5907 70.209 32.9471C69.4348 33.2898 68.7153 33.7446 68.0737 34.2971C67.4329 34.8587 66.9099 35.5419 66.5352 36.3071C66.1021 37.2732 65.8979 38.3263 65.9385 39.3842C65.9385 39.8862 65.9699 40.4725 66.0327 41.143C66.0954 41.8144 66.265 42.4715 66.5352 43.0893C66.8055 43.7158 67.2261 44.2659 67.7598 44.6909C68.4147 45.165 69.2134 45.3979 70.0205 45.35C70.5759 45.3471 71.1233 45.2183 71.6216 44.9731C72.1744 44.698 72.6576 44.301 73.0347 43.812C73.5006 43.1924 73.8419 42.4883 74.0396 41.7387C74.3103 40.7254 74.437 39.679 74.416 38.6303V30.3413L74.2905 30.3403Z" fill="#7F2E68"/>
<path d="M101.293 18.9744V24.2489H101.419C102.15 22.6888 103.186 21.2904 104.465 20.1356C105.869 18.939 107.676 18.3216 109.52 18.409C111.068 18.338 112.589 18.8412 113.79 19.8221C114.338 20.3125 114.77 20.9197 115.052 21.5989C115.335 22.2782 115.461 23.0122 115.423 23.7469C115.485 24.8083 115.161 25.8565 114.512 26.6981C114.134 27.0809 113.677 27.3751 113.172 27.5597C112.667 27.7443 112.127 27.8145 111.592 27.7655C110.678 27.7771 109.774 27.5727 108.955 27.1688C108.556 26.959 108.229 26.6346 108.016 26.2375C107.804 25.8403 107.715 25.3885 107.761 24.9403C107.769 24.7193 107.79 24.4989 107.824 24.2803C107.865 23.9668 107.919 23.6319 107.981 23.2764C108.044 22.9209 108.096 22.5957 108.138 22.3028C108.179 22.0098 108.201 21.8428 108.201 21.7998C108.175 21.531 108.112 21.267 108.013 21.0157C107.92 20.8171 107.78 20.6443 107.604 20.5127C107.354 20.3484 107.056 20.2712 106.756 20.2927C106.189 20.3458 105.646 20.552 105.186 20.8894C104.496 21.348 103.899 21.9339 103.428 22.6159C102.837 23.4593 102.361 24.3784 102.015 25.3484C101.602 26.5063 101.4 27.7291 101.418 28.9584V45.035H106.38V45.915H89.6758V45.035H93.7578V19.853H89.6758V18.974L101.293 18.9744Z" fill="#7F2E68"/>
<path d="M128.359 18.9744V45.035H132.567V45.915H116.49V45.035H120.698V19.853H116.49V18.974L128.359 18.9744ZM121.389 2.33301C122.114 1.62234 123.062 1.18449 124.074 1.09381C125.085 1.00313 126.096 1.26522 126.936 1.83554C127.776 2.40587 128.392 3.2493 128.681 4.22263C128.97 5.19595 128.913 6.23919 128.52 7.1752C128.126 8.11121 127.421 8.88231 126.524 9.35757C125.627 9.83284 124.593 9.98296 123.598 9.78247C122.603 9.58198 121.708 9.04323 121.064 8.25769C120.421 7.47215 120.07 6.48825 120.07 5.47302C120.063 4.88727 120.177 4.30638 120.404 3.7663C120.631 3.22621 120.966 2.7384 121.389 2.33301Z" fill="#7F2E68"/>
<path d="M135.204 19.853V18.974H146.884V23.6205H147.01C148.307 19.9369 150.777 18.0948 154.42 18.0942C156.578 18.0316 158.718 18.5178 160.637 19.5072C162.278 20.3871 163.721 21.5947 164.876 23.0551C165.966 24.4438 166.796 26.0183 167.325 27.7026C167.823 29.2239 168.088 30.812 168.11 32.4126C168.117 36.0859 166.764 39.6318 164.311 42.3657C163.101 43.6975 161.639 44.7756 160.009 45.5376C158.259 46.3492 156.349 46.757 154.42 46.731C152.728 46.8121 151.069 46.2514 149.773 45.161C148.61 44.1295 147.707 42.8388 147.135 41.3934H147.01V62.5565H151.28V63.4354H135.204V62.5565H139.348V19.853H135.204ZM147.167 36.7768C147.256 38.2786 147.563 39.7594 148.077 41.1733C148.535 42.4672 149.301 43.6307 150.307 44.5639C151.456 45.5224 152.927 46.0056 154.42 45.9145C155.438 45.968 156.438 45.6309 157.215 44.9721C157.973 44.2309 158.516 43.2977 158.785 42.2721C159.175 40.8898 159.407 39.4675 159.475 38.0328C159.579 36.3795 159.631 34.5269 159.632 32.4752C159.65 30.3471 159.556 28.2194 159.349 26.1012C159.234 24.6687 158.906 23.2613 158.376 21.9254C158.024 21.0161 157.412 20.2301 156.618 19.6647C155.804 19.1774 154.865 18.9376 153.917 18.9747C152.557 18.9059 151.224 19.3801 150.212 20.2931C149.262 21.2182 148.551 22.3603 148.14 23.6212C147.661 25.0449 147.356 26.521 147.23 28.0177C147.083 29.6085 147.01 31.0945 147.01 32.4757C147.01 33.7743 147.062 35.2078 147.167 36.7768Z" fill="#7F2E68"/>
<path d="M193.26 19.2567C195.057 19.99 196.706 21.0432 198.126 22.3651C199.499 23.6507 200.599 25.1989 201.361 26.9178C202.127 28.6595 202.523 30.5414 202.523 32.4442C202.523 34.3469 202.127 36.2288 201.361 37.9705C200.599 39.6899 199.499 41.2383 198.126 42.5233C196.71 43.8437 195.06 44.8874 193.26 45.6004C189.36 47.1082 185.039 47.1082 181.14 45.6004C179.34 44.8875 177.689 43.8437 176.273 42.523C174.9 41.2383 173.8 39.6898 173.039 37.9702C172.273 36.2285 171.877 34.3466 171.877 32.4439C171.877 30.5411 172.273 28.6592 173.039 26.9175C173.801 25.1984 174.901 23.6501 176.273 22.3648C177.694 21.0426 179.343 19.9894 181.14 19.2564C185.031 17.707 189.368 17.7073 193.26 19.2567ZM191.03 44.7528C191.975 43.9424 192.681 42.8892 193.071 41.7069C193.538 40.3062 193.813 38.8486 193.887 37.3739C193.991 35.741 194.044 34.0874 194.044 32.4129C194.045 30.7384 193.993 29.0951 193.887 27.4829C193.811 26.0187 193.536 24.5716 193.071 23.1812C192.68 21.9991 191.975 20.9459 191.03 20.1353C189.896 19.3782 188.563 18.9741 187.199 18.9741C185.836 18.9741 184.503 19.3782 183.369 20.1353C182.423 20.9456 181.718 21.9989 181.328 23.1812C180.862 24.5715 180.587 26.0186 180.511 27.4829C180.406 29.0952 180.354 30.7386 180.354 32.4129C180.354 34.0872 180.407 35.7409 180.511 37.3739C180.585 38.8486 180.86 40.3064 181.328 41.7069C181.717 42.8894 182.423 43.9427 183.369 44.7528C184.503 45.5105 185.836 45.9149 187.199 45.9149C188.563 45.9149 189.896 45.5105 191.03 44.7528Z" fill="#7F2E68"/>
<path d="M207.546 36.8084C208.049 37.9813 208.562 39.1118 209.085 40.2C209.576 41.2385 210.198 42.2094 210.938 43.0887C211.655 43.9305 212.529 44.6239 213.513 45.1297C214.666 45.6863 215.938 45.9557 217.218 45.9149C217.594 45.9149 218.097 45.8937 218.725 45.8514C219.372 45.8042 220.003 45.6226 220.577 45.3182C221.214 44.9768 221.754 44.4799 222.147 43.8739C222.637 43.0274 222.867 42.0551 222.806 41.0789C222.804 40.6868 222.751 40.2965 222.65 39.9178C222.517 39.4683 222.292 39.0512 221.99 38.6932C221.571 38.2046 221.072 37.7905 220.514 37.4686C219.665 36.978 218.771 36.568 217.845 36.244L212.758 34.3592C212.11 34.123 211.481 33.8397 210.874 33.5116C210.185 33.1425 209.56 32.6654 209.022 32.0985C208.436 31.482 207.958 30.7708 207.609 29.995C207.211 29.0742 207.018 28.0778 207.044 27.075C207.039 25.8824 207.296 24.7033 207.797 23.6209C208.297 22.5356 209.013 21.5634 209.901 20.7635C210.856 19.9139 211.964 19.2534 213.166 18.8172C214.503 18.3251 215.918 18.0802 217.343 18.0946C218.093 18.0899 218.842 18.1745 219.572 18.3465C220.263 18.5135 220.891 18.6912 221.456 18.8797C222.021 19.0682 222.524 19.2462 222.963 19.4139C223.292 19.5562 223.642 19.6411 223.999 19.6649C224.459 19.6649 224.753 19.5819 224.878 19.4139C225.007 19.24 225.113 19.0499 225.192 18.8485H226.072V26.5096H225.255C224.836 25.5047 224.407 24.5418 223.968 23.6209C223.558 22.7467 223.03 21.9331 222.398 21.203C221.78 20.5051 221.02 19.9482 220.168 19.5701C219.133 19.1437 218.021 18.9407 216.902 18.9744C215.556 18.9641 214.236 19.3459 213.103 20.0731C212.551 20.4074 212.1 20.8842 211.796 21.4534C211.492 22.0225 211.347 22.663 211.376 23.3075C211.381 23.646 211.423 23.9829 211.502 24.3123C211.607 24.7345 211.8 25.13 212.067 25.4735C212.451 25.9521 212.919 26.3565 213.448 26.6668C214.242 27.1427 215.084 27.5322 215.96 27.8289L221.298 29.6502C223.249 30.2529 225.019 31.3321 226.448 32.7902C227.646 34.1587 228.275 35.9336 228.206 37.7511C228.226 39.0537 227.912 40.3397 227.296 41.4874C226.701 42.5821 225.889 43.5438 224.91 44.3136C223.885 45.1101 222.725 45.7164 221.487 46.1036C220.188 46.522 218.832 46.7339 217.468 46.7315C216.645 46.7239 215.825 46.6399 215.018 46.4805C214.139 46.3125 213.292 46.1136 212.475 45.8838C211.658 45.654 210.915 45.4551 210.246 45.2871C209.734 45.1437 209.207 45.0592 208.676 45.0352C208.421 45.0127 208.165 45.0793 207.954 45.2237C207.765 45.4185 207.625 45.6555 207.546 45.9151H206.667V36.8086L207.546 36.8084Z" fill="#7F2E68"/>
<path d="M259.198 46.4803C258.17 46.6405 257.131 46.7244 256.09 46.7313C254.43 46.8547 252.774 46.4595 251.349 45.6004C250.322 44.8465 249.634 43.7183 249.433 42.4604H249.308C248.839 43.8943 247.854 45.1028 246.544 45.851C244.936 46.5198 243.198 46.8205 241.458 46.731C240.424 46.7278 239.394 46.6225 238.381 46.4165C237.375 46.2218 236.402 45.8834 235.492 45.4116C234.628 44.9659 233.893 44.3066 233.357 43.4966C232.791 42.6067 232.507 41.5671 232.54 40.5132C232.503 39.4518 232.753 38.3999 233.263 37.4683C233.741 36.6547 234.382 35.9491 235.146 35.396C235.956 34.8126 236.844 34.3473 237.784 34.0142C238.767 33.6587 239.782 33.3133 240.83 32.9781C242.546 32.4751 243.938 32.0461 245.006 31.6909C245.879 31.4257 246.713 31.0454 247.486 30.5601C248.011 30.2312 248.434 29.7638 248.711 29.2095C248.962 28.5925 249.08 27.9291 249.056 27.2632V23.433C249.069 22.3522 248.786 21.2883 248.24 20.3558C247.901 19.8681 247.435 19.4818 246.893 19.2386C246.351 18.9953 245.753 18.9042 245.163 18.9749C244.28 18.9534 243.409 19.1819 242.65 19.6341C242.273 19.9057 241.976 20.2729 241.788 20.698C241.6 21.1231 241.53 21.5906 241.583 22.0521C241.591 22.2729 241.612 22.4929 241.646 22.7113C241.687 23.0246 241.729 23.37 241.772 23.7474C241.813 24.1244 241.854 24.4802 241.897 24.8148C241.938 25.1507 241.96 25.3802 241.96 25.5048C241.99 26.0334 241.835 26.5559 241.52 26.9814C241.244 27.3241 240.888 27.5935 240.484 27.7656C240.085 27.9338 239.66 28.0297 239.228 28.0488C238.788 28.0702 238.421 28.08 238.128 28.08C237.698 28.0793 237.268 28.0477 236.841 27.9853C236.425 27.9316 236.027 27.7809 235.679 27.5453C235.324 27.293 235.033 26.9596 234.832 26.5727C234.577 26.0448 234.459 25.4617 234.486 24.8764C234.473 23.8312 234.792 22.8086 235.397 21.9564C236.033 21.0725 236.859 20.3428 237.814 19.8216C238.888 19.2305 240.04 18.7967 241.237 18.5335C242.545 18.2376 243.883 18.0902 245.225 18.0941C246.73 18.087 248.232 18.2131 249.715 18.471C251.009 18.6815 252.248 19.1515 253.357 19.8529C254.395 20.5372 255.239 21.4781 255.806 22.5843C256.458 23.9439 256.771 25.4416 256.717 26.9486V42.523C256.703 43.2393 256.82 43.9522 257.062 44.6265C257.292 45.2339 257.868 45.5376 258.789 45.5376C259.259 45.5556 259.725 45.447 260.139 45.2232C260.528 44.9858 260.878 44.6893 261.176 44.3443L261.74 44.9097C261.456 45.3405 261.082 45.7041 260.643 45.9754C260.204 46.2466 259.711 46.4189 259.198 46.4803ZM248.931 30.3403C248.832 30.6141 248.671 30.8611 248.46 31.0619C248.093 31.3831 247.68 31.6477 247.235 31.8471C246.44 32.2241 245.644 32.5907 244.849 32.9471C244.075 33.2897 243.355 33.7446 242.714 34.2971C242.073 34.8587 241.55 35.5419 241.175 36.3071C240.742 37.2732 240.538 38.3263 240.579 39.3842C240.579 39.8862 240.61 40.4725 240.673 41.143C240.736 41.8144 240.905 42.4715 241.175 43.0893C241.446 43.7158 241.866 44.2659 242.4 44.6909C243.055 45.165 243.854 45.3979 244.661 45.35C245.216 45.3471 245.763 45.2183 246.262 44.9731C246.815 44.6981 247.298 44.3011 247.675 43.812C248.141 43.1924 248.482 42.4883 248.68 41.7387C248.95 40.7254 249.077 39.679 249.056 38.6303V30.3413L248.931 30.3403Z" fill="#7F2E68"/>
<path d="M296.971 1.20203V2.0809H292.387L303.69 35.1756H303.816L310.41 16.4618L305.512 2.0809H302.121V1.20203H320.897V2.0809H315.057L326.424 35.2391H326.549L338.167 2.0809H332.767V1.20203H344.322V2.0809H339.235L323.096 47.6102H321.275L310.976 17.9061H310.85L300.3 47.6102H298.479L282.904 2.0809H277.755V1.20203H296.971Z" fill="#7F2E68"/>
<path d="M353.489 32.9784C353.489 34.4851 353.552 36.0026 353.678 37.5311C353.779 38.9591 354.118 40.36 354.683 41.6756C355.202 42.8797 356.024 43.929 357.069 44.7215C358.364 45.5897 359.909 46.009 361.465 45.9149C362.935 45.9616 364.393 45.6375 365.704 44.9725C366.762 44.4164 367.718 43.6839 368.529 42.8065C369.195 42.0899 369.746 41.2742 370.162 40.3885C370.44 39.8322 370.641 39.2404 370.759 38.6297L371.639 38.9442C371.39 39.8332 371.031 40.6875 370.57 41.4871C370.029 42.437 369.328 43.2866 368.498 43.9989C367.528 44.8287 366.424 45.4872 365.232 45.9461C363.727 46.5053 362.128 46.7718 360.522 46.7313C358.452 46.7482 356.394 46.4191 354.432 45.7576C352.618 45.1496 350.943 44.1892 349.502 42.9315C348.087 41.6819 346.962 40.1389 346.205 38.41C345.382 36.4974 344.975 34.4318 345.011 32.35C345.015 30.5319 345.4 28.7348 346.141 27.0746C346.883 25.3756 347.938 23.8312 349.251 22.5219C350.595 21.1846 352.169 20.0997 353.897 19.3188C355.701 18.4972 357.662 18.0792 359.643 18.0942C361.136 18.0985 362.618 18.3317 364.04 18.7856C365.484 19.2351 366.827 19.96 367.996 20.9203C369.215 21.9447 370.2 23.2189 370.885 24.6567C371.679 26.377 372.066 28.2576 372.015 30.1518H353.489V32.9784ZM363.537 25.0653C363.537 24.6053 363.516 24.0402 363.475 23.37C363.429 22.6819 363.28 22.0045 363.035 21.36C362.786 20.6953 362.363 20.1097 361.811 19.6647C361.129 19.1684 360.297 18.9245 359.455 18.9747C358.271 18.8983 357.099 19.2552 356.158 19.9787C355.373 20.664 354.779 21.5402 354.432 22.5226C354.044 23.595 353.801 24.7142 353.709 25.8507C353.604 27.044 353.531 28.185 353.489 29.2736H363.537V25.0653Z" fill="#7F2E68"/>
<path d="M387.589 0.636597V45.035H391.797V45.915H375.72V45.035H379.928V1.51642H375.72V0.636414L387.589 0.636597Z" fill="#7F2E68"/>
<path d="M406.616 0.636597V45.035H410.824V45.915H394.747V45.035H398.955V1.51642H394.747V0.636414L406.616 0.636597Z" fill="#7F2E68"/>
<path d="M418.296 45.035V19.853H414.151V18.974H425.832V25.2533H425.958C426.124 24.8764 426.417 24.3009 426.837 23.5268C427.319 22.6711 427.933 21.8975 428.658 21.2348C429.566 20.4078 430.606 19.739 431.735 19.2563C433.228 18.646 434.833 18.3571 436.445 18.4086C437.625 18.3374 438.807 18.5129 439.915 18.9236C441.023 19.3344 442.034 19.9715 442.882 20.7944C443.674 21.6791 444.284 22.7113 444.678 23.832C445.071 24.9526 445.24 26.1398 445.174 27.3256V45.0346H449.382V45.9146H433.619V45.0346H437.513V25.1912C437.628 23.8178 437.249 22.4484 436.446 21.3289C436.086 20.9223 435.64 20.6013 435.14 20.3894C434.64 20.1775 434.099 20.0801 433.557 20.1043C432.549 20.105 431.557 20.3532 430.667 20.827C429.702 21.3478 428.873 22.0901 428.25 22.993C427.499 24.0845 426.936 25.2948 426.586 26.573C426.14 28.2092 425.928 29.9006 425.958 31.5964V45.035H429.914V45.915H414.151V45.035H418.296Z" fill="#7F2E68"/>
<path d="M460.998 32.9784C460.998 34.4851 461.061 36.0026 461.186 37.5311C461.287 38.9591 461.627 40.36 462.191 41.6756C462.711 42.8797 463.533 43.929 464.578 44.7215C465.873 45.5898 467.418 46.0091 468.975 45.9149C470.444 45.9618 471.902 45.6379 473.213 44.973C474.271 44.4169 475.227 43.6844 476.039 42.807C476.705 42.0898 477.256 41.2742 477.672 40.389C477.951 39.8329 478.151 39.2411 478.268 38.6302L479.147 38.9447C478.899 39.8336 478.541 40.6879 478.08 41.4876C477.538 42.4372 476.837 43.2868 476.008 43.9994C475.038 44.829 473.934 45.4875 472.742 45.9466C471.236 46.5057 469.637 46.7722 468.031 46.7318C465.961 46.7487 463.902 46.4196 461.941 45.7581C460.127 45.1501 458.452 44.1897 457.011 42.932C455.596 41.6824 454.471 40.1394 453.714 38.4105C452.891 36.4979 452.484 34.4323 452.52 32.3505C452.524 30.5324 452.909 28.7353 453.65 27.0751C454.392 25.3761 455.447 23.8317 456.76 22.5224C458.104 21.1851 459.678 20.1002 461.406 19.3193C463.21 18.4977 465.171 18.0797 467.152 18.0947C468.644 18.099 470.127 18.3322 471.549 18.7861C472.993 19.2358 474.337 19.9607 475.506 20.9208C476.724 21.9457 477.709 23.2198 478.394 24.6572C479.188 26.3779 479.574 28.2582 479.523 30.1523H460.998V32.9784ZM471.047 25.0653C471.047 24.6053 471.026 24.0402 470.984 23.37C470.938 22.6818 470.789 22.0044 470.543 21.36C470.296 20.6945 469.872 20.1086 469.318 19.6647C468.637 19.1683 467.805 18.9244 466.964 18.9747C465.78 18.8983 464.608 19.2552 463.667 19.9787C462.882 20.664 462.288 21.5402 461.94 22.5226C461.553 23.5951 461.31 24.7142 461.218 25.8507C461.113 27.044 461.04 28.185 460.998 29.2736H471.047L471.047 25.0653Z" fill="#7F2E68"/>
<path d="M484.611 36.8084C485.113 37.9813 485.626 39.1118 486.149 40.2C486.64 41.2385 487.263 42.2094 488.002 43.0887C488.719 43.9304 489.594 44.6238 490.577 45.1297C491.731 45.6862 493.002 45.9556 494.282 45.9149C494.659 45.9149 495.161 45.8937 495.789 45.8514C496.437 45.8042 497.068 45.6226 497.642 45.3182C498.278 44.9769 498.819 44.4801 499.212 43.8739C499.702 43.0274 499.931 42.0552 499.871 41.0789C499.869 40.6867 499.816 40.2965 499.714 39.9178C499.582 39.4681 499.357 39.051 499.054 38.6932C498.635 38.2046 498.136 37.7906 497.579 37.4686C496.729 36.978 495.836 36.568 494.91 36.244L489.823 34.3592C489.175 34.1231 488.546 33.8398 487.939 33.5116C487.25 33.1422 486.625 32.6652 486.087 32.0985C485.5 31.482 485.023 30.7708 484.673 29.995C484.276 29.0742 484.083 28.0778 484.108 27.075C484.104 25.8824 484.361 24.7033 484.862 23.6209C485.362 22.5355 486.078 21.5633 486.965 20.7635C487.921 19.9139 489.029 19.2535 490.231 18.8172C491.568 18.3251 492.983 18.0802 494.407 18.0946C495.158 18.0899 495.906 18.1744 496.637 18.3465C497.328 18.5135 497.956 18.6912 498.521 18.8797C499.086 19.0682 499.589 19.2462 500.029 19.4139C500.357 19.5562 500.707 19.6411 501.065 19.6649C501.525 19.6649 501.819 19.5819 501.944 19.4139C502.073 19.24 502.178 19.0499 502.258 18.8485H503.137V26.5096H502.32C501.902 25.5047 501.473 24.5418 501.033 23.6209C500.624 22.7467 500.095 21.9331 499.463 21.203C498.846 20.5052 498.085 19.9483 497.233 19.5701C496.199 19.1436 495.086 18.9406 493.968 18.9744C492.622 18.9642 491.302 19.3459 490.169 20.0731C489.617 20.4074 489.165 20.8841 488.861 21.4533C488.557 22.0224 488.412 22.6629 488.441 23.3075C488.447 23.646 488.489 23.9829 488.567 24.3123C488.672 24.7347 488.865 25.1303 489.133 25.4735C489.516 25.9522 489.984 26.3566 490.514 26.6668C491.307 27.1425 492.15 27.5321 493.026 27.8289L498.364 29.6502C500.315 30.253 502.085 31.3321 503.514 32.7902C504.711 34.1589 505.34 35.9337 505.271 37.7511C505.291 39.0537 504.978 40.3396 504.362 41.4874C503.767 42.5822 502.955 43.544 501.975 44.3136C500.95 45.11 499.791 45.7163 498.553 46.1036C497.254 46.5219 495.898 46.7338 494.533 46.7315C493.711 46.7239 492.891 46.6399 492.084 46.4805C491.205 46.3125 490.358 46.1136 489.541 45.8838C488.725 45.654 487.981 45.4551 487.311 45.2871C486.799 45.1437 486.272 45.0591 485.741 45.0352C485.486 45.0126 485.231 45.0792 485.02 45.2237C484.83 45.4181 484.69 45.6552 484.611 45.9151H483.731V36.8086L484.611 36.8084Z" fill="#7F2E68"/>
<path d="M510.609 36.8084C511.111 37.9813 511.624 39.1118 512.147 40.2C512.638 41.2385 513.261 42.2094 514 43.0887C514.717 43.9304 515.592 44.6238 516.575 45.1297C517.729 45.6862 519 45.9556 520.28 45.9149C520.657 45.9149 521.159 45.8937 521.787 45.8514C522.435 45.8042 523.066 45.6226 523.64 45.3182C524.277 44.9769 524.817 44.48 525.21 43.8739C525.7 43.0274 525.929 42.0551 525.869 41.0789C525.867 40.6867 525.814 40.2965 525.712 39.9178C525.58 39.4681 525.356 39.051 525.053 38.693C524.634 38.2045 524.135 37.7904 523.578 37.4684C522.728 36.9778 521.835 36.5678 520.909 36.2438L515.822 34.359C515.174 34.1229 514.544 33.8396 513.938 33.5114C513.249 33.1421 512.624 32.665 512.085 32.0983C511.499 31.4818 511.021 30.7706 510.672 29.9948C510.274 29.074 510.081 28.0776 510.107 27.0748C510.103 25.8821 510.36 24.7031 510.861 23.6207C511.361 22.5353 512.076 21.563 512.964 20.7633C513.92 19.9137 515.028 19.2533 516.23 18.817C517.566 18.3249 518.981 18.0801 520.406 18.0944C521.156 18.0897 521.905 18.1742 522.636 18.3463C523.327 18.5133 523.955 18.691 524.52 18.8795C525.084 19.068 525.587 19.246 526.027 19.4137C526.356 19.556 526.706 19.6409 527.063 19.6647C527.523 19.6647 527.817 19.5817 527.942 19.4137C528.071 19.2398 528.177 19.0497 528.257 18.8483H529.136V26.5094H528.319C527.9 25.5045 527.471 24.5416 527.032 23.6207C526.622 22.7465 526.094 21.9329 525.462 21.2028C524.844 20.505 524.084 19.9481 523.232 19.5699C522.198 19.1434 521.085 18.9404 519.967 18.9742C518.62 18.964 517.3 19.3457 516.168 20.0729C515.616 20.4072 515.164 20.884 514.86 21.4531C514.556 22.0222 514.411 22.6627 514.44 23.3073C514.446 23.6458 514.488 23.9827 514.566 24.3121C514.671 24.7345 514.864 25.1301 515.132 25.4733C515.515 25.952 515.983 26.3565 516.512 26.6666C517.306 27.1423 518.149 27.5318 519.025 27.8287L524.363 29.65C526.314 30.2527 528.083 31.3319 529.512 32.79C530.71 34.1587 531.339 35.9335 531.27 37.7509C531.29 39.0535 530.976 40.3394 530.36 41.4872C529.765 42.5819 528.953 43.5435 527.973 44.313C526.949 45.1094 525.79 45.7157 524.551 46.103C523.253 46.5213 521.896 46.7332 520.532 46.7309C519.709 46.7234 518.889 46.6393 518.082 46.4799C517.203 46.3119 516.356 46.113 515.54 45.8832C514.723 45.6534 513.98 45.4545 513.31 45.2865C512.797 45.143 512.271 45.0585 511.74 45.0346C511.484 45.012 511.229 45.0786 511.018 45.2231C510.828 45.4175 510.688 45.6546 510.61 45.9145H509.73V36.808L510.609 36.8084Z" fill="#7F2E68"/>
</g>
<defs>
<filter id="filter0_d_1_491" x="-4.0004" y="0.636414" width="539.276" height="70.799" filterUnits="userSpaceOnUse" color-interpolation-filters="sRGB">
<feFlood flood-opacity="0" result="BackgroundImageFix"/>
<feColorMatrix in="SourceAlpha" type="matrix" values="0 0 0 0 0 0 0 0 0 0 0 0 0 0 0 0 0 0 127 0" result="hardAlpha"/>
<feOffset dy="4"/>
<feGaussianBlur stdDeviation="2"/>
<feComposite in2="hardAlpha" operator="out"/>
<feColorMatrix type="matrix" values="0 0 0 0 0 0 0 0 0 0 0 0 0 0 0 0 0 0 0.25 0"/>
<feBlend mode="normal" in2="BackgroundImageFix" result="effect1_dropShadow_1_491"/>
<feBlend mode="normal" in="SourceGraphic" in2="effect1_dropShadow_1_491" result="shape"/>
</filter>
</defs>
</svg>
