<svg width="81" height="72" viewBox="0 0 81 72" fill="none" xmlns="http://www.w3.org/2000/svg">
<path fill-rule="evenodd" clip-rule="evenodd" d="M40.2288 25.1706L65.6977 3.26916C68.8492 0.559129 73.3287 -1.27425 76.7493 1.08699C78.4527 2.26285 79.4652 3.7825 80.0186 5.31808C81.1505 8.45938 79.0437 11.576 76.512 13.753L51.7317 35.0623L76.1576 56.0668C79.3091 58.7768 81.7927 62.9312 79.9704 66.6669C79.0629 68.5272 77.7121 69.7559 76.2767 70.533C73.3404 72.1226 69.9434 70.5063 67.4117 68.3293L40.2288 44.954L13.1773 68.2163C10.6456 70.3934 7.2486 72.0097 4.31228 70.42C2.87688 69.6429 1.52603 68.4142 0.618553 66.5539C-1.20374 62.8182 1.27986 58.6638 4.43132 55.9538L28.7259 35.0623L4.07695 13.866C1.54526 11.6889 -0.561561 8.57235 0.570393 5.43106C1.12374 3.89547 2.13625 2.37583 3.83966 1.19997C7.26025 -1.16127 11.7398 0.672105 14.8912 3.38213L40.2288 25.1706Z" fill="white"/>
</svg>
