<svg width="532" height="131" viewBox="0 0 532 131" fill="none" xmlns="http://www.w3.org/2000/svg">
<path d="M16.1392 1.20201L27.0031 32.4754H27.1286L38.1817 1.20201H53.8809V2.08089H48.1031V45.035H53.8805V45.915H33.2831V45.035H38.9981V2.08089H38.8721L23.4238 45.9149H22.419L6.9077 2.08089H6.7822V45.035H12.5596V45.915H-0.000396729V45.035H5.777V2.08089H3.8147e-06V1.20201H16.1392Z" fill="#7F2E68"/>
<path d="M84.5581 46.4803C83.5296 46.6405 82.4906 46.7244 81.4497 46.7313C79.7903 46.8546 78.1336 46.4594 76.7085 45.6004C75.6818 44.8465 74.9935 43.7183 74.793 42.4604H74.6675C74.1991 43.8943 73.2142 45.1028 71.9043 45.851C70.2956 46.5198 68.5578 46.8205 66.8179 46.731C65.7843 46.7278 64.7536 46.6224 63.7407 46.4165C62.7345 46.2218 61.7615 45.8834 60.8516 45.4116C59.9883 44.9659 59.2534 44.3066 58.7168 43.4966C58.1513 42.6067 57.8668 41.5671 57.9004 40.5132C57.8629 39.4518 58.1124 38.3999 58.6226 37.4683C59.1005 36.6547 59.7419 35.9491 60.5064 35.396C61.3156 34.8125 62.2037 34.3473 63.1441 34.0142C64.127 33.6587 65.1422 33.3133 66.1895 32.9781C67.9058 32.4751 69.2979 32.046 70.3657 31.6909C71.2389 31.4256 72.0729 31.0454 72.8457 30.5601C73.3704 30.2312 73.7942 29.7638 74.0703 29.2095C74.3218 28.5925 74.4395 27.9291 74.4155 27.2632V23.433C74.4283 22.3522 74.1462 21.2883 73.5996 20.3558C73.2603 19.868 72.7947 19.4818 72.2526 19.2386C71.7105 18.9953 71.1124 18.9042 70.5225 18.9749C69.6397 18.9534 68.7688 19.1819 68.0103 19.6341C67.6333 19.9057 67.3355 20.2729 67.1479 20.698C66.9603 21.1231 66.8895 21.5906 66.9429 22.0521C66.9512 22.2729 66.9721 22.4929 67.0054 22.7113C67.0469 23.0246 67.0889 23.37 67.1314 23.7474C67.1724 24.1244 67.2142 24.4802 67.2568 24.8148C67.2891 25.0436 67.31 25.2739 67.3193 25.5048C67.3502 26.0333 67.1947 26.5558 66.8799 26.9814C66.6043 27.3241 66.2484 27.5934 65.8438 27.7656C65.4453 27.9338 65.02 28.0297 64.5879 28.0488C64.1484 28.0702 63.7813 28.08 63.4888 28.08C63.0581 28.0793 62.6279 28.0477 62.2017 27.9853C61.7852 27.9316 61.3872 27.7809 61.0396 27.5453C60.6839 27.293 60.3933 26.9596 60.1919 26.5727C59.9376 26.0448 59.819 25.4617 59.8467 24.8764C59.8331 23.8312 60.152 22.8087 60.7573 21.9564C61.3928 21.0725 62.219 20.3428 63.1748 19.8216C64.248 19.2305 65.4006 18.7967 66.5972 18.5335C67.9057 18.2375 69.2434 18.0901 70.585 18.0941C72.0899 18.087 73.5924 18.2131 75.075 18.471C76.3698 18.6815 77.6086 19.1516 78.7171 19.8529C79.7552 20.5371 80.5989 21.478 81.1663 22.5843C81.8187 23.9439 82.1312 25.4416 82.077 26.9486V42.523C82.0633 43.2393 82.1803 43.9522 82.4222 44.6265C82.6521 45.2339 83.2277 45.5376 84.1492 45.5376C84.6192 45.5556 85.0855 45.4471 85.4992 45.2232C85.8883 44.9858 86.238 44.6893 86.5358 44.3443L87.1008 44.9097C86.8166 45.3405 86.4418 45.7042 86.0027 45.9755C85.5636 46.2467 85.0706 46.419 84.5581 46.4803ZM74.2905 30.3403C74.1917 30.6141 74.0305 30.8611 73.8198 31.0619C73.4529 31.3831 73.0402 31.6477 72.5952 31.8471C71.7993 32.224 71.0039 32.5907 70.209 32.9471C69.4348 33.2897 68.7153 33.7446 68.0737 34.2971C67.4329 34.8587 66.9099 35.5419 66.5352 36.3071C66.1021 37.2732 65.8979 38.3263 65.9385 39.3842C65.9385 39.8862 65.9699 40.4725 66.0327 41.143C66.0954 41.8144 66.265 42.4715 66.5352 43.0893C66.8055 43.7158 67.2261 44.2659 67.7598 44.6909C68.4147 45.165 69.2134 45.3979 70.0205 45.35C70.5759 45.3471 71.1233 45.2183 71.6216 44.9731C72.1744 44.698 72.6576 44.301 73.0347 43.812C73.5006 43.1924 73.8419 42.4883 74.0396 41.7387C74.3103 40.7254 74.437 39.679 74.416 38.6303V30.3413L74.2905 30.3403Z" fill="#7F2E68"/>
<path d="M101.293 18.9744V24.2489H101.419C102.15 22.6888 103.186 21.2904 104.465 20.1356C105.869 18.939 107.676 18.3216 109.52 18.409C111.068 18.338 112.589 18.8412 113.79 19.8221C114.338 20.3125 114.77 20.9197 115.052 21.5989C115.335 22.2782 115.461 23.0122 115.423 23.7469C115.485 24.8083 115.161 25.8565 114.512 26.6981C114.134 27.0809 113.677 27.3751 113.172 27.5597C112.667 27.7443 112.127 27.8145 111.592 27.7655C110.678 27.7771 109.774 27.5727 108.955 27.1688C108.556 26.959 108.229 26.6346 108.016 26.2374C107.804 25.8403 107.715 25.3885 107.761 24.9403C107.769 24.7193 107.79 24.4989 107.824 24.2803C107.865 23.9668 107.919 23.6319 107.981 23.2764C108.044 22.9209 108.096 22.5957 108.138 22.3028C108.179 22.0098 108.201 21.8428 108.201 21.7998C108.175 21.5309 108.112 21.267 108.013 21.0157C107.92 20.8171 107.78 20.6443 107.604 20.5127C107.354 20.3484 107.056 20.2711 106.756 20.2927C106.189 20.3458 105.646 20.552 105.186 20.8894C104.496 21.348 103.899 21.9339 103.428 22.6159C102.837 23.4593 102.361 24.3784 102.015 25.3484C101.602 26.5063 101.4 27.7291 101.418 28.9584V45.035H106.38V45.915H89.6758V45.035H93.7578V19.853H89.6758V18.974L101.293 18.9744Z" fill="#7F2E68"/>
<path d="M128.359 18.9744V45.035H132.567V45.915H116.49V45.035H120.698V19.853H116.49V18.974L128.359 18.9744ZM121.389 2.33299C122.114 1.62233 123.062 1.18448 124.074 1.0938C125.085 1.00311 126.096 1.2652 126.936 1.83553C127.776 2.40585 128.392 3.24928 128.681 4.22261C128.97 5.19594 128.913 6.23917 128.52 7.17519C128.126 8.1112 127.421 8.8823 126.524 9.35756C125.627 9.83282 124.593 9.98294 123.598 9.78246C122.603 9.58197 121.708 9.04322 121.064 8.25768C120.421 7.47214 120.07 6.48824 120.07 5.47301C120.063 4.88725 120.177 4.30636 120.404 3.76628C120.631 3.2262 120.966 2.73839 121.389 2.33299Z" fill="#7F2E68"/>
<path d="M135.204 19.853V18.974H146.884V23.6205H147.01C148.307 19.9369 150.777 18.0948 154.42 18.0942C156.578 18.0316 158.718 18.5177 160.637 19.5072C162.278 20.3871 163.721 21.5947 164.876 23.0551C165.966 24.4437 166.796 26.0183 167.325 27.7026C167.823 29.2239 168.088 30.812 168.11 32.4126C168.117 36.0859 166.764 39.6317 164.311 42.3657C163.101 43.6975 161.639 44.7756 160.009 45.5376C158.259 46.3492 156.349 46.757 154.42 46.731C152.728 46.8121 151.069 46.2514 149.773 45.161C148.61 44.1295 147.707 42.8388 147.135 41.3934H147.01V62.5565H151.28V63.4354H135.204V62.5565H139.348V19.853H135.204ZM147.167 36.7768C147.256 38.2786 147.563 39.7594 148.077 41.1733C148.535 42.4672 149.301 43.6307 150.307 44.5639C151.456 45.5224 152.927 46.0056 154.42 45.9145C155.438 45.968 156.438 45.6309 157.215 44.9721C157.973 44.2309 158.516 43.2977 158.785 42.2721C159.175 40.8898 159.407 39.4675 159.475 38.0328C159.579 36.3795 159.631 34.5269 159.632 32.4752C159.65 30.347 159.556 28.2194 159.349 26.1012C159.234 24.6687 158.906 23.2613 158.376 21.9254C158.024 21.0161 157.412 20.2301 156.618 19.6647C155.804 19.1774 154.865 18.9376 153.917 18.9747C152.557 18.9059 151.224 19.3801 150.212 20.2931C149.262 21.2182 148.551 22.3603 148.14 23.6212C147.661 25.0449 147.356 26.521 147.23 28.0177C147.083 29.6085 147.01 31.0945 147.01 32.4757C147.01 33.7743 147.062 35.2077 147.167 36.7768Z" fill="#7F2E68"/>
<path d="M193.26 19.2567C195.057 19.99 196.706 21.0431 198.126 22.3651C199.499 23.6506 200.599 25.1989 201.361 26.9178C202.127 28.6595 202.523 30.5414 202.523 32.4441C202.523 34.3469 202.127 36.2288 201.361 37.9705C200.599 39.6899 199.499 41.2383 198.126 42.5233C196.71 43.8437 195.06 44.8874 193.26 45.6004C189.36 47.1082 185.039 47.1082 181.14 45.6004C179.34 44.8875 177.689 43.8437 176.273 42.523C174.9 41.2383 173.8 39.6898 173.039 37.9702C172.273 36.2285 171.877 34.3466 171.877 32.4438C171.877 30.5411 172.273 28.6592 173.039 26.9175C173.801 25.1983 174.901 23.65 176.273 22.3648C177.694 21.0426 179.343 19.9894 181.14 19.2564C185.031 17.707 189.368 17.7073 193.26 19.2567ZM191.03 44.7528C191.975 43.9424 192.681 42.8892 193.071 41.7069C193.538 40.3062 193.813 38.8485 193.887 37.3739C193.991 35.741 194.044 34.0874 194.044 32.4129C194.045 30.7384 193.993 29.0951 193.887 27.4829C193.811 26.0187 193.536 24.5716 193.071 23.1812C192.68 21.999 191.975 20.9459 191.03 20.1353C189.896 19.3782 188.563 18.9741 187.199 18.9741C185.836 18.9741 184.503 19.3782 183.369 20.1353C182.423 20.9456 181.718 21.9989 181.328 23.1812C180.862 24.5715 180.587 26.0186 180.511 27.4829C180.406 29.0952 180.354 30.7386 180.354 32.4129C180.354 34.0872 180.407 35.7409 180.511 37.3739C180.585 38.8486 180.86 40.3063 181.328 41.7069C181.717 42.8893 182.423 43.9426 183.369 44.7528C184.503 45.5105 185.836 45.9149 187.199 45.9149C188.563 45.9149 189.896 45.5105 191.03 44.7528Z" fill="#7F2E68"/>
<path d="M207.546 36.8084C208.049 37.9812 208.562 39.1118 209.085 40.2C209.576 41.2385 210.198 42.2094 210.938 43.0887C211.655 43.9305 212.529 44.6239 213.513 45.1297C214.666 45.6863 215.938 45.9557 217.218 45.9149C217.594 45.9149 218.097 45.8937 218.725 45.8514C219.372 45.8042 220.003 45.6226 220.577 45.3182C221.214 44.9767 221.754 44.4799 222.147 43.8739C222.637 43.0274 222.867 42.0551 222.806 41.0789C222.804 40.6867 222.751 40.2965 222.65 39.9178C222.517 39.4683 222.292 39.0512 221.99 38.6932C221.571 38.2045 221.072 37.7905 220.514 37.4686C219.665 36.978 218.771 36.568 217.845 36.244L212.758 34.3592C212.11 34.123 211.481 33.8397 210.874 33.5116C210.185 33.1425 209.56 32.6654 209.022 32.0985C208.436 31.482 207.958 30.7708 207.609 29.995C207.211 29.0742 207.018 28.0778 207.044 27.075C207.039 25.8824 207.296 24.7032 207.797 23.6209C208.297 22.5356 209.013 21.5634 209.901 20.7635C210.856 19.9138 211.964 19.2534 213.166 18.8172C214.503 18.3251 215.918 18.0802 217.343 18.0946C218.093 18.0899 218.842 18.1745 219.572 18.3465C220.263 18.5135 220.891 18.6912 221.456 18.8797C222.021 19.0681 222.524 19.2462 222.963 19.4139C223.292 19.5562 223.642 19.6411 223.999 19.6649C224.459 19.6649 224.753 19.5819 224.878 19.4139C225.007 19.24 225.113 19.0499 225.192 18.8485H226.072V26.5096H225.255C224.836 25.5047 224.407 24.5418 223.968 23.6209C223.558 22.7467 223.03 21.9331 222.398 21.203C221.78 20.5051 221.02 19.9482 220.168 19.5701C219.133 19.1437 218.021 18.9407 216.902 18.9744C215.556 18.9641 214.236 19.3459 213.103 20.0731C212.551 20.4074 212.1 20.8842 211.796 21.4533C211.492 22.0225 211.347 22.663 211.376 23.3075C211.381 23.646 211.423 23.9829 211.502 24.3123C211.607 24.7345 211.8 25.1299 212.067 25.4735C212.451 25.9521 212.919 26.3565 213.448 26.6668C214.242 27.1426 215.084 27.5322 215.96 27.8289L221.298 29.6502C223.249 30.2529 225.019 31.3321 226.448 32.7902C227.646 34.1587 228.275 35.9336 228.206 37.7511C228.226 39.0537 227.912 40.3397 227.296 41.4874C226.701 42.5821 225.889 43.5438 224.91 44.3136C223.885 45.1101 222.725 45.7164 221.487 46.1036C220.188 46.522 218.832 46.7338 217.468 46.7315C216.645 46.7239 215.825 46.6399 215.018 46.4805C214.139 46.3125 213.292 46.1136 212.475 45.8838C211.658 45.654 210.915 45.4551 210.246 45.2871C209.734 45.1437 209.207 45.0592 208.676 45.0352C208.421 45.0126 208.165 45.0793 207.954 45.2237C207.765 45.4185 207.625 45.6555 207.546 45.9151H206.667V36.8086L207.546 36.8084Z" fill="#7F2E68"/>
<path d="M259.198 46.4803C258.17 46.6405 257.131 46.7244 256.09 46.7313C254.43 46.8547 252.774 46.4595 251.349 45.6004C250.322 44.8464 249.634 43.7183 249.433 42.4604H249.308C248.839 43.8943 247.854 45.1028 246.544 45.851C244.936 46.5198 243.198 46.8205 241.458 46.731C240.424 46.7278 239.394 46.6224 238.381 46.4165C237.375 46.2218 236.402 45.8834 235.492 45.4116C234.628 44.9659 233.893 44.3066 233.357 43.4966C232.791 42.6067 232.507 41.5671 232.54 40.5132C232.503 39.4518 232.753 38.3999 233.263 37.4683C233.741 36.6547 234.382 35.9491 235.146 35.396C235.956 34.8125 236.844 34.3473 237.784 34.0142C238.767 33.6587 239.782 33.3133 240.83 32.9781C242.546 32.4751 243.938 32.046 245.006 31.6909C245.879 31.4257 246.713 31.0454 247.486 30.5601C248.011 30.2312 248.434 29.7638 248.711 29.2095C248.962 28.5925 249.08 27.9291 249.056 27.2632V23.433C249.069 22.3522 248.786 21.2883 248.24 20.3558C247.901 19.868 247.435 19.4818 246.893 19.2386C246.351 18.9953 245.753 18.9042 245.163 18.9749C244.28 18.9534 243.409 19.1819 242.65 19.6341C242.273 19.9057 241.976 20.2729 241.788 20.698C241.6 21.1231 241.53 21.5906 241.583 22.0521C241.591 22.2729 241.612 22.4929 241.646 22.7113C241.687 23.0246 241.729 23.37 241.772 23.7474C241.813 24.1244 241.854 24.4802 241.897 24.8148C241.938 25.1507 241.96 25.3802 241.96 25.5048C241.99 26.0334 241.835 26.5559 241.52 26.9814C241.244 27.3241 240.888 27.5935 240.484 27.7656C240.085 27.9338 239.66 28.0297 239.228 28.0488C238.788 28.0702 238.421 28.08 238.128 28.08C237.698 28.0793 237.268 28.0477 236.841 27.9853C236.425 27.9316 236.027 27.7809 235.679 27.5453C235.324 27.293 235.033 26.9596 234.832 26.5727C234.577 26.0448 234.459 25.4617 234.486 24.8764C234.473 23.8311 234.792 22.8086 235.397 21.9564C236.033 21.0725 236.859 20.3428 237.814 19.8216C238.888 19.2305 240.04 18.7967 241.237 18.5335C242.545 18.2375 243.883 18.0902 245.225 18.0941C246.73 18.087 248.232 18.2131 249.715 18.471C251.009 18.6815 252.248 19.1515 253.357 19.8529C254.395 20.5371 255.239 21.478 255.806 22.5843C256.458 23.9439 256.771 25.4416 256.717 26.9486V42.523C256.703 43.2393 256.82 43.9522 257.062 44.6265C257.292 45.2339 257.868 45.5376 258.789 45.5376C259.259 45.5556 259.725 45.447 260.139 45.2232C260.528 44.9858 260.878 44.6893 261.176 44.3443L261.74 44.9097C261.456 45.3405 261.082 45.7041 260.643 45.9754C260.204 46.2466 259.711 46.4189 259.198 46.4803ZM248.931 30.3403C248.832 30.6141 248.671 30.8611 248.46 31.0619C248.093 31.383 247.68 31.6477 247.235 31.8471C246.44 32.224 245.644 32.5907 244.849 32.9471C244.075 33.2897 243.355 33.7446 242.714 34.2971C242.073 34.8587 241.55 35.5419 241.175 36.3071C240.742 37.2732 240.538 38.3263 240.579 39.3842C240.579 39.8862 240.61 40.4725 240.673 41.143C240.736 41.8144 240.905 42.4715 241.175 43.0893C241.446 43.7158 241.866 44.2659 242.4 44.6909C243.055 45.165 243.854 45.3979 244.661 45.35C245.216 45.3471 245.763 45.2183 246.262 44.9731C246.815 44.6981 247.298 44.301 247.675 43.812C248.141 43.1924 248.482 42.4883 248.68 41.7387C248.95 40.7254 249.077 39.679 249.056 38.6303V30.3413L248.931 30.3403Z" fill="#7F2E68"/>
<path d="M296.971 1.20201V2.08089H292.387L303.69 35.1756H303.816L310.41 16.4618L305.512 2.08089H302.121V1.20201H320.897V2.08089H315.057L326.424 35.2391H326.549L338.167 2.08089H332.767V1.20201H344.322V2.08089H339.235L323.096 47.6102H321.275L310.976 17.9061H310.85L300.3 47.6102H298.479L282.904 2.08089H277.755V1.20201H296.971Z" fill="#7F2E68"/>
<path d="M353.489 32.9784C353.489 34.4851 353.552 36.0026 353.678 37.5311C353.779 38.959 354.118 40.36 354.683 41.6756C355.202 42.8797 356.024 43.929 357.069 44.7215C358.364 45.5897 359.909 46.009 361.465 45.9149C362.935 45.9616 364.393 45.6375 365.704 44.9725C366.762 44.4163 367.718 43.6839 368.529 42.8065C369.195 42.0899 369.746 41.2741 370.162 40.3885C370.44 39.8322 370.641 39.2404 370.759 38.6297L371.639 38.9442C371.39 39.8332 371.031 40.6875 370.57 41.4871C370.029 42.437 369.328 43.2866 368.498 43.9989C367.528 44.8287 366.424 45.4872 365.232 45.9461C363.727 46.5052 362.128 46.7718 360.522 46.7313C358.452 46.7482 356.394 46.4191 354.432 45.7576C352.618 45.1496 350.943 44.1892 349.502 42.9315C348.087 41.6819 346.962 40.1388 346.205 38.41C345.382 36.4974 344.975 34.4317 345.011 32.35C345.015 30.5319 345.4 28.7348 346.141 27.0746C346.883 25.3756 347.938 23.8312 349.251 22.5219C350.595 21.1846 352.169 20.0997 353.897 19.3188C355.701 18.4972 357.662 18.0792 359.643 18.0942C361.136 18.0985 362.618 18.3317 364.04 18.7856C365.484 19.2351 366.827 19.96 367.996 20.9203C369.215 21.9447 370.2 23.2188 370.885 24.6567C371.679 26.377 372.066 28.2576 372.015 30.1518H353.489V32.9784ZM363.537 25.0653C363.537 24.6053 363.516 24.0402 363.475 23.37C363.429 22.6819 363.28 22.0045 363.035 21.36C362.786 20.6953 362.363 20.1097 361.811 19.6647C361.129 19.1684 360.297 18.9245 359.455 18.9747C358.271 18.8983 357.099 19.2552 356.158 19.9787C355.373 20.664 354.779 21.5402 354.432 22.5226C354.044 23.595 353.801 24.7142 353.709 25.8507C353.604 27.044 353.531 28.185 353.489 29.2736H363.537V25.0653Z" fill="#7F2E68"/>
<path d="M387.589 0.636581V45.035H391.797V45.915H375.72V45.035H379.928V1.5164H375.72V0.636398L387.589 0.636581Z" fill="#7F2E68"/>
<path d="M406.616 0.636581V45.035H410.824V45.915H394.747V45.035H398.955V1.5164H394.747V0.636398L406.616 0.636581Z" fill="#7F2E68"/>
<path d="M418.296 45.035V19.853H414.151V18.974H425.832V25.2533H425.958C426.124 24.8764 426.417 24.3009 426.837 23.5268C427.319 22.6711 427.933 21.8975 428.658 21.2348C429.566 20.4078 430.606 19.739 431.735 19.2563C433.228 18.646 434.833 18.3571 436.445 18.4086C437.625 18.3374 438.807 18.5128 439.915 18.9236C441.023 19.3344 442.034 19.9715 442.882 20.7944C443.674 21.6791 444.284 22.7113 444.678 23.832C445.071 24.9526 445.24 26.1398 445.174 27.3256V45.0346H449.382V45.9146H433.619V45.0346H437.513V25.1912C437.628 23.8178 437.249 22.4484 436.446 21.3289C436.086 20.9223 435.64 20.6013 435.14 20.3894C434.64 20.1775 434.099 20.0801 433.557 20.1043C432.549 20.105 431.557 20.3532 430.667 20.827C429.702 21.3478 428.873 22.0901 428.25 22.993C427.499 24.0845 426.936 25.2947 426.586 26.573C426.14 28.2092 425.928 29.9006 425.958 31.5964V45.035H429.914V45.915H414.151V45.035H418.296Z" fill="#7F2E68"/>
<path d="M460.998 32.9784C460.998 34.4851 461.061 36.0026 461.186 37.5311C461.287 38.959 461.627 40.36 462.191 41.6756C462.711 42.8797 463.533 43.929 464.578 44.7215C465.873 45.5898 467.418 46.0091 468.975 45.9149C470.444 45.9618 471.902 45.6379 473.213 44.973C474.271 44.4169 475.227 43.6844 476.039 42.807C476.705 42.0898 477.256 41.2742 477.672 40.389C477.951 39.8329 478.151 39.241 478.268 38.6302L479.147 38.9447C478.899 39.8336 478.541 40.6879 478.08 41.4876C477.538 42.4372 476.837 43.2868 476.008 43.9994C475.038 44.829 473.934 45.4875 472.742 45.9466C471.236 46.5057 469.637 46.7721 468.031 46.7318C465.961 46.7487 463.902 46.4196 461.941 45.7581C460.127 45.1501 458.452 44.1897 457.011 42.932C455.596 41.6823 454.471 40.1394 453.714 38.4105C452.891 36.4979 452.484 34.4323 452.52 32.3505C452.524 30.5324 452.909 28.7353 453.65 27.0751C454.392 25.376 455.447 23.8316 456.76 22.5224C458.104 21.1851 459.678 20.1002 461.406 19.3193C463.21 18.4976 465.171 18.0797 467.152 18.0947C468.644 18.099 470.127 18.3321 471.549 18.7861C472.993 19.2358 474.337 19.9607 475.506 20.9208C476.724 21.9457 477.709 23.2198 478.394 24.6572C479.188 26.3779 479.574 28.2582 479.523 30.1523H460.998V32.9784ZM471.047 25.0653C471.047 24.6053 471.026 24.0402 470.984 23.37C470.938 22.6818 470.789 22.0044 470.543 21.36C470.296 20.6945 469.872 20.1086 469.318 19.6647C468.637 19.1683 467.805 18.9243 466.964 18.9747C465.78 18.8983 464.608 19.2552 463.667 19.9787C462.882 20.664 462.288 21.5402 461.94 22.5226C461.553 23.595 461.31 24.7142 461.218 25.8507C461.113 27.044 461.04 28.185 460.998 29.2736H471.047L471.047 25.0653Z" fill="#7F2E68"/>
<path d="M484.611 36.8084C485.113 37.9812 485.626 39.1118 486.149 40.2C486.64 41.2385 487.263 42.2094 488.002 43.0887C488.719 43.9304 489.594 44.6237 490.577 45.1297C491.731 45.6862 493.002 45.9556 494.282 45.9149C494.659 45.9149 495.161 45.8937 495.789 45.8514C496.437 45.8042 497.068 45.6226 497.642 45.3182C498.278 44.9769 498.819 44.4801 499.212 43.8739C499.702 43.0274 499.931 42.0551 499.871 41.0789C499.869 40.6867 499.816 40.2964 499.714 39.9178C499.582 39.4681 499.357 39.051 499.054 38.6932C498.635 38.2046 498.136 37.7906 497.579 37.4686C496.729 36.978 495.836 36.568 494.91 36.244L489.823 34.3592C489.175 34.1231 488.546 33.8398 487.939 33.5116C487.25 33.1422 486.625 32.6652 486.087 32.0985C485.5 31.482 485.023 30.7708 484.673 29.995C484.276 29.0742 484.083 28.0778 484.108 27.075C484.104 25.8824 484.361 24.7033 484.862 23.6209C485.362 22.5355 486.078 21.5633 486.965 20.7635C487.921 19.9139 489.029 19.2534 490.231 18.8172C491.568 18.3251 492.983 18.0802 494.407 18.0946C495.158 18.0899 495.906 18.1744 496.637 18.3465C497.328 18.5135 497.956 18.6912 498.521 18.8797C499.086 19.0681 499.589 19.2462 500.029 19.4139C500.357 19.5562 500.707 19.6411 501.065 19.6649C501.525 19.6649 501.819 19.5819 501.944 19.4139C502.073 19.24 502.178 19.0499 502.258 18.8485H503.137V26.5096H502.32C501.902 25.5047 501.473 24.5418 501.033 23.6209C500.624 22.7467 500.095 21.9331 499.463 21.203C498.846 20.5051 498.085 19.9483 497.233 19.5701C496.199 19.1436 495.086 18.9406 493.968 18.9744C492.622 18.9642 491.302 19.3459 490.169 20.0731C489.617 20.4074 489.165 20.8841 488.861 21.4532C488.557 22.0224 488.412 22.6629 488.441 23.3075C488.447 23.646 488.489 23.9829 488.567 24.3123C488.672 24.7347 488.865 25.1303 489.133 25.4735C489.516 25.9522 489.984 26.3566 490.514 26.6668C491.307 27.1425 492.15 27.532 493.026 27.8289L498.364 29.6502C500.315 30.253 502.085 31.3321 503.514 32.7902C504.711 34.1589 505.34 35.9337 505.271 37.7511C505.291 39.0536 504.978 40.3396 504.362 41.4874C503.767 42.5822 502.955 43.544 501.975 44.3136C500.95 45.11 499.791 45.7163 498.553 46.1036C497.254 46.5219 495.898 46.7338 494.533 46.7315C493.711 46.7239 492.891 46.6399 492.084 46.4805C491.205 46.3125 490.358 46.1136 489.541 45.8838C488.725 45.654 487.981 45.4551 487.311 45.2871C486.799 45.1436 486.272 45.0591 485.741 45.0352C485.486 45.0126 485.231 45.0792 485.02 45.2237C484.83 45.4181 484.69 45.6552 484.611 45.9151H483.731V36.8086L484.611 36.8084Z" fill="#7F2E68"/>
<path d="M510.609 36.8084C511.111 37.9812 511.624 39.1118 512.147 40.2C512.638 41.2385 513.261 42.2094 514 43.0887C514.717 43.9304 515.592 44.6237 516.575 45.1297C517.729 45.6862 519 45.9556 520.28 45.9149C520.657 45.9149 521.159 45.8937 521.787 45.8514C522.435 45.8042 523.066 45.6226 523.64 45.3182C524.277 44.9769 524.817 44.48 525.21 43.8739C525.7 43.0274 525.929 42.0551 525.869 41.0789C525.867 40.6867 525.814 40.2964 525.712 39.9178C525.58 39.4681 525.356 39.0509 525.053 38.693C524.634 38.2045 524.135 37.7904 523.578 37.4684C522.728 36.9778 521.835 36.5678 520.909 36.2438L515.822 34.359C515.174 34.1229 514.544 33.8396 513.938 33.5114C513.249 33.142 512.624 32.665 512.085 32.0983C511.499 31.4818 511.021 30.7706 510.672 29.9948C510.274 29.074 510.081 28.0776 510.107 27.0748C510.103 25.8821 510.36 24.7031 510.861 23.6207C511.361 22.5352 512.076 21.563 512.964 20.7633C513.92 19.9137 515.028 19.2533 516.23 18.817C517.566 18.3249 518.981 18.08 520.406 18.0944C521.156 18.0897 521.905 18.1742 522.636 18.3463C523.327 18.5133 523.955 18.691 524.52 18.8795C525.084 19.068 525.587 19.246 526.027 19.4137C526.356 19.5559 526.706 19.6409 527.063 19.6647C527.523 19.6647 527.817 19.5817 527.942 19.4137C528.071 19.2398 528.177 19.0497 528.257 18.8483H529.136V26.5094H528.319C527.9 25.5045 527.471 24.5416 527.032 23.6207C526.622 22.7465 526.094 21.9329 525.462 21.2028C524.844 20.505 524.084 19.9481 523.232 19.5699C522.198 19.1434 521.085 18.9404 519.967 18.9742C518.62 18.964 517.3 19.3457 516.168 20.0729C515.616 20.4072 515.164 20.884 514.86 21.4531C514.556 22.0222 514.411 22.6627 514.44 23.3073C514.446 23.6458 514.488 23.9827 514.566 24.3121C514.671 24.7345 514.864 25.1301 515.132 25.4733C515.515 25.952 515.983 26.3564 516.512 26.6666C517.306 27.1423 518.149 27.5318 519.025 27.8287L524.363 29.65C526.314 30.2527 528.083 31.3319 529.512 32.79C530.71 34.1586 531.339 35.9335 531.27 37.7509C531.29 39.0535 530.976 40.3394 530.36 41.4872C529.765 42.5819 528.953 43.5435 527.973 44.313C526.949 45.1094 525.79 45.7157 524.551 46.103C523.253 46.5213 521.896 46.7332 520.532 46.7309C519.709 46.7233 518.889 46.6393 518.082 46.4799C517.203 46.3119 516.356 46.113 515.54 45.8832C514.723 45.6534 513.98 45.4545 513.31 45.2865C512.797 45.143 512.271 45.0585 511.74 45.0346C511.484 45.0119 511.229 45.0786 511.018 45.2231C510.828 45.4175 510.688 45.6546 510.61 45.9145H509.73V36.808L510.609 36.8084Z" fill="#7F2E68"/>
<path d="M57.041 62.9403V63.4285H53.831V87.2918H57.041V87.7801H45.5631V87.2918H48.7726V63.4285H45.5631V62.9403H57.041Z" fill="#7F2E68"/>
<path d="M61.751 87.2918V73.3018H59.4483V72.813H65.9375V76.3013H66.0075C66.0998 76.0923 66.2625 75.7726 66.4958 75.3423C66.7636 74.867 67.1051 74.4372 67.5075 74.0689C68.0118 73.6093 68.5899 73.2379 69.2175 72.9702C70.0469 72.6308 70.9385 72.4702 71.8342 72.4986C72.4897 72.4591 73.1463 72.5566 73.762 72.7849C74.3777 73.0132 74.9391 73.3674 75.4104 73.8247C75.8506 74.3162 76.1895 74.8896 76.4079 75.5122C76.6263 76.1347 76.7198 76.7943 76.6831 77.453V87.2918H79.0205V87.7801H70.2637V87.2918H72.4268V76.2674C72.4907 75.5044 72.2803 74.7437 71.8335 74.1219C71.6338 73.8958 71.386 73.7173 71.1082 73.5995C70.8305 73.4817 70.5299 73.4276 70.2285 73.4412C69.6689 73.4416 69.1179 73.5794 68.624 73.8426C68.0876 74.1321 67.6274 74.5443 67.2808 75.0457C66.8632 75.6523 66.5506 76.3247 66.356 77.035C66.1079 77.9441 65.9905 78.8838 66.0073 79.826V87.2918H68.2051V87.7801H59.4483V87.2918H61.751Z" fill="#7F2E68"/>
<path d="M84.1309 68.661C84.828 68.8471 85.5617 68.8471 86.2588 68.661C86.6209 68.5682 86.9765 68.4517 87.3233 68.3123V72.8133H91.4048V73.3016H87.3231V84.9891C87.3212 85.3159 87.3443 85.6424 87.3924 85.9657C87.4336 86.2516 87.522 86.5288 87.6541 86.7857C87.7802 87.0278 87.9744 87.2278 88.2127 87.3609C88.5088 87.5128 88.8392 87.5852 89.1717 87.5709C89.5682 87.5826 89.9603 87.4861 90.306 87.2916C90.6207 87.105 90.8986 86.8624 91.126 86.5758C91.3649 86.274 91.5588 85.9391 91.7017 85.5817C91.8461 85.2293 91.9684 84.8682 92.0679 84.5006L92.5913 84.6051C92.4949 85.2836 92.2507 85.9327 91.876 86.5065C91.5741 86.9499 91.1817 87.3243 90.7246 87.6051C90.3011 87.8586 89.8336 88.0302 89.3467 88.111C88.8857 88.1903 88.4189 88.2311 87.9512 88.233C86.9969 88.2746 86.0435 88.1327 85.1426 87.8151C84.5701 87.602 84.0644 87.2408 83.6773 86.7682C83.3731 86.3745 83.1856 85.9033 83.1362 85.4082C83.0895 84.92 83.0664 84.4662 83.0669 84.0469V73.3016H80.729V72.813H83.0669V68.312C83.4135 68.4517 83.7689 68.5683 84.1309 68.661Z" fill="#7F2E68"/>
<path d="M97.9639 80.5936C97.9639 81.4305 97.9987 82.2737 98.0684 83.1229C98.1246 83.9163 98.3133 84.6946 98.6265 85.4256C98.9152 86.0943 99.3719 86.6769 99.9522 87.117C100.672 87.5995 101.53 87.8325 102.395 87.7801C103.211 87.806 104.021 87.626 104.75 87.2567C105.337 86.9477 105.868 86.5408 106.32 86.0535C106.689 85.6551 106.995 85.2018 107.227 84.7098C107.381 84.4008 107.493 84.0723 107.558 83.7332L108.047 83.9071C107.909 84.401 107.709 84.8757 107.453 85.3201C107.152 85.8479 106.763 86.32 106.302 86.7157C105.763 87.1766 105.15 87.5425 104.488 87.7977C103.651 88.1079 102.763 88.2558 101.871 88.2332C100.721 88.2429 99.5772 88.0604 98.487 87.6932C97.4797 87.3554 96.5491 86.8219 95.7487 86.1232C94.963 85.4289 94.3378 84.5718 93.9167 83.6115C93.4599 82.5487 93.2341 81.401 93.2541 80.2443C93.2562 79.2343 93.4701 78.2358 93.8821 77.3136C94.2943 76.3698 94.8801 75.5118 95.6091 74.7843C96.3564 74.0417 97.2307 73.4391 98.1906 73.005C99.1926 72.5488 100.282 72.3168 101.383 72.325C102.212 72.3274 103.035 72.4568 103.825 72.7088C104.627 72.9585 105.374 73.3611 106.023 73.8944C106.701 74.4636 107.248 75.1716 107.628 75.9705C108.069 76.9263 108.284 77.971 108.256 79.0233H97.9641L97.9639 80.5936ZM103.546 76.1971C103.546 75.9412 103.534 75.6274 103.511 75.2557C103.485 74.8733 103.403 74.4968 103.267 74.1385C103.129 73.7693 102.894 73.4441 102.587 73.1971C102.208 72.921 101.746 72.7853 101.278 72.8133C100.62 72.7712 99.9693 72.9693 99.4465 73.3709C99.0106 73.7518 98.6802 74.2384 98.487 74.784C98.272 75.3802 98.1372 76.0023 98.0862 76.634C98.0276 77.2971 97.9869 77.9309 97.9641 78.5354H103.546L103.546 76.1971Z" fill="#7F2E68"/>
<path d="M121.565 85.5643C122.32 85.7195 123.037 86.0219 123.676 86.4543C124.295 86.8904 124.798 87.4714 125.141 88.1467C125.54 88.9783 125.731 89.894 125.699 90.8157C125.698 91.7285 125.508 92.6311 125.141 93.467C124.76 94.3399 124.201 95.124 123.501 95.7698C122.741 96.4695 121.861 97.0252 120.902 97.4098C119.797 97.8458 118.618 98.0591 117.43 98.0377C116.242 98.0788 115.056 97.9137 113.924 97.5495C113.182 97.3015 112.5 96.9036 111.918 96.3805C111.5 96.0015 111.188 95.5207 111.011 94.985C110.886 94.5956 110.816 94.1907 110.802 93.7819C110.791 93.1965 110.935 92.6186 111.22 92.1071C111.502 91.6161 111.875 91.1838 112.319 90.8336C112.781 90.4674 113.285 90.157 113.819 89.9088C114.341 89.6621 114.884 89.4637 115.442 89.3161V89.2461C114.908 89.239 114.377 89.1808 113.854 89.0722C113.275 88.9601 112.716 88.7603 112.197 88.4795C111.685 88.1996 111.243 87.8057 110.906 87.3281C110.544 86.7941 110.361 86.1587 110.383 85.5136C110.395 85.3023 110.424 85.0923 110.47 84.8857C110.554 84.514 110.689 84.1557 110.871 83.8212C111.127 83.3521 111.451 82.9231 111.831 82.5478C112.342 82.0468 112.924 81.6237 113.558 81.292C113.349 81.1298 113.116 80.9381 112.861 80.7168C112.596 80.4868 112.356 80.2295 112.145 79.9492C111.913 79.6393 111.726 79.2988 111.587 78.9375C111.428 78.5077 111.351 78.0519 111.361 77.5937C111.357 76.8861 111.519 76.1875 111.831 75.5527C112.153 74.9039 112.611 74.3325 113.174 73.8779C113.814 73.3709 114.541 72.9865 115.32 72.7441C116.24 72.455 117.2 72.3139 118.164 72.3261C119.089 72.3036 120.009 72.4698 120.867 72.8144C121.558 73.1024 122.209 73.4775 122.804 73.9306C123.282 73.4738 123.809 73.0701 124.374 72.7265C124.945 72.4354 125.582 72.2975 126.223 72.3265C126.497 72.3056 126.772 72.3395 127.033 72.4264C127.293 72.5133 127.534 72.6513 127.74 72.8324C127.909 73.0044 128.041 73.2091 128.128 73.434C128.215 73.6588 128.256 73.8991 128.246 74.14C128.257 74.3424 128.226 74.5449 128.154 74.7343C128.082 74.9238 127.971 75.096 127.828 75.24C127.677 75.3771 127.501 75.4832 127.31 75.552C127.118 75.6209 126.915 75.6513 126.711 75.6414C126.443 75.652 126.175 75.6042 125.926 75.5014C125.752 75.426 125.597 75.3125 125.473 75.1694C125.371 75.0486 125.299 74.9053 125.264 74.7514C125.228 74.6001 125.199 74.478 125.176 74.3842C125.145 74.1374 125.098 73.8928 125.036 73.6518C124.989 73.4897 124.838 73.4077 124.583 73.4077C124.409 73.4182 124.241 73.4723 124.094 73.5649C123.908 73.6694 123.582 73.8846 123.118 74.2104C123.452 74.5861 123.755 74.9885 124.024 75.4135C124.39 76.0791 124.56 76.8349 124.513 77.593C124.511 78.1845 124.399 78.7703 124.182 79.3205C123.944 79.9136 123.574 80.4444 123.1 80.8723C122.537 81.3755 121.878 81.761 121.163 82.0061C120.22 82.3216 119.228 82.4693 118.234 82.4426C117.399 82.454 116.567 82.3602 115.757 82.1633C115.152 82.015 114.558 81.8288 113.977 81.6057C113.483 81.8641 113.071 82.2572 112.791 82.7395C112.682 83.0118 112.623 83.3011 112.616 83.594C112.602 83.8527 112.659 84.1103 112.782 84.3383C112.906 84.5662 113.09 84.7555 113.314 84.885C113.893 85.1911 114.544 85.3355 115.198 85.303H119.036C119.886 85.2997 120.734 85.3873 121.565 85.5643ZM114.116 94.5828C114.244 95.1127 114.489 95.6071 114.833 96.0298C115.178 96.4525 115.612 96.7926 116.105 97.0252C116.784 97.3295 117.524 97.4728 118.268 97.4442C118.924 97.4471 119.574 97.3289 120.187 97.0955C121.371 96.6518 122.336 95.7627 122.874 94.618C123.157 94.0183 123.3 93.3622 123.292 92.6991C123.317 92.1151 123.197 91.5341 122.943 91.0076C122.741 90.6155 122.455 90.2729 122.105 90.0044C121.755 89.736 121.35 89.5483 120.919 89.4549C120.542 89.3663 120.156 89.3193 119.768 89.3149H116.14C115.521 89.7914 114.974 90.3556 114.518 90.9897C114.103 91.6581 113.903 92.4368 113.942 93.2221C113.947 93.681 114.005 94.1376 114.116 94.5828ZM119.105 81.7967C119.445 81.6822 119.738 81.4622 119.943 81.1688C120.215 80.7577 120.399 80.2946 120.483 79.8088C120.626 79.044 120.691 78.2667 120.675 77.4888C120.675 76.814 120.652 76.192 120.605 75.6226C120.573 75.1122 120.455 74.6108 120.257 74.1392C120.089 73.7432 119.81 73.404 119.454 73.1626C119.01 72.9058 118.501 72.7846 117.989 72.814C117.486 72.793 116.989 72.9203 116.559 73.1802C116.193 73.4174 115.897 73.7486 115.704 74.1392C115.496 74.568 115.361 75.0279 115.303 75.5005C115.232 76.0207 115.197 76.545 115.198 77.0699C115.179 77.9471 115.249 78.824 115.407 79.6871C115.497 80.215 115.693 80.7192 115.983 81.1695C116.194 81.4833 116.509 81.7121 116.873 81.815C117.237 81.9101 117.613 81.9572 117.989 81.955C118.367 81.9603 118.744 81.9069 119.105 81.7967Z" fill="#7F2E68"/>
<path d="M135.258 72.813V75.7437H135.328C135.734 74.8768 136.31 74.0999 137.02 73.4585C137.8 72.7933 138.805 72.45 139.829 72.4985C140.689 72.4591 141.534 72.7386 142.201 73.2836C142.506 73.5561 142.746 73.8935 142.903 74.2709C143.059 74.6483 143.13 75.0562 143.108 75.4643C143.143 76.0541 142.963 76.6365 142.602 77.1043C142.393 77.3168 142.138 77.4802 141.858 77.5827C141.577 77.6852 141.278 77.7243 140.98 77.6971C140.472 77.7039 139.97 77.5904 139.515 77.366C139.293 77.2494 139.112 77.0692 138.994 76.8485C138.876 76.6278 138.826 76.3768 138.852 76.1278C138.856 76.0052 138.868 75.8829 138.887 75.7616C138.91 75.5868 138.939 75.4016 138.974 75.203C139.008 75.0044 139.038 74.825 139.061 74.6619C139.085 74.4988 139.096 74.4061 139.096 74.3826C139.082 74.2333 139.046 74.0867 138.991 73.9471C138.94 73.8368 138.862 73.7409 138.765 73.6678C138.625 73.5768 138.46 73.5339 138.294 73.5457C137.978 73.575 137.677 73.6895 137.422 73.8768C137.038 74.1318 136.706 74.4576 136.445 74.8368C136.116 75.3053 135.852 75.8157 135.66 76.3543C135.43 76.9976 135.318 77.6771 135.328 78.3602V87.2918H138.084V87.7801H128.804V87.2918H131.072V73.3018H128.804V72.813H135.258Z" fill="#7F2E68"/>
<path d="M158.72 88.0946C158.149 88.1831 157.571 88.2295 156.993 88.2332C156.071 88.3018 155.151 88.0824 154.359 87.6053C153.789 87.1866 153.406 86.5599 153.295 85.8612H153.225C152.965 86.6579 152.418 87.3294 151.69 87.745C150.796 88.1166 149.831 88.2834 148.864 88.2332C148.29 88.2318 147.717 88.1736 147.155 88.0594C146.596 87.9509 146.055 87.7628 145.55 87.5008C145.07 87.2532 144.662 86.8871 144.364 86.4373C144.049 85.943 143.891 85.3655 143.91 84.7801C143.889 84.1901 144.028 83.6054 144.311 83.0877C144.577 82.636 144.933 82.244 145.358 81.9364C145.807 81.6122 146.301 81.3537 146.823 81.1688C147.369 80.9715 147.933 80.7798 148.515 80.5936C149.468 80.3143 150.242 80.0757 150.835 79.8778C151.32 79.7308 151.784 79.5196 152.213 79.2498C152.504 79.0671 152.74 78.8076 152.894 78.4998C153.033 78.1571 153.099 77.7887 153.085 77.4188V75.2899C153.092 74.6896 152.936 74.0987 152.632 73.5809C152.443 73.3098 152.185 73.0951 151.884 72.9598C151.582 72.8246 151.25 72.774 150.922 72.8133C150.432 72.8013 149.948 72.9282 149.527 73.1795C149.317 73.3303 149.152 73.5342 149.048 73.7703C148.943 74.0063 148.904 74.2659 148.934 74.5223C148.938 74.6449 148.95 74.7672 148.968 74.8885C148.991 75.0633 149.014 75.2554 149.038 75.4647C149.061 75.6737 149.085 75.8719 149.108 76.0575C149.126 76.1847 149.138 76.3128 149.143 76.4412C149.16 76.7348 149.074 77.0249 148.899 77.2612C148.746 77.4514 148.548 77.601 148.323 77.6967C148.102 77.7903 147.866 77.8435 147.625 77.8539C147.381 77.8656 147.178 77.8714 147.015 77.8715C146.776 77.871 146.537 77.8534 146.3 77.8188C146.069 77.7892 145.848 77.7055 145.654 77.5746C145.457 77.4345 145.296 77.2494 145.184 77.0346C145.043 76.7413 144.977 76.4174 144.992 76.0922C144.984 75.5116 145.161 74.9435 145.498 74.4701C145.851 73.9792 146.31 73.5737 146.841 73.2836C147.437 72.9555 148.078 72.7148 148.742 72.5688C149.469 72.4039 150.212 72.322 150.958 72.3246C151.794 72.3204 152.629 72.3904 153.452 72.5336C154.172 72.6505 154.86 72.9116 155.476 73.3012C156.052 73.6813 156.521 74.2041 156.836 74.8188C157.198 75.5742 157.372 76.4063 157.342 77.2436V85.8959C157.334 86.2939 157.399 86.6901 157.534 87.0649C157.661 87.4018 157.981 87.5704 158.493 87.5707C158.754 87.5804 159.013 87.5201 159.243 87.3959C159.459 87.2638 159.654 87.0991 159.819 86.9076L160.133 87.2211C159.975 87.4606 159.767 87.6629 159.523 87.8138C159.279 87.9646 159.005 88.0605 158.72 88.0946ZM153.016 79.1278C152.961 79.28 152.872 79.4174 152.754 79.5291C152.55 79.7072 152.321 79.8543 152.074 79.9657C151.632 80.1746 151.19 80.378 150.748 80.5757C150.318 80.766 149.918 81.0187 149.562 81.3257C149.206 81.6376 148.915 82.017 148.707 82.4419C148.467 82.9789 148.353 83.564 148.376 84.1519C148.376 84.4302 148.393 84.7564 148.428 85.1284C148.463 85.5013 148.557 85.8663 148.707 86.2095C148.857 86.5577 149.091 86.8634 149.388 87.0995C149.751 87.363 150.195 87.4924 150.644 87.4658C150.952 87.4645 151.257 87.393 151.534 87.2568C151.841 87.1038 152.109 86.883 152.319 86.6113C152.578 86.2672 152.767 85.8762 152.877 85.4599C153.028 84.8971 153.098 84.3158 153.086 83.7333V79.1279L153.016 79.1278Z" fill="#7F2E68"/>
<path d="M164.721 68.661C165.418 68.8471 166.152 68.8471 166.849 68.661C167.211 68.5682 167.566 68.4517 167.913 68.3123V72.8133H171.995V73.3016H167.913V84.9891C167.911 85.3159 167.934 85.6424 167.982 85.9657C168.024 86.2517 168.112 86.5288 168.244 86.7857C168.37 87.0278 168.564 87.2278 168.803 87.3609C169.099 87.5128 169.429 87.5852 169.762 87.5709C170.158 87.5826 170.55 87.4861 170.896 87.2916C171.211 87.1051 171.489 86.8624 171.716 86.5758C171.955 86.274 172.149 85.9392 172.292 85.5817C172.436 85.2293 172.558 84.8682 172.658 84.5006L173.181 84.6051C173.085 85.2836 172.841 85.9327 172.466 86.5065C172.164 86.9499 171.772 87.3243 171.315 87.6051C170.891 87.8586 170.424 88.0302 169.937 88.111C169.476 88.1903 169.009 88.2311 168.541 88.233C167.587 88.2746 166.633 88.1327 165.733 87.8151C165.16 87.602 164.654 87.2407 164.267 86.7682C163.963 86.3745 163.776 85.9033 163.726 85.4082C163.68 84.92 163.657 84.4662 163.657 84.0469V73.3016H161.319V72.813H163.657V68.312C164.003 68.4516 164.359 68.5682 164.721 68.661Z" fill="#7F2E68"/>
<path d="M180.472 72.813V87.2915H182.81V87.7798H173.878V87.2915H176.216V73.3015H173.878V72.813H180.472ZM176.6 63.5679C177.002 63.1728 177.53 62.9294 178.091 62.8789C178.653 62.8283 179.215 62.9739 179.682 63.2907C180.149 63.6076 180.492 64.0762 180.652 64.6171C180.813 65.158 180.781 65.7377 180.563 66.2579C180.344 66.7781 179.952 67.2067 179.454 67.4708C178.955 67.7349 178.381 67.8184 177.828 67.707C177.275 67.5955 176.777 67.2961 176.42 66.8596C176.062 66.423 175.867 65.8762 175.867 65.312C175.864 64.9867 175.927 64.6641 176.053 64.3642C176.179 64.0643 176.365 63.7931 176.6 63.5679Z" fill="#7F2E68"/>
<path d="M191.845 72.813V73.3013H189.333L193.625 82.9654L197.427 73.3013H194.741V72.813H199.625V73.3013H198.021L191.845 88.723H191.566L184.623 73.3016H182.739V72.813H191.845Z" fill="#7F2E68"/>
<path d="M204.859 80.5936C204.859 81.4305 204.894 82.2737 204.963 83.1229C205.02 83.9162 205.208 84.6945 205.521 85.4256C205.81 86.0943 206.267 86.6769 206.847 87.117C207.567 87.5995 208.425 87.8325 209.29 87.7801C210.106 87.806 210.916 87.626 211.645 87.2567C212.232 86.9476 212.763 86.5408 213.215 86.0535C213.584 85.655 213.89 85.2018 214.122 84.7098C214.276 84.4009 214.388 84.0723 214.453 83.7332L214.941 83.9071C214.804 84.401 214.604 84.8757 214.348 85.3201C214.047 85.8479 213.658 86.32 213.197 86.7157C212.658 87.1766 212.045 87.5425 211.383 87.7977C210.546 88.1079 209.658 88.2558 208.766 88.2332C207.616 88.2429 206.472 88.0604 205.382 87.6932C204.375 87.3555 203.444 86.8219 202.644 86.1232C201.858 85.4289 201.233 84.5718 200.812 83.6115C200.355 82.5487 200.129 81.401 200.149 80.2443C200.151 79.2343 200.365 78.2358 200.777 77.3136C201.189 76.3698 201.775 75.5118 202.504 74.7843C203.251 74.0417 204.126 73.4391 205.086 73.005C206.088 72.5488 207.177 72.3167 208.278 72.325C209.107 72.3274 209.93 72.4568 210.72 72.7088C211.522 72.9585 212.269 73.3611 212.918 73.8944C213.596 74.4636 214.143 75.1716 214.523 75.9705C214.964 76.9263 215.179 77.971 215.151 79.0233H204.859L204.859 80.5936ZM210.441 76.1971C210.441 75.9412 210.429 75.6274 210.406 75.2557C210.38 74.8733 210.298 74.4968 210.162 74.1385C210.024 73.7693 209.789 73.4441 209.482 73.1971C209.103 72.921 208.641 72.7853 208.173 72.8133C207.515 72.7712 206.864 72.9693 206.341 73.3709C205.906 73.7518 205.575 74.2384 205.382 74.784C205.167 75.3802 205.032 76.0023 204.981 76.634C204.922 77.2971 204.882 77.9309 204.859 78.5354H210.441L210.441 76.1971Z" fill="#7F2E68"/>
<path d="M235.385 62.9403L241.421 80.3143H241.491L247.631 62.9403H256.353V63.4285H253.144V87.2918H256.353V87.7801H244.91V87.2918H248.084V63.4285H248.015L239.432 87.7801H238.874L230.257 63.4285H230.187V87.2918H233.396V87.7801H226.419V87.2918H229.629V63.4285H226.419V62.9403H235.385Z" fill="#7F2E68"/>
<path d="M273.396 88.0946C272.825 88.1831 272.247 88.2295 271.669 88.2332C270.747 88.3018 269.827 88.0824 269.035 87.6053C268.464 87.1866 268.082 86.5599 267.971 85.8612H267.901C267.641 86.6579 267.093 87.3294 266.366 87.745C265.472 88.1166 264.506 88.2834 263.54 88.2332C262.966 88.2318 262.393 88.1736 261.83 88.0594C261.271 87.9509 260.731 87.7628 260.225 87.5008C259.746 87.2532 259.338 86.8871 259.039 86.4373C258.725 85.943 258.567 85.3655 258.586 84.7801C258.565 84.1901 258.703 83.6054 258.987 83.0877C259.253 82.6359 259.609 82.244 260.034 81.9364C260.483 81.6122 260.976 81.3538 261.499 81.1688C262.045 80.9715 262.609 80.7798 263.191 80.5936C264.144 80.3143 264.917 80.0757 265.511 79.8778C265.996 79.7308 266.459 79.5196 266.889 79.2498C267.18 79.0672 267.416 78.8077 267.569 78.4998C267.709 78.1571 267.774 77.7887 267.761 77.4188V75.2899C267.768 74.6896 267.611 74.0987 267.308 73.5809C267.119 73.3098 266.861 73.095 266.559 72.9598C266.258 72.8246 265.926 72.7739 265.598 72.8133C265.108 72.8013 264.624 72.9282 264.203 73.1795C263.993 73.3303 263.828 73.5342 263.724 73.7703C263.619 74.0063 263.58 74.2659 263.609 74.5223C263.614 74.6449 263.625 74.7672 263.644 74.8885C263.667 75.0633 263.69 75.2554 263.714 75.4647C263.737 75.6737 263.76 75.8719 263.784 76.0575C263.808 76.2431 263.819 76.3719 263.819 76.4412C263.836 76.7348 263.75 77.0249 263.575 77.2612C263.421 77.4515 263.224 77.6011 262.999 77.6967C262.777 77.7903 262.541 77.8435 262.301 77.8539C262.057 77.8656 261.854 77.8714 261.691 77.8715C261.452 77.871 261.213 77.8534 260.976 77.8188C260.744 77.7892 260.523 77.7055 260.33 77.5746C260.133 77.4345 259.971 77.2494 259.86 77.0346C259.718 76.7413 259.653 76.4174 259.668 76.0922C259.66 75.5116 259.837 74.9435 260.174 74.4701C260.527 73.9792 260.986 73.5737 261.517 73.2836C262.113 72.9555 262.753 72.7148 263.418 72.5688C264.145 72.4039 264.888 72.322 265.634 72.3246C266.47 72.3204 267.304 72.3904 268.128 72.5336C268.847 72.6505 269.536 72.9116 270.152 73.3012C270.728 73.6812 271.197 74.2041 271.512 74.8188C271.874 75.5741 272.048 76.4063 272.018 77.2436V85.8959C272.01 86.2939 272.075 86.6901 272.209 87.0649C272.337 87.4018 272.657 87.5704 273.169 87.5707C273.43 87.5804 273.689 87.52 273.919 87.3959C274.135 87.2638 274.329 87.0991 274.495 86.9076L274.809 87.2211C274.651 87.4606 274.443 87.6629 274.199 87.8137C273.955 87.9646 273.681 88.0604 273.396 88.0946ZM267.692 79.1278C267.637 79.28 267.547 79.4174 267.43 79.5291C267.226 79.7072 266.997 79.8543 266.75 79.9657C266.308 80.1746 265.866 80.378 265.424 80.5757C264.994 80.7659 264.594 81.0187 264.238 81.3257C263.882 81.6376 263.591 82.017 263.383 82.4419C263.142 82.9789 263.029 83.564 263.052 84.1519C263.052 84.4302 263.069 84.7564 263.104 85.1284C263.139 85.5013 263.233 85.8663 263.383 86.2095C263.533 86.5577 263.767 86.8634 264.064 87.0995C264.427 87.363 264.871 87.4924 265.319 87.4658C265.628 87.4645 265.932 87.393 266.209 87.2568C266.516 87.1037 266.785 86.883 266.995 86.6113C267.253 86.2672 267.443 85.8762 267.553 85.4599C267.703 84.8971 267.774 84.3158 267.762 83.7333V79.1279L267.692 79.1278Z" fill="#7F2E68"/>
<path d="M278.577 87.2918V73.3018H276.274V72.813H282.763V76.3013H282.833C282.925 76.0923 283.088 75.7726 283.321 75.3423C283.589 74.867 283.931 74.4372 284.333 74.0689C284.837 73.6093 285.415 73.2379 286.043 72.9702C286.872 72.6308 287.764 72.4701 288.659 72.4986C289.315 72.4591 289.971 72.5566 290.587 72.7849C291.203 73.0133 291.764 73.3674 292.235 73.8247C292.676 74.3161 293.015 74.8894 293.233 75.512C293.452 76.1345 293.545 76.7939 293.509 77.4527V87.2915H295.846V87.7798H287.089V87.2915H289.253V76.2674C289.316 75.5044 289.106 74.7437 288.659 74.1219C288.46 73.8958 288.212 73.7173 287.934 73.5995C287.656 73.4817 287.356 73.4276 287.054 73.4412C286.495 73.4416 285.944 73.5794 285.45 73.8426C284.913 74.132 284.453 74.5443 284.107 75.0457C283.689 75.6523 283.376 76.3247 283.182 77.035C282.934 77.9441 282.816 78.8838 282.833 79.826V87.2918H285.031V87.7801H276.274V87.2918H278.577Z" fill="#7F2E68"/>
<path d="M303.904 72.813V83.873C303.88 84.6558 304.061 85.4313 304.428 86.123C304.618 86.4357 304.892 86.6884 305.219 86.852C305.547 87.0156 305.914 87.0835 306.278 87.0478C306.792 87.0533 307.297 86.9208 307.742 86.664C308.189 86.4045 308.575 86.0537 308.876 85.6347C309.205 85.1741 309.453 84.661 309.61 84.1171C309.785 83.5283 309.872 82.917 309.87 82.3027V73.3017H307.569V72.813H314.127V87.2915H316.43V87.7798H309.941V84.9536H309.871C309.691 85.4562 309.405 85.9144 309.034 86.2974C308.659 86.683 308.23 87.012 307.76 87.2739C307.285 87.5415 306.774 87.741 306.243 87.8667C305.729 87.9922 305.202 88.0568 304.673 88.0591C303.343 88.1492 302.023 87.7728 300.94 86.9947C300.469 86.5278 300.108 85.9611 299.885 85.3363C299.662 84.7116 299.581 84.0447 299.649 83.3847V73.3017H297.311V72.813H303.904Z" fill="#7F2E68"/>
<path d="M333.542 88.0946C332.97 88.1831 332.393 88.2295 331.814 88.2332C330.893 88.3018 329.972 88.0824 329.181 87.6053C328.61 87.1868 328.227 86.5601 328.116 85.8612H328.047C327.787 86.6578 327.239 87.3293 326.512 87.745C325.618 88.1166 324.652 88.2834 323.686 88.2332C323.112 88.2318 322.539 88.1735 321.977 88.0594C321.417 87.951 320.877 87.7629 320.371 87.5008C319.892 87.2532 319.484 86.8871 319.186 86.4373C318.871 85.943 318.713 85.3656 318.731 84.7801C318.711 84.1902 318.849 83.6055 319.133 83.0877C319.399 82.636 319.755 82.2441 320.18 81.9364C320.629 81.6121 321.122 81.3537 321.645 81.1688C322.191 80.9715 322.755 80.7798 323.337 80.5936C324.29 80.3143 325.064 80.0757 325.657 79.8778C326.142 79.7306 326.605 79.5194 327.035 79.2498C327.326 79.0669 327.562 78.8074 327.715 78.4998C327.855 78.157 327.92 77.7886 327.907 77.4188V75.2899C327.914 74.6896 327.757 74.0987 327.454 73.5809C327.265 73.3097 327.007 73.095 326.705 72.9598C326.404 72.8246 326.072 72.7739 325.744 72.8133C325.253 72.8014 324.77 72.9284 324.348 73.1795C324.139 73.3303 323.974 73.5343 323.869 73.7704C323.765 74.0064 323.726 74.266 323.755 74.5223C323.76 74.6449 323.771 74.7672 323.79 74.8885C323.813 75.0633 323.836 75.2554 323.86 75.4647C323.882 75.6737 323.906 75.8719 323.929 76.0575C323.947 76.1847 323.959 76.3128 323.964 76.4412C323.981 76.7347 323.895 77.0248 323.72 77.2612C323.567 77.4515 323.369 77.6011 323.144 77.6967C322.923 77.7903 322.687 77.8435 322.447 77.8539C322.202 77.8656 321.998 77.8715 321.837 77.8715C321.597 77.871 321.358 77.8534 321.121 77.8188C320.889 77.7891 320.668 77.7055 320.475 77.5746C320.278 77.4342 320.117 77.2492 320.005 77.0346C319.864 76.7415 319.798 76.4179 319.813 76.093C319.805 75.5123 319.982 74.9442 320.319 74.4709C320.672 73.9801 321.131 73.5747 321.662 73.2844C322.258 72.9565 322.898 72.7157 323.563 72.5696C324.29 72.4047 325.033 72.3228 325.779 72.3254C326.615 72.3212 327.449 72.3912 328.273 72.5344C328.992 72.6512 329.681 72.9123 330.296 73.302C330.873 73.6817 331.342 74.2046 331.656 74.8196C332.019 75.5749 332.193 76.407 332.163 77.2444V85.8967C332.156 86.2947 332.221 86.6909 332.355 87.0657C332.483 87.4026 332.802 87.5712 333.314 87.5715C333.575 87.5813 333.834 87.5209 334.065 87.3967C334.281 87.2646 334.475 87.0999 334.64 86.9084L334.954 87.2219C334.796 87.4612 334.588 87.6632 334.344 87.8139C334.1 87.9646 333.827 88.0604 333.542 88.0946ZM327.838 79.1278C327.783 79.2799 327.693 79.4172 327.576 79.5291C327.372 79.707 327.142 79.8541 326.895 79.9657C326.453 80.1746 326.011 80.378 325.569 80.5757C325.139 80.7661 324.74 81.0188 324.384 81.3257C324.028 81.6376 323.737 82.0169 323.528 82.4419C323.288 82.9789 323.175 83.5641 323.197 84.1519C323.197 84.4302 323.215 84.7564 323.25 85.1284C323.284 85.5013 323.378 85.8663 323.528 86.2095C323.679 86.5577 323.912 86.8634 324.209 87.0995C324.573 87.363 325.017 87.4924 325.465 87.4658C325.774 87.4645 326.078 87.393 326.355 87.2568C326.662 87.104 326.931 86.8832 327.14 86.6113C327.399 86.2674 327.589 85.8763 327.699 85.4599C327.849 84.897 327.919 84.3158 327.908 83.7333V79.1279L327.838 79.1278Z" fill="#7F2E68"/>
<path d="M342.805 62.6258V87.2918H345.143V87.7801H336.211V87.2918H338.548V63.1141H336.211V62.6258H342.805Z" fill="#7F2E68"/>
<path d="M363.318 63.4285C362.543 63.4183 361.769 63.5063 361.016 63.6903C360.353 63.8585 359.734 64.1676 359.201 64.5965C358.611 65.0956 358.125 65.7062 357.77 66.3934C357.286 67.3278 356.9 68.31 356.619 69.3241H356.166V62.9403H378.041V69.3241H377.587C377.307 68.3099 376.921 67.3277 376.437 66.3934C376.082 65.7064 375.596 65.0959 375.006 64.5965C374.474 64.1676 373.855 63.8586 373.192 63.6903C372.438 63.5064 371.665 63.4184 370.889 63.4285H369.633V87.2918H372.843V87.7801H361.364V87.2918H364.574V63.4285H363.318Z" fill="#7F2E68"/>
<path d="M382.576 87.2918V63.1141H380.273V62.6258H386.832V76.1619H386.902C386.994 75.953 387.151 75.645 387.372 75.2381C387.635 74.7794 387.971 74.3667 388.366 74.0164C388.869 73.5719 389.44 73.2127 390.059 72.953C390.885 72.6243 391.77 72.4697 392.659 72.4989C393.314 72.4593 393.971 72.5568 394.586 72.7851C395.202 73.0134 395.763 73.3676 396.234 73.825C396.674 74.3163 397.014 74.8896 397.232 75.5121C397.451 76.1347 397.544 76.7942 397.507 77.453V87.2918H399.845V87.7801H391.089V87.2918H393.252V76.2674C393.315 75.5045 393.105 74.7439 392.659 74.1219C392.459 73.8958 392.211 73.7173 391.933 73.5995C391.655 73.4817 391.355 73.4276 391.053 73.4412C390.494 73.4416 389.943 73.5794 389.449 73.8426C388.912 74.1322 388.452 74.5444 388.105 75.0457C387.688 75.6524 387.376 76.3248 387.181 77.035C386.932 77.944 386.815 78.8838 386.831 79.826V87.2918H389.03V87.7801H380.273V87.2918H382.576Z" fill="#7F2E68"/>
<path d="M406.474 80.5936C406.474 81.4305 406.508 82.2737 406.578 83.1229C406.635 83.9163 406.823 84.6945 407.137 85.4256C407.425 86.0942 407.882 86.6768 408.462 87.117C409.181 87.5995 410.04 87.8325 410.904 87.7801C411.721 87.806 412.531 87.626 413.26 87.2567C413.847 86.9475 414.378 86.5406 414.829 86.0535C415.199 85.6553 415.505 85.202 415.736 84.7098C415.891 84.4008 416.002 84.0723 416.068 83.7332L416.557 83.9071C416.418 84.401 416.219 84.8756 415.963 85.3201C415.662 85.8481 415.273 86.3203 414.812 86.7157C414.273 87.1766 413.66 87.5425 412.998 87.7977C412.161 88.1079 411.273 88.2557 410.381 88.2332C409.231 88.2429 408.087 88.0603 406.997 87.6932C405.99 87.3557 405.059 86.8221 404.259 86.1232C403.473 85.4291 402.848 84.572 402.427 83.6115C401.97 82.5488 401.744 81.401 401.764 80.2443C401.766 79.2343 401.98 78.2359 402.392 77.3136C402.804 76.3698 403.39 75.5118 404.119 74.7843C404.866 74.0418 405.741 73.4392 406.7 73.005C407.702 72.5489 408.792 72.3168 409.893 72.325C410.722 72.3274 411.545 72.4568 412.335 72.7088C413.137 72.9586 413.884 73.3612 414.533 73.8944C415.21 74.4638 415.757 75.1717 416.138 75.9705C416.579 76.9262 416.794 77.9709 416.766 79.0233H406.474V80.5936ZM412.056 76.1971C412.056 75.9412 412.044 75.6274 412.021 75.2557C411.995 74.8733 411.913 74.4968 411.776 74.1385C411.638 73.7694 411.403 73.4442 411.096 73.1971C410.718 72.9211 410.255 72.7854 409.788 72.8133C409.13 72.7712 408.479 72.9693 407.956 73.3709C407.52 73.7516 407.19 74.2383 406.997 74.784C406.782 75.3801 406.647 76.0023 406.595 76.634C406.537 77.2971 406.496 77.9309 406.473 78.5354H412.055L412.056 76.1971Z" fill="#7F2E68"/>
<path d="M425.453 72.813V75.7437H425.522C425.929 74.8767 426.504 74.0998 427.215 73.4585C427.995 72.7932 428.999 72.4499 430.023 72.4985C430.884 72.4592 431.728 72.7387 432.395 73.2836C432.7 73.5561 432.94 73.8935 433.097 74.2709C433.254 74.6483 433.324 75.0561 433.303 75.4643C433.337 76.0541 433.158 76.6365 432.797 77.1043C432.587 77.3168 432.333 77.4801 432.052 77.5826C431.772 77.6851 431.472 77.7242 431.175 77.6971C430.667 77.7039 430.165 77.5904 429.709 77.366C429.487 77.2494 429.306 77.0691 429.188 76.8485C429.07 76.6278 429.02 76.3768 429.046 76.1278C429.051 76.0052 429.062 75.8829 429.081 75.7616C429.104 75.5868 429.134 75.4016 429.168 75.203C429.202 75.0044 429.232 74.825 429.256 74.6619C429.279 74.4988 429.29 74.4061 429.29 74.3826C429.276 74.2332 429.241 74.0866 429.186 73.9471C429.134 73.8368 429.056 73.7409 428.959 73.6678C428.82 73.5768 428.654 73.5339 428.488 73.5457C428.173 73.575 427.871 73.6894 427.616 73.8768C427.232 74.1317 426.901 74.4576 426.639 74.8368C426.311 75.3054 426.047 75.8158 425.854 76.3543C425.624 76.9976 425.512 77.6771 425.522 78.3602V87.2918H428.278V87.7801H418.998V87.2918H421.267V73.3018H418.998V72.813H425.453Z" fill="#7F2E68"/>
<path d="M448.915 88.0946C448.343 88.1831 447.766 88.2295 447.188 88.2332C446.266 88.3018 445.345 88.0824 444.554 87.6053C443.983 87.1868 443.601 86.5601 443.489 85.8612H443.42C443.16 86.6579 442.613 87.3293 441.885 87.745C440.991 88.1166 440.025 88.2834 439.059 88.2332C438.485 88.2318 437.912 88.1735 437.35 88.0594C436.79 87.951 436.25 87.7629 435.744 87.5008C435.265 87.2532 434.857 86.8871 434.559 86.4373C434.244 85.943 434.086 85.3656 434.104 84.7801C434.084 84.1901 434.222 83.6055 434.506 83.0877C434.772 82.6361 435.128 82.2441 435.553 81.9364C436.002 81.6121 436.495 81.3536 437.018 81.1688C437.564 80.9715 438.128 80.7798 438.71 80.5936C439.663 80.3143 440.437 80.0757 441.03 79.8778C441.515 79.7306 441.979 79.5194 442.408 79.2498C442.699 79.0669 442.935 78.8074 443.089 78.4998C443.228 78.157 443.293 77.7886 443.28 77.4188V75.2899C443.287 74.6896 443.13 74.0988 442.827 73.5809C442.638 73.3098 442.38 73.0951 442.078 72.9598C441.777 72.8246 441.445 72.774 441.117 72.8133C440.626 72.8014 440.143 72.9283 439.721 73.1795C439.512 73.3303 439.347 73.5343 439.243 73.7703C439.138 74.0064 439.099 74.266 439.129 74.5223C439.133 74.6449 439.144 74.7672 439.163 74.8885C439.186 75.0633 439.21 75.2554 439.233 75.4647C439.255 75.6737 439.279 75.8719 439.302 76.0575C439.32 76.1847 439.332 76.3128 439.337 76.4412C439.354 76.7347 439.268 77.0247 439.093 77.2612C438.94 77.4515 438.742 77.6011 438.517 77.6967C438.296 77.7903 438.06 77.8435 437.82 77.8539C437.576 77.8656 437.371 77.8715 437.21 77.8715C436.97 77.871 436.731 77.8534 436.494 77.8188C436.263 77.7891 436.041 77.7055 435.848 77.5746C435.651 77.4342 435.49 77.2492 435.378 77.0346C435.237 76.7412 435.171 76.4174 435.186 76.0922C435.178 75.5115 435.356 74.9434 435.692 74.4701C436.045 73.9793 436.504 73.5738 437.035 73.2836C437.631 72.9556 438.272 72.7149 438.936 72.5688C439.663 72.4039 440.407 72.322 441.152 72.3246C441.988 72.3204 442.823 72.3903 443.646 72.5336C444.366 72.6504 445.054 72.9115 445.67 73.3012C446.247 73.681 446.715 74.2039 447.03 74.8188C447.392 75.5741 447.566 76.4062 447.536 77.2436V85.8959C447.529 86.2939 447.594 86.6901 447.728 87.0649C447.856 87.4018 448.175 87.5704 448.687 87.5707C448.948 87.5805 449.208 87.5201 449.438 87.3959C449.654 87.2638 449.848 87.0991 450.013 86.9076L450.327 87.2211C450.17 87.4605 449.961 87.6627 449.718 87.8136C449.474 87.9644 449.2 88.0603 448.915 88.0946ZM443.211 79.1278C443.156 79.2799 443.066 79.4172 442.949 79.5291C442.745 79.707 442.515 79.8541 442.269 79.9657C441.826 80.1746 441.384 80.378 440.942 80.5757C440.512 80.7661 440.113 81.0188 439.757 81.3257C439.401 81.6375 439.11 82.0169 438.901 82.4419C438.661 82.9789 438.548 83.564 438.57 84.1519C438.57 84.4302 438.588 84.7564 438.623 85.1284C438.657 85.5013 438.751 85.8663 438.901 86.2095C439.052 86.5577 439.285 86.8634 439.582 87.0995C439.946 87.363 440.39 87.4924 440.838 87.4658C441.147 87.4645 441.451 87.393 441.728 87.2568C442.035 87.104 442.304 86.8833 442.513 86.6113C442.772 86.2674 442.962 85.8763 443.072 85.4599C443.222 84.897 443.292 84.3158 443.281 83.7333V79.1279L443.211 79.1278Z" fill="#7F2E68"/>
<path d="M451.409 73.3016V72.813H457.898V75.3941H457.968C458.2 74.4888 458.735 73.6903 459.484 73.1317C460.233 72.5731 461.151 72.2883 462.085 72.3247C463.284 72.29 464.473 72.5598 465.539 73.1089C466.451 73.5978 467.252 74.269 467.894 75.0806C468.499 75.852 468.96 76.7268 469.254 77.6626C469.531 78.5075 469.678 79.3896 469.691 80.2788C469.695 82.3198 468.942 84.2898 467.579 85.8088C466.907 86.5484 466.094 87.1472 465.189 87.5705C464.217 88.0209 463.156 88.2471 462.084 88.2326C461.144 88.2776 460.222 87.9662 459.502 87.3606C458.856 86.7876 458.355 86.0707 458.037 85.2678H457.967V97.0246H460.339V97.5129H451.409V97.0246H453.711V73.3016H451.409ZM458.055 82.7039C458.105 83.5381 458.276 84.3606 458.561 85.1463C458.815 85.8651 459.241 86.5115 459.8 87.0301C460.438 87.5624 461.255 87.8307 462.085 87.7801C462.65 87.8098 463.205 87.6226 463.637 87.2567C464.058 86.8449 464.36 86.3265 464.51 85.7567C464.727 84.9886 464.855 84.1984 464.894 83.4012C464.951 82.4832 464.98 81.4542 464.98 80.3143C464.99 79.132 464.938 77.9501 464.823 76.7733C464.759 75.9774 464.577 75.1954 464.282 74.4533C464.087 73.948 463.747 73.5113 463.306 73.1974C462.854 72.9264 462.332 72.793 461.806 72.8136C461.05 72.7753 460.309 73.0388 459.747 73.546C459.219 74.0601 458.824 74.6944 458.596 75.3947C458.33 76.1857 458.16 77.0057 458.09 77.8371C458.008 78.7217 457.967 79.5476 457.968 80.3146C457.968 81.0351 457.997 81.8316 458.055 82.7039Z" fill="#7F2E68"/>
<path d="M485.459 73.3016H482.563V72.813H487.622V73.3013H486.017C484.715 76.0923 483.598 78.5926 482.667 80.8023C481.737 83.012 480.928 84.9775 480.242 86.6988C479.556 88.4196 478.951 89.9371 478.428 91.2515C477.905 92.5659 477.411 93.7228 476.945 94.7222C476.6 95.597 476.064 96.3837 475.375 97.0249C474.709 97.5413 473.88 97.8011 473.039 97.7573C472.124 97.7973 471.223 97.5336 470.474 97.0073C470.151 96.7691 469.892 96.4553 469.719 96.0935C469.545 95.7318 469.463 95.333 469.48 94.9322C469.456 94.6533 469.502 94.3727 469.615 94.1165C469.728 93.8602 469.903 93.6366 470.125 93.4663C470.582 93.156 471.125 92.9974 471.677 93.0132C472.122 93.0141 472.558 93.1411 472.934 93.3794C473.124 93.4912 473.279 93.6527 473.383 93.8463C473.488 94.0399 473.537 94.2584 473.527 94.4781C473.542 94.8295 473.464 95.1787 473.3 95.4898C473.144 95.7661 473.066 96.0796 473.074 96.397C473.066 96.5024 473.08 96.6083 473.116 96.7076C473.152 96.807 473.209 96.8975 473.283 96.9732C473.415 97.0976 473.59 97.1661 473.771 97.1646C474.203 97.1595 474.618 96.9986 474.94 96.7115C475.321 96.385 475.65 96.0027 475.916 95.5777C476.211 95.1164 476.468 94.6321 476.684 94.1294C476.905 93.6177 477.097 93.1525 477.26 92.7339L478.76 89.0005L472.2 73.3013H470.353V72.813H479.214V73.3013H476.772L481.029 83.3843L485.459 73.3016Z" fill="#7F2E68"/>
<path d="M162.925 121.5C163.309 120.073 163.486 118.599 163.449 117.122C163.468 116.33 163.392 115.54 163.222 114.766C163.113 114.258 162.879 113.784 162.542 113.389C162.236 113.062 161.842 112.831 161.408 112.725C160.888 112.602 160.355 112.543 159.821 112.552V112.062H166.868V112.552C166.421 112.624 165.978 112.723 165.542 112.847C165.2 112.947 164.9 113.156 164.687 113.441C164.432 113.817 164.265 114.247 164.199 114.697C164.072 115.464 163.996 116.239 163.972 117.016C163.949 117.482 163.908 118.035 163.85 118.674C163.792 119.314 163.699 119.977 163.571 120.663C163.443 121.349 163.268 122.025 163.048 122.686C162.841 123.319 162.554 123.923 162.193 124.483L163.798 127.308C163.938 127.534 164.102 127.745 164.286 127.936C164.412 128.067 164.564 128.17 164.732 128.236C164.901 128.302 165.082 128.331 165.263 128.32C165.42 128.327 165.576 128.299 165.72 128.239C165.865 128.179 165.995 128.087 166.1 127.972C166.313 127.734 166.484 127.463 166.606 127.169C166.727 126.891 166.809 126.597 166.85 126.297C166.877 126.112 166.895 125.926 166.903 125.739C166.903 125.634 166.897 125.529 166.886 125.425C166.869 125.317 166.84 125.212 166.798 125.111H167.286C167.318 125.184 167.341 125.26 167.356 125.338C167.38 125.447 167.392 125.557 167.391 125.669C167.391 125.763 167.368 126.048 167.321 126.524C167.256 127.059 167.084 127.575 166.816 128.042C166.481 128.624 166.015 129.119 165.455 129.489C164.674 129.964 163.767 130.189 162.856 130.135C162.02 130.186 161.19 129.972 160.484 129.525C159.925 129.118 159.431 128.63 159.018 128.076C158.669 128.356 158.326 128.617 157.989 128.862C157.63 129.118 157.244 129.335 156.838 129.507C156.359 129.707 155.863 129.859 155.355 129.961C154.711 130.085 154.056 130.143 153.401 130.135C151.923 130.196 150.452 129.903 149.11 129.28C148.114 128.791 147.239 128.088 146.546 127.222C145.962 126.485 145.534 125.636 145.29 124.728C145.089 124.011 144.978 123.273 144.958 122.529C144.941 121.533 145.163 120.546 145.604 119.652C146.032 118.806 146.584 118.03 147.244 117.349C147.908 116.662 148.638 116.042 149.424 115.499C150.214 114.953 150.982 114.447 151.727 113.981C151.354 113.005 151.075 112.22 150.89 111.627C150.705 111.046 150.611 110.44 150.61 109.83C150.609 109.115 150.757 108.408 151.046 107.754C151.332 107.098 151.727 106.497 152.215 105.974C152.694 105.459 153.261 105.033 153.89 104.719C154.483 104.413 155.141 104.252 155.809 104.248C156.235 104.246 156.658 104.31 157.064 104.439C157.454 104.564 157.811 104.773 158.111 105.051C158.431 105.357 158.676 105.733 158.827 106.149C159.014 106.681 159.102 107.243 159.088 107.806C159.069 108.579 158.872 109.337 158.513 110.021C157.911 111.025 157.064 111.859 156.053 112.446L161.914 123.925C162.365 123.169 162.706 122.352 162.925 121.5ZM152.215 115.011C152.122 114.79 152.017 114.575 151.901 114.365C151.413 114.738 150.988 115.075 150.628 115.377C150.287 115.658 149.982 115.981 149.721 116.337C149.476 116.674 149.293 117.052 149.18 117.453C149.055 117.925 148.997 118.413 149.005 118.901C149.025 119.461 149.107 120.017 149.249 120.558C149.429 121.299 149.656 122.027 149.93 122.738C150.23 123.527 150.58 124.296 150.977 125.041C151.358 125.77 151.802 126.464 152.302 127.117C152.739 127.694 153.256 128.205 153.837 128.635C154.312 129.005 154.893 129.213 155.495 129.228C156.087 129.237 156.672 129.087 157.186 128.792C157.754 128.454 158.296 128.075 158.809 127.658C158.576 127.332 158.396 127.06 158.268 126.838C158.14 126.617 158.018 126.379 157.902 126.123L152.669 115.971C152.506 115.645 152.355 115.324 152.215 115.011ZM158.495 106.76C158.408 106.403 158.267 106.062 158.076 105.748C157.897 105.453 157.652 105.202 157.362 105.016C157.041 104.822 156.671 104.725 156.297 104.736C156.228 104.736 156.071 104.748 155.826 104.771C155.555 104.804 155.293 104.893 155.059 105.033C154.763 105.213 154.517 105.465 154.344 105.766C154.111 106.199 154.002 106.688 154.03 107.178C154.034 107.562 154.087 107.942 154.187 108.312C154.298 108.74 154.438 109.159 154.605 109.568C154.78 109.999 154.977 110.429 155.199 110.859C155.419 111.29 155.635 111.679 155.844 112.028C156.076 111.865 156.355 111.667 156.681 111.434C157.023 111.188 157.333 110.901 157.606 110.58C157.906 110.228 158.152 109.834 158.338 109.411C158.544 108.926 158.646 108.403 158.635 107.876C158.634 107.499 158.588 107.125 158.495 106.76Z" fill="#7F2E68"/>
<path d="M191.708 129.158V129.646H180.229V129.158H183.439V105.295H180.229V104.806H183.439C184.625 104.806 185.811 104.789 186.998 104.754C188.184 104.718 189.37 104.701 190.556 104.701C191.689 104.708 192.82 104.795 193.94 104.963C195.099 105.123 196.227 105.452 197.29 105.94C198.286 106.396 199.164 107.077 199.854 107.928C200.571 108.874 200.935 110.04 200.883 111.225C200.885 112.123 200.657 113.006 200.22 113.79C199.729 114.644 199.033 115.363 198.197 115.883C197.142 116.538 195.987 117.015 194.777 117.296C193.189 117.669 191.56 117.845 189.928 117.819H188.498V129.158H191.708ZM189.579 117.331C190.348 117.402 191.123 117.32 191.859 117.089C192.596 116.859 193.279 116.484 193.871 115.988C194.754 115.093 195.196 113.575 195.196 111.434C195.301 109.806 194.899 108.185 194.045 106.794C193.277 105.725 191.882 105.19 189.858 105.189C189.602 105.189 189.358 105.202 189.126 105.224C188.893 105.246 188.684 105.271 188.498 105.294V117.33L189.579 117.331Z" fill="#7F2E68"/>
<path d="M207.163 122.46C207.163 123.297 207.198 124.14 207.268 124.989C207.324 125.782 207.513 126.561 207.826 127.292C208.114 127.961 208.571 128.543 209.151 128.983C209.871 129.466 210.729 129.699 211.594 129.646C212.41 129.672 213.22 129.492 213.949 129.123C214.536 128.814 215.067 128.407 215.519 127.92C215.889 127.521 216.195 127.068 216.426 126.576C216.58 126.267 216.692 125.939 216.757 125.599L217.246 125.773C217.108 126.267 216.908 126.742 216.652 127.186C216.352 127.714 215.962 128.186 215.501 128.582C214.962 129.043 214.349 129.409 213.687 129.664C212.85 129.974 211.962 130.122 211.07 130.099C209.92 130.109 208.776 129.927 207.686 129.559C206.679 129.222 205.748 128.688 204.948 127.989C204.162 127.295 203.537 126.438 203.116 125.478C202.659 124.415 202.433 123.267 202.453 122.111C202.455 121.1 202.669 120.102 203.081 119.18C203.493 118.236 204.079 117.378 204.808 116.651C205.555 115.908 206.43 115.305 207.39 114.871C208.392 114.415 209.481 114.183 210.582 114.191C211.411 114.194 212.234 114.323 213.024 114.575C213.826 114.825 214.573 115.227 215.222 115.761C215.9 116.33 216.447 117.038 216.827 117.837C217.269 118.793 217.483 119.837 217.455 120.89H207.163V122.46ZM212.745 118.063C212.745 117.808 212.733 117.494 212.71 117.122C212.684 116.74 212.602 116.363 212.466 116.005C212.328 115.636 212.093 115.31 211.786 115.063C211.407 114.787 210.945 114.652 210.477 114.68C209.819 114.637 209.168 114.836 208.646 115.237C208.21 115.618 207.879 116.105 207.686 116.65C207.471 117.246 207.336 117.869 207.285 118.5C207.226 119.163 207.186 119.797 207.163 120.402H212.745L212.745 118.063Z" fill="#7F2E68"/>
<path d="M226.107 104.492V129.158H228.444V129.646H219.513V129.158H221.85V104.98H219.513V104.492H226.107Z" fill="#7F2E68"/>
<path d="M237.48 114.68V115.168H234.968L239.259 124.832L243.062 115.168H240.376V114.68H245.26V115.168H243.655L237.48 130.589H237.201L230.258 115.168H228.374V114.68H237.48Z" fill="#7F2E68"/>
<path d="M256.912 119.459C257.298 118.507 257.86 117.637 258.569 116.894C259.338 116.089 260.249 115.433 261.256 114.959C262.409 114.427 263.667 114.164 264.936 114.191C265.747 114.183 266.556 114.276 267.344 114.47C268.004 114.63 268.634 114.895 269.21 115.255C269.705 115.564 270.122 115.982 270.431 116.476C270.722 116.954 270.873 117.504 270.867 118.063C270.899 118.361 270.862 118.662 270.759 118.943C270.656 119.224 270.491 119.478 270.274 119.685C269.786 120.028 269.195 120.194 268.6 120.157C268.09 120.162 267.585 120.061 267.117 119.86C266.888 119.751 266.699 119.573 266.577 119.351C266.455 119.129 266.406 118.874 266.437 118.622C266.449 118.457 266.478 118.293 266.524 118.134C266.582 117.901 266.64 117.657 266.698 117.4C266.756 117.145 266.814 116.901 266.873 116.668C266.919 116.508 266.948 116.345 266.96 116.18C266.964 115.959 266.91 115.741 266.803 115.548C266.695 115.355 266.539 115.194 266.349 115.081C265.894 114.8 265.366 114.66 264.832 114.68C264.12 114.64 263.417 114.85 262.843 115.272C262.335 115.695 261.944 116.242 261.709 116.86C261.424 117.598 261.248 118.374 261.186 119.163C261.104 120.035 261.064 120.96 261.064 121.936C261.064 122.844 261.099 123.751 261.169 124.657C261.225 125.507 261.414 126.343 261.727 127.135C262.004 127.844 262.46 128.469 263.052 128.948C263.739 129.447 264.577 129.693 265.425 129.646C266.256 129.673 267.082 129.5 267.832 129.141C268.426 128.847 268.958 128.445 269.402 127.954C269.767 127.549 270.067 127.09 270.292 126.594C270.442 126.273 270.565 125.941 270.659 125.6L271.147 125.774C271.009 126.249 270.828 126.71 270.606 127.152C270.341 127.68 269.98 128.153 269.542 128.548C269.013 129.018 268.405 129.39 267.745 129.647C266.859 129.975 265.917 130.129 264.972 130.1C264.67 130.1 264.245 130.071 263.698 130.013C263.094 129.942 262.499 129.813 261.919 129.629C261.249 129.419 260.601 129.144 259.983 128.81C258.543 128.028 257.434 126.751 256.861 125.216C256.502 124.233 256.331 123.192 256.355 122.146C256.367 121.223 256.556 120.311 256.912 119.459Z" fill="#7F2E68"/>
<path d="M293.474 104.806V105.295H290.265V116.738H300.347V105.295H297.137V104.806H308.615V105.295H305.405V129.158H308.615V129.646H297.137V129.158H300.347V117.226H290.265V129.158H293.474V129.646H281.996V129.158H285.206V105.295H281.996V104.806H293.474Z" fill="#7F2E68"/>
<path d="M315.349 122.46C315.349 123.297 315.383 124.14 315.453 124.989C315.51 125.782 315.698 126.561 316.012 127.292C316.3 127.96 316.757 128.543 317.337 128.983C318.056 129.466 318.915 129.699 319.779 129.646C320.596 129.672 321.406 129.492 322.135 129.123C322.722 128.814 323.253 128.407 323.704 127.92C324.074 127.522 324.38 127.068 324.611 126.576C324.766 126.267 324.877 125.939 324.943 125.599L325.432 125.773C325.293 126.267 325.094 126.742 324.838 127.186C324.537 127.714 324.148 128.187 323.687 128.582C323.148 129.043 322.535 129.409 321.873 129.664C321.036 129.974 320.148 130.122 319.256 130.099C318.106 130.109 316.962 129.927 315.872 129.559C314.865 129.222 313.934 128.688 313.134 127.989C312.348 127.295 311.723 126.438 311.302 125.478C310.845 124.415 310.619 123.267 310.639 122.111C310.641 121.1 310.855 120.102 311.267 119.18C311.679 118.236 312.265 117.378 312.994 116.651C313.741 115.908 314.616 115.305 315.575 114.871C316.577 114.415 317.667 114.183 318.768 114.191C319.597 114.194 320.42 114.323 321.21 114.575C322.012 114.825 322.759 115.227 323.408 115.761C324.085 116.33 324.633 117.038 325.013 117.837C325.454 118.793 325.669 119.837 325.641 120.89H315.349V122.46ZM320.931 118.063C320.931 117.808 320.919 117.494 320.896 117.122C320.87 116.74 320.788 116.363 320.651 116.005C320.513 115.636 320.278 115.31 319.971 115.063C319.593 114.787 319.13 114.652 318.663 114.68C318.005 114.637 317.354 114.836 316.831 115.237C316.395 115.618 316.065 116.105 315.872 116.65C315.657 117.246 315.522 117.869 315.47 118.5C315.412 119.163 315.371 119.797 315.348 120.402H320.93L320.931 118.063Z" fill="#7F2E68"/>
<path d="M342.718 129.961C342.146 130.049 341.569 130.096 340.991 130.099C340.069 130.168 339.148 129.949 338.356 129.472C337.786 129.053 337.404 128.426 337.293 127.727H337.223C336.963 128.524 336.416 129.196 335.688 129.611C334.794 129.983 333.829 130.15 332.863 130.099C332.288 130.098 331.715 130.04 331.153 129.926C330.594 129.817 330.053 129.629 329.548 129.367C329.068 129.119 328.66 128.753 328.361 128.303C328.048 127.809 327.89 127.232 327.908 126.646C327.887 126.056 328.026 125.471 328.31 124.954C328.575 124.502 328.931 124.11 329.356 123.803C329.805 123.478 330.299 123.22 330.821 123.035C331.367 122.838 331.931 122.646 332.513 122.46C333.467 122.18 334.24 121.942 334.833 121.744C335.318 121.597 335.782 121.386 336.211 121.116C336.503 120.934 336.738 120.674 336.891 120.366C337.032 120.023 337.097 119.655 337.084 119.285V117.156C337.091 116.556 336.934 115.965 336.63 115.447C336.442 115.176 336.183 114.961 335.882 114.826C335.581 114.691 335.248 114.64 334.921 114.68C334.43 114.667 333.947 114.794 333.525 115.046C333.316 115.196 333.15 115.4 333.046 115.636C332.941 115.872 332.902 116.132 332.932 116.389C332.936 116.511 332.948 116.633 332.967 116.755C332.989 116.93 333.012 117.122 333.036 117.331C333.059 117.54 333.083 117.738 333.106 117.924C333.129 118.109 333.141 118.238 333.141 118.308C333.158 118.601 333.071 118.891 332.896 119.128C332.743 119.318 332.545 119.467 332.321 119.563C332.099 119.657 331.863 119.71 331.623 119.72C331.378 119.732 331.175 119.738 331.013 119.738C330.773 119.737 330.534 119.72 330.298 119.685C330.066 119.656 329.845 119.572 329.652 119.441C329.454 119.301 329.293 119.116 329.182 118.901C329.04 118.608 328.974 118.284 328.989 117.959C328.982 117.378 329.159 116.81 329.495 116.337C329.848 115.845 330.308 115.44 330.839 115.15C331.435 114.822 332.075 114.581 332.74 114.435C333.467 114.27 334.21 114.188 334.955 114.191C335.791 114.187 336.626 114.257 337.45 114.4C338.169 114.517 338.858 114.778 339.473 115.168C340.05 115.548 340.518 116.071 340.833 116.685C341.196 117.44 341.37 118.273 341.339 119.11V127.763C341.332 128.161 341.397 128.557 341.531 128.932C341.659 129.269 341.979 129.438 342.491 129.438C342.752 129.447 343.011 129.387 343.241 129.263C343.457 129.131 343.651 128.966 343.817 128.775L344.13 129.088C343.973 129.328 343.764 129.53 343.52 129.68C343.276 129.831 343.003 129.927 342.718 129.961ZM337.014 120.994C336.959 121.146 336.869 121.284 336.752 121.395C336.548 121.574 336.318 121.721 336.071 121.832C335.63 122.041 335.188 122.244 334.746 122.442C334.316 122.632 333.916 122.885 333.56 123.192C333.204 123.504 332.913 123.883 332.705 124.308C332.464 124.845 332.351 125.43 332.374 126.018C332.374 126.296 332.391 126.623 332.426 126.995C332.461 127.368 332.555 127.732 332.705 128.076C332.855 128.424 333.089 128.73 333.386 128.966C333.75 129.229 334.193 129.358 334.642 129.332C334.95 129.331 335.255 129.259 335.532 129.123C335.839 128.97 336.107 128.749 336.317 128.477C336.575 128.133 336.765 127.742 336.874 127.326C337.025 126.763 337.096 126.182 337.084 125.599V120.994H337.014Z" fill="#7F2E68"/>
<path d="M351.98 104.492V129.158H354.318V129.646H345.387V129.158H347.725V104.98H345.387V104.492H351.98Z" fill="#7F2E68"/>
<path d="M359.29 110.527C359.987 110.713 360.721 110.713 361.418 110.527C361.78 110.434 362.136 110.318 362.482 110.178V114.68H366.563V115.168H362.482V126.855C362.48 127.182 362.503 127.509 362.551 127.832C362.592 128.118 362.681 128.395 362.813 128.652C362.939 128.894 363.133 129.094 363.372 129.227C363.668 129.379 363.998 129.451 364.331 129.437C364.727 129.449 365.119 129.352 365.464 129.158C365.779 128.971 366.057 128.729 366.284 128.442C366.523 128.14 366.717 127.805 366.86 127.448C367.004 127.096 367.127 126.735 367.226 126.367L367.749 126.471C367.653 127.15 367.409 127.799 367.034 128.373C366.732 128.816 366.34 129.19 365.883 129.471C365.46 129.725 364.992 129.896 364.505 129.977C364.044 130.056 363.577 130.097 363.11 130.099C362.155 130.141 361.202 129.999 360.301 129.681C359.729 129.468 359.223 129.107 358.835 128.634C358.531 128.241 358.344 127.769 358.294 127.274C358.248 126.786 358.224 126.332 358.225 125.913V115.168H355.887V114.68H358.225V110.178C358.572 110.318 358.928 110.435 359.29 110.527Z" fill="#7F2E68"/>
<path d="M370.784 129.158V104.98H368.482V104.492H375.041V118.028H375.11C375.203 117.819 375.36 117.511 375.582 117.104C375.844 116.645 376.18 116.233 376.576 115.883C377.078 115.438 377.65 115.079 378.269 114.819C379.094 114.491 379.979 114.336 380.867 114.365C381.523 114.326 382.179 114.423 382.795 114.651C383.411 114.88 383.972 115.234 384.443 115.691C384.884 116.183 385.223 116.756 385.441 117.378C385.66 118.001 385.753 118.66 385.717 119.319V129.158H388.055V129.646H379.297V129.158H381.46V118.134C381.524 117.371 381.314 116.61 380.867 115.988C380.668 115.762 380.42 115.584 380.142 115.466C379.864 115.348 379.564 115.294 379.263 115.308C378.703 115.308 378.151 115.446 377.657 115.709C377.121 115.998 376.661 116.411 376.314 116.912C375.897 117.518 375.584 118.191 375.39 118.901C375.142 119.81 375.024 120.75 375.041 121.692V129.158H377.239V129.646H368.482V129.158H370.784Z" fill="#7F2E68"/>
</svg>
